<svg id="Layer_1" data-name="Layer 1" xmlns="http://www.w3.org/2000/svg" viewBox="0 0 625.15 469.57">
  <defs>
    <style>
      .cls-1 {
        fill: #fff;
      }
    </style>
  </defs>
  <title>Hipster</title>
  <g>
    <g>
      <path class="cls-1" d="M214.76,32.83l-4.44-9a231,231,0,0,1,202.19-1.14l-4.34,9a221,221,0,0,0-193.41,1.09Z"/>
      <g>
        <path class="cls-1" d="M120.84,339.47q-1.55-2.72-3-5.47H106.57q2.66,5.28,5.58,10.42a232,232,0,0,0,79.29,82.22l5.26-8.5A222,222,0,0,1,120.84,339.47Z"/>
        <path class="cls-1" d="M117.78,127a221.75,221.75,0,0,1,21.57-32.94l-7.85-6.2a231.18,231.18,0,0,0-25,39.14Z"/>
      </g>
      <g>
        <path class="cls-1" d="M198.23,116.53l-.38-.86-.29-.77-.58-1.73-.19-.86-.1-.87-.19-.86-.29-2.6v-1.82l.1-.87V102.6l.19-1.72.19-1,.1-.87.19-.77.19-.86.29-1,.39-1.06.57-1.92.39-1.06.38-.86.39-.77.38-.86.38-.77.39-.87.48-.76.48-.68,1-.57,1.06-.29.86.09.77.29.77.48.76.77.49,1.06v.86l-.49,1.15-.47,1.25-.29.58-.39,1-.38.77-.29.86-.19.87-.29,1.15-.29,1.25-.19.86-.1.87-.19.86-.09.87v.76l-.2,1.73v.87l.1,1v1.73l.1.86.19.87.19,1.24.29,1.54.38,1.25.29.86.77,1.54.58.77.47.58.58.67,1.35,1.15.67.48.77.38.86.29,1.25.29,1.15.19.87.2h2.49l.87-.2.86-.09.87-.29,1-.39.77-.38,1.44-.86.77-.48,1.35-1,1.92-1.93.57-.67.48-.67.48-.77.58-.86.38-.48,1.06-1.54.38-.67.48-.77.39-.86.48-.87.67-1.44L233,105l.38-.77.1-.77-.29-.39-.57-.19-.87-.09-1-.1-.86-.19-.77-.19-.87-.29-.86-.19-.77-.29-.77-.39-2.3-.86-1.06-.38-2.88-1.73-.77-.48-1.44-1-.67-.58-3.65-3.65-.48-.67-.58-.67-1-1.45-.38-.67-.39-.86-.77-1.54-.38-1.06-.38-1-.29-1-.39-1.05-.28-.87-.2-1.73-.09-1V78.5l-.19-1.92.09-.87.1-1,.09-.57.2-1.06L208,72l.38-1.25.29-.87.48-1.15.48-1.06.38-.86.48-.67,1.16-1.35.57-.57L213.6,63l1.05-.76L216,61.5l2.69-1.35.86-.29,1.25-.28,1.15-.29,1-.19,1.16-.1h2.21l1.53.19,1.92.1,1.16.19,1.25.29.86.38,1.73.58,1.05.57,1.64,1,1,.57.67.48.67.58,1.15,1.34.49.68.48.76.48.68.38.76.38.87.77,1.54.29.76.29.87.38,1.73.19,1.25.29,1.15.1,1,.1.58.09,1,.1.87v.86l.19,1.73v.86l-.1,1-.09.87-.19.77v1l-.1.58v1.06l-.19.86L245,90.5l-.19,1.25-.19,1-.1.87-.09.76-.19.87-.29.86v1.06l.57.58h1.06l.87-.2,1.05-.28.58-.2,1.82-.48,1.06-.38,1.25-.48,1-.38.87-.49.58-.28.86-.48.86-.39.77-.09.48.38.1.86-.19.77-.29.87-.39.77-.57.57-.77.48-1,.39-.48.28-1.73.87-.86.38-.77.29-1,.39-.58.19-1,.48-.77.29-.77.19-.86.19-1,.29-1,.19-.87.1-.76.19-.58.48L241,105l-.29.86L240.2,107l-1.44,2.88-.29.48-.48.87-.38.86-1,1.54-.38.48-.58.86-.48.68L234.06,117l-.48.77-.58.67-.67.58-.68.67-.57.48-1.25,1.25-1.34,1.15-.77.48-1.06.58-1.15.67-.87.48-.76.39-.87.28-.77.2-.86.28-.87.2-.86.28-1,.1-.58.1-1,.09-.86.1H213.6l-1.15-.19-1.06-.1L209,126l-1.15-.29-.87-.29-.77-.28-.86-.49-1.92-1.34-.77-.67-.58-.58-.67-.57-.58-.58-.57-.77-.67-1-.58-1.06-.48-.86Zm17.1-39.86v2.6l.09,1,.2.86.09.86.58,1.73.29.77.38.87.38.76.48.68.48.86.39.77,1.15,1.34.67.68.39.48,1.34,1.34.67.58.77.57.68.48.76.48.68.48,1,.49.57.19,1.06.48.58.19,1,.38,2.4.77,1,.19.86.2.77-.1.67-.67.39-1.06.57-2.59.19-1.25.1-1.15.1-1,.29-2.6v-.86l.19-1.15V80.13l-.1-1.15-.09-1-.2-1.16-.19-1.24-.38-1.73-.29-.87-.48-1.15-.39-1.06-.38-.86-.48-.77-.48-.67-.48-.48-.58-.67-.76-.58-.68-.48-.77-.38-.86-.39-1.25-.29L227,65.05,225.8,65l-1,.1-1.25.19-1.44.48-1.44.77-1.35.87-1.15,1-.87,1-.38.77-.48,1.15L216,72.73,215.71,74l-.19,1Z"/>
        <path class="cls-1" d="M275.16,91.85l-.76.38-.68.39-.67.48-.77.57-.67.58-1.54,1.06-.67.48-.67.57-.67.67-1.16,1.35-.67.67-1.15,1.35-1,1.53-.58.77L262.39,105l-1.06,3.17-.28,1.24-.39,1.44-.38,1.25-.58,2.6-.38,1.24-.39,1.45-.28,1.24-.29.87-.29,1.25-.19,1-.29,1-.1.87-.19.77-.29.77-.57.48-.87.28-.86.1-1.25.1L252,126l-1.25-.19-.77-.39-.58-.86-.09-1.06.19-1,.29-1.25.29-1.15.19-.86.29-.87.19-.86.29-.77.29-.87.19-.86.19-.77.19-.86.29-.87.29-.77.38-1.72.19-.77.1-.87.29-.86.19-.87.29-.86.29-1.15.38-1.25.48-1.73.19-.77.2-.86.28-.87.2-.86.28-.77.2-.86.28-.87.29-1.25.29-1.15.19-.86.58-1.73.19-.77.29-.87.38-1.72.68-1,1.24-.67,1.54-.19,1.54.19,1.44.48,1,1,.19,1.16-.19,1-.19.67-.29.86-.19.87-.29.77-.19.86-.29.86-.19.87-.1.58.1.09.38-.48.58-.67.48-.67,1.15-1.35.67-.57,1.25-1.06.67-.58,1.25-1.25,1.92-1.53.77-.48.77-.39.77-.48.77-.29.86-.28,1.25-.29,1.15-.19h2.21l1.54.19,1.05.19.87.38.86.48.67.68.48.67.48.77.39.77.29.86.29,1.15.19,1.16v1.82l-.1.87v.86l-.09.77-.2.86-.19,1-.19.58-.29,1-.29,1.25L287,103l-.39,1.25-.28.86-.29,1.25-.39,1.63-.38,1.54-.38,1.34-.2.87-.19.67-.19.87-.29.86-.19.77-.58,2.59-.09.87v1.72l.38.77.67.48.87.1.86-.29.87-.38.76-.48.68-.48.77-.58,1.24-1.25.48-.67.58-.77.48-.67.67-.77.48-.67.58-.87.86-1.44.58-.86.29-.48.57-.87.48-.86.77-1.54.39-.86.29-.77L298,105l.48-.77.87-.58,1.25.29.76,1v1l-.28.86-.39.77-.38.87-.39.77-.48.76-.38.77-.58.87-.28.57-1,1.73-.19.58-.48.86-1,1.54-.57.86-.39.48-.57.77-.68.87-.57.67-1.06,1.15-.58.67-1.34,1.16-.58.57-.76.58-.77.48-1.54.77-.77.29-.86.28-.87.2-.77.09-1,.1h-.86l-.86-.1-.77-.19-.87-.29-.77-.29-.76-.48-.58-.48-.58-.67-.38-.86-.29-.77-.19-.87-.19-.76v-2.12l.19-1.25.09-1,.29-1.25.87-3.16.29-1.64L277,109l.38-1.54.39-1.25.29-.86.38-1.25.38-1.54.29-1.53.39-1.25.38-1.73.1-.86.38-1.83.1-.86-.19-1-.58-1-.87-.87-.86-.29-.86-.09-.87.09Z"/>
        <path class="cls-1" d="M327,79.65l-.48.86-.77,1.54-.48,1.06-.67,1-.48.68-.48.76-.48.68-.48.86-.39.58-.48.77-.67.86-.86,1-.87.87-.38.48-.67.76-1.25,1.25-.58.67L315.5,95.5l-.67.57-.77.77-1.05.77-1.44,1.25-.77.48-2.11,1.34L308,101l-.77.48-1.05.87-.67.86-.39.77-.19,1.06-.29,1.72v.58l-.19,1-.19.87-.1,1v2l-.09,1.25v1.92l.19,1.06.09.58.2,1,.38.86.38.77.58.67.77.48.77.29,1,.19H310l.77-.09.86-.29,1.16-.48,1.05-.58.77-.58,1-.76.87-.87,1.15-1.06.77-.67L319,115l.39-.48.57-.76.39-.68.57-.86.39-.48.57-.87.77-1.44.48-.76.58-.87.48-.86.48-1,.86-1.25,1-.77,1.25.19.77,1v1l-.29.87-.38.76-.48.77-.39.87-.38.77-.29.76-.48.77-.38.68-.48.76-.58.87-.19.48-.48.86-.58.77-1,1.35-.67.86-.39.38-.67.87-.57.67-.77,1-.87.77-.67.67-.57.48-.68.58-.86.48-.77.38-.86.39-.77.38-.77.29-.87.38-1.15.39-1.92.38-1.15.1-1.06-.1h-.57l-1-.09-.87-.2-.77-.28-.86-.29-.77-.39-.77-.48-.67-.57-.58-.58-.57-.67-.39-.77-.38-.86-.29-.77-.19-.87-.29-.86-.1-.87-.19-1v-.57l-.19-1.06-.1-.86v-.87l.1-.86.1-1v-.58l.09-1.25.29-2.11.1-1.15v-.87l.19-.86.19-1,.67-3.17.29-1.15.29-1.73.19-.48.29-1.16.19-.57.39-1.44.28-1.25.2-.87.28-1.15.39-1.34.09-.68.39-1.34.38-1.25.29-.67.38-1.25.39-1.15.38-.87,1-2.49.2-.58.57-1.35.67-1.53.48-1.15.39-.87.29-.57.48-.87.67-1.63.48-1,.48-.87.58-.86.76-1.25L311.66,66l.58-.77L313.49,64l.38-.48.67-.67.68-.48,1.53-1.06,1.06-.67,1.06-.48.86-.29.87-.19h1.72l1,.19.58.1,1,.29.77.38,1.34,1.16.48.76.68,1,.48,1.16.38.86.38,1.15.2,1.25v1.73l-.2,2.59L329,74l-.29.77-.19,1L327.7,78l-.38.77Zm-15.94,2.69-1.35,4-.19.87-.29.86-.38,1.25-.67,2-.29,1-.1.57-.29,1-.29.87-.19,1,.19.58.58-.39,1-.77,3.94-3.93.48-.68.48-.77.58-.86.38-.38.58-.87.67-.86.67-1,.67-1.06.48-.77.39-.67.48-.67.77-1.54.38-1,.29-.58.38-1,.39-.86.19-.87.29-.86.29-1.06.38-1,.29-1.06.38-1.06.1-1,.09-.86V68.12l-.19-.76-.29-.77-.67-.48-.77-.19-.86.19-.87.67-.67.58-.48.57-.48.67-.48.77-1,1.44-.48.87-.38.86-.39.77-.38.87-.39.76-.38.87-.29.77-.38,1-.58,1.44-.38.87Z"/>
        <path class="cls-1" d="M348.16,105.1v1.06l-.29.86-.77,1.54-.86,1.44-.48.86-.39.77-.57.87-.29.57-.48.87-.48.77-.48.67-.58.77-.48.67-1,1.54-1.73,2-1.15,1.25-.67.67-.58.68-.67.57-2.11,1.64-.68.48-.86.38-.86.29-.77.19-1.73.38h-1.63l-1.06-.09-.77-.29-.86-.29-.77-.48-.67-.57-.48-.68-.48-.77-.39-.86-.19-.77-.19-.86-.1-.87v-.86l.19-1.73.2-.86.28-.87.39-1.73.29-.77.19-.86.29-.87.28-.76.87-2.6.09-.77.2-.86.28-.86.2-.87.19-.77.57-1.73.29-1.15.29-1.25.58-1.73.19-.86.19-.67.19-.87.39-1,.29-.77.57-2.59.29-.86.29-1.16.38-1.24.29-.87.39-.77.57-.48.87-.38.76-.1,1,.1,1.73.19,1.54.58.48.67v.86l-.19.87-.29,1.15-.29,1.25-.57,1.73-.2.77-.19.86-.29,1L335.39,97l-1,2.89-.19.86-.38,1.25-.67,2-.2.86-.19.77-.19.86-.67,1.64-.19.86-.68,2.4-.57,1.73-.2.86-.28,1.25-.29,1.54-.19,1.63.19,1.44.77,1.06,1.05.29.87-.1.86-.38.67-.48.77-.58,3.17-3.17.58-.67.48-.67.58-.77,1-1.54.57-.67.39-.58.48-.77.57-.86.39-.86.77-1.64,1.15-2.3.48-.77.86-.48,1.25.19ZM332.7,75.62l.48-.77.76-.67.77-.49,1-.28.87-.2h1l.86.2.77.48.67.57.68.68.48.76.28.87.1.86v1l-.29.87-.48.77L340,81l-.68.58-.77.58-.86.38-1,.19-.86-.09-1-.2-1.54-1-.58-.67-.48-.77-.19-.86-.1-.87.1-.86.19-1Z"/>
        <path class="cls-1" d="M365.93,91.85l-.77.38-.67.39-.67.48-.77.57-.68.58-1.53,1.06-.67.48-.68.57-.67.67-1.15,1.35-.67.67-1.16,1.35-1,1.53-.57.77L353.15,105l-1,3.17-.29,1.24-.38,1.44-.39,1.25-.57,2.6-.39,1.24-.38,1.45-.29,1.24-.29.87-.29,1.25-.19,1-.29,1-.09.87-.2.77-.28.77-.58.48-.86.28-.87.1-1.25.1-1.44-.1-1.25-.19-.77-.39-.57-.86-.1-1.06.19-1,.29-1.25.29-1.15.19-.86.29-.87.19-.86.29-.77.29-.87.19-.86.19-.77.19-.86.29-.87.29-.77.39-1.72.19-.77.09-.87.29-.86.19-.87.29-.86.29-1.15.38-1.25.48-1.73.2-.77.19-.86.29-.87.19-.86.29-.77.19-.86.29-.87.29-1.25.28-1.15.2-.86.57-1.73.19-.77.29-.87.39-1.72.67-1,1.25-.67,1.53-.19,1.54.19,1.44.48,1,1,.19,1.16-.19,1-.19.67-.29.86-.19.87-.29.77-.19.86-.29.86-.19.87-.1.58.1.09.38-.48.58-.67.48-.67,1.15-1.35.67-.57L360,91.08l.68-.58,1.24-1.25,1.93-1.53.76-.48.77-.39.77-.48.77-.29.86-.28,1.25-.29,1.15-.19h2.21l1.54.19,1.06.19.86.38.87.48.67.68.48.67.48.77.38.77.29.86.29,1.15.19,1.16v1.82l-.1.87v.86l-.09.77-.19.86-.2,1-.19.58-.29,1-.28,1.25-.39,1.44-.38,1.25-.29.86-.29,1.25L376.4,108l-.39,1.54-.38,1.34-.19.87-.2.67-.19.87-.29.86-.19.77-.57,2.59-.1.87v1.72l.38.77.68.48.86.1.87-.29.86-.38.77-.48.67-.48.77-.58L381,118l.48-.67.57-.77.48-.67.68-.77.48-.67.57-.87.87-1.44.57-.86.29-.48.58-.87.48-.86.77-1.54.38-.86.29-.77.29-.86.48-.77.86-.58,1.25.29.77,1v1l-.29.86-.38.77-.39.87-.38.77-.48.76-.39.77-.57.87-.29.57-1,1.73-.19.58-.48.86-1,1.54-.58.86-.38.48-.58.77-.67.87-.58.67-1.06,1.15-.57.67-1.35,1.16-.57.57-.77.58-.77.48-1.54.77-.76.29-.87.28-.86.2-.77.09-1,.1h-.87l-.86-.1-.77-.19-.86-.29-.77-.29-.77-.48-.58-.48-.57-.67-.39-.86-.29-.77-.19-.87-.19-.76v-2.12l.19-1.25.1-1,.29-1.25.86-3.16.29-1.64.38-1.63.39-1.54.38-1.25.29-.86.38-1.25.39-1.54.29-1.53.38-1.25.38-1.73.1-.86.38-1.83.1-.86-.19-1-.58-1-.86-.87-.87-.29-.86-.09-.87.09Z"/>
        <path class="cls-1" d="M419.71,102.8l-.48.67-1.15,1.34L416.74,106l-.68.48-.86.48-.58.19-1,.57-.57.29-.87.39-1,.29-.86.28-.87.1-1,.19-1.05.1-1.16.19-.86.1h-.87l-1.72-.2-1.73-.09-.87-.1-2.59-.57h-.67l-.48.38-.2.67v.87l-.09,1v1.63l.09,1,.2.77.57,1.73,1,1.53.58.68.58.57,1.53,1,1,.29.87.29.67.1.86.19.87.09h1l.86-.09,2.5-.48.87-.2.86-.28.77-.29,1.63-.67,1.54-.77,1.34-1.06L417,117l.68-.58,1.34-1.24,1.15-1.35.48-.67.58-.77,1-1.34.48-.77.39-.77.48-.77.38-.77.48-.67.38-.77.39-.86.38-.77.48-.77.68-.48h.86l.86.58.48.86-.09.87-.39.86-.48,1.06-.57,1-.48,1.06-.58,1.06-.58,1-1,1.53-.28.58-.58.86-1,1.35-.58.67-.57.58-.58.67-.67.77-.29.38-.67.77-.58.67L417.7,122l-1,.76-.87.77-1.53,1-2.41,1.06-.76.29-.87.29-1.25.19-1.15.29-2,.19-1.25.09-1.05.1h-.87l-3.45-.38-.77-.2-.87-.28-.86-.39-.77-.38-1.54-.87-.76-.38-.68-.58-.67-.67-.38-.48-.68-.77-.57-.67-.48-.77-.39-.67-.38-.87-.29-.76-.29-.87-.19-.86-.19-.77-.19-.87-.29-2.59V110.1l.09-.87v-.86l.58-2.6L389,105l.19-.87.29-.86.19-.87.29-.86.38-1.06.48-1.15.48-.87.58-1,.67-1,.39-.87.48-.67.57-.67,1.44-1.54,1.45-1.44.76-.67.87-.67,1-.68.86-.67,1-.57,1-.48.87-.39,1.25-.58,2-.67,1.73-.38,1.25-.19h2.11l1.25.19,1.54.29,1.25.28.86.29.87.39.76.38.58.39,1.35,1.15.57.67.58,1,.48,1.15.29.87.19.86.09.87v1.15L422,96.46l-.1,1-.29,1.15-.38,1.15-.38,1-.29.48-.48.87ZM408,91.27l-1.35.58-1.15.57-.77.48-1.34,1.16-.87.86-.77.87-.67.76-.67,1.06-.67,1-.48.86-.58,1.06-.38,1.15-.39.87-.29.77-.09.67.48.48,1.25.29,1.92.09,1,.1h2.69l1-.19.86-.19,1-.39.58-.19,1-.48.67-.48.67-.58.68-.67.67-.58.57-.76.48-.68.39-.77.48-.86.58-1.73.19-1,.09-.86-.09-1-.39-.87-.57-.67-.77-.58-.87-.38-.86-.19-.86-.1-1,.19Z"/>
      </g>
      <g>
        <path class="cls-1" d="M72.42,188.94v5.5c0,15.85-4.84,26-15.63,31,13,5.06,18.05,16.73,18.05,33v12.55c0,23.77-12.55,36.54-36.76,36.54H0V153.5H36.54C61.63,153.5,72.42,165.17,72.42,188.94ZM24.21,175.51v40.72h9.47c9,0,14.53-4,14.53-16.28v-8.59c0-11-3.75-15.85-12.33-15.85Zm0,62.74v47.32H38.08c8.15,0,12.55-3.74,12.55-15.18V257c0-14.31-4.62-18.71-15.63-18.71Z"/>
        <path class="cls-1" d="M87.39,190.48c0-24.65,13-38.74,36.76-38.74s36.76,14.09,36.76,38.74v80.13c0,24.65-13,38.74-36.76,38.74s-36.76-14.09-36.76-38.74Zm24.21,81.67c0,11,4.84,15.19,12.55,15.19s12.55-4.19,12.55-15.19V188.94c0-11-4.85-15.19-12.55-15.19s-12.55,4.18-12.55,15.19Z"/>
        <path class="cls-1" d="M199.65,153.5V272.37c0,11,4.85,15,12.55,15s12.55-4,12.55-15V153.5h22.89V270.83c0,24.65-12.33,38.74-36.1,38.74s-36.1-14.09-36.1-38.74V153.5Z"/>
        <path class="cls-1" d="M257.11,153.5H332v22H306.63V307.59H282.42V175.51H257.11Z"/>
        <path class="cls-1" d="M342.51,153.5h24.21V307.59H342.51Z"/>
        <path class="cls-1" d="M382.35,190.48c0-24.65,13-38.74,36.76-38.74s36.76,14.09,36.76,38.74v80.13c0,8.58-1.54,15.84-4.62,21.57,1.1,2.86,2.86,3.3,6.82,3.3h2.21v21.57H457c-10.78,0-17.61-4-20.91-10.56a49.64,49.64,0,0,1-16.95,2.86c-23.77,0-36.76-14.09-36.76-38.74Zm24.22,81.67c0,11,4.84,15.19,12.54,15.19s12.55-4.19,12.55-15.19V188.94c0-11-4.84-15.19-12.55-15.19s-12.54,4.18-12.54,15.19Z"/>
        <path class="cls-1" d="M494.62,153.5V272.37c0,11,4.84,15,12.54,15s12.55-4,12.55-15V153.5H542.6V270.83c0,24.65-12.32,38.74-36.1,38.74s-36.1-14.09-36.1-38.74V153.5Z"/>
        <path class="cls-1" d="M583.33,218.44h33.23v22H583.33v45.12h41.82v22h-66V153.5h66v22H583.33Z"/>
      </g>
      <g>
        <path class="cls-1" d="M232.18,435.63c2.18,1.13,3.27,1.67,5.48,2.72l-1.53,3.24c-2.26-1.07-3.38-1.62-5.6-2.77l-3.38,6.53c2.92,1.51,4.39,2.23,7.35,3.6L233,452.21c-4.76-2.21-7.12-3.4-11.76-5.95l12.09-22c4,2.22,6.08,3.25,10.21,5.16l-1.5,3.26c-2.68-1.24-4-1.89-6.64-3.25C234.1,431.9,233.46,433.15,232.18,435.63Z"/>
        <path class="cls-1" d="M258.19,435.05c3.8,1.33,5.09,4.1,3.9,7.94l-.23.75c-1.55-.48-2.33-.73-3.87-1.25l.33-1c.57-1.7.06-2.58-1.21-3s-2.22-.07-2.83,1.62c-1.77,4.85,6.11,8.53,4,15.38-1.19,3.84-4.2,5.36-8.62,3.8s-5.85-4.62-4.38-8.36l.57-1.44c1.62.64,2.43.95,4.06,1.55l-.62,1.68a2.4,2.4,0,1,0,4.52,1.59c1.65-4.89-6.25-8.81-3.63-15.49C251.64,435.06,254.4,433.72,258.19,435.05Z"/>
        <path class="cls-1" d="M272.24,439.58c4.93,1.25,7.42,1.77,12.41,2.63-.24,1.42-.37,2.12-.61,3.54-1.73-.3-2.59-.46-4.31-.8l-4.2,21.11c-1.86-.37-2.78-.56-4.63-1l4.73-21c-1.71-.39-2.56-.59-4.27-1Z"/>
        <path class="cls-1" d="M293.27,464.91l-.4,3.78c-1.8-.19-2.71-.3-4.51-.53.2-1.51.29-2.26.49-3.77C290.61,464.62,291.5,464.72,293.27,464.91Z"/>
        <path class="cls-1" d="M325.25,447.42c-1.32.1-2.11.83-2,2.62.07,1.07.1,1.61.17,2.69-1.62.1-2.43.14-4.06.2,0-1-.05-1.46-.09-2.43-.16-4,1.83-6.36,5.82-6.66s6.32,1.7,6.77,5.69c.89,7.85-7.71,11.56-7.44,15.68a2.33,2.33,0,0,0,.07.53c3.49-.22,5.23-.37,8.71-.76.16,1.43.24,2.14.39,3.57-5.41.6-8.13.8-13.57,1l-.12-3.09c-.29-7.38,8.4-9.16,7.76-16.38C327.46,447.85,326.57,447.32,325.25,447.42Z"/>
        <path class="cls-1" d="M341.75,448.11c-.69-3.95,1.09-6.56,5-7.4s6.63.82,7.61,4.71c1.28,5.07,1.93,7.6,3.21,12.67,1,3.89-.92,6.78-5.47,7.75s-7.45-.9-8.13-4.86C343.09,455.83,342.64,453.26,341.75,448.11Zm6.78,12.28c.35,1.76,1.4,2.25,2.85,1.94s2.2-1.18,1.8-2.93c-1.2-5.29-1.8-7.94-3-13.23-.4-1.75-1.37-2.22-2.67-1.95s-2,1.11-1.64,2.87Z"/>
        <path class="cls-1" d="M363.19,439.94c3.1-1,3.31-2.64,3.36-4.45,1.05-.36,1.58-.55,2.63-.93,3.45,9.43,5.18,14.15,8.64,23.58-1.8.66-2.7,1-4.5,1.58-2.46-7.26-3.68-10.89-6.14-18.15-1.25.43-1.88.64-3.14,1Z"/>
        <path class="cls-1" d="M391.63,443.48l1,2.1a2.43,2.43,0,1,0,4.34-2.17c-1-2-1.52-3-2.54-4.91-.82-1.59-1.93-1.78-3.2-1.14s-1.79,1.63-1,3.25l.33.68c-1.55.75-2.33,1.11-3.89,1.82-2.11-5.44-3.18-8.15-5.34-13.57,4-1.84,6-2.83,9.88-5,.69,1.26,1,1.89,1.71,3.15-2.62,1.43-3.95,2.12-6.62,3.42.93,2.21,1.39,3.32,2.31,5.54a4.45,4.45,0,0,1,2.62-3.36c2.88-1.47,5.3-.5,7.08,2.74L401,441c1.94,3.52.89,6.76-3.36,8.89s-7.45,1-9.11-2.64l-.86-1.89C389.27,444.61,390.06,444.24,391.63,443.48Z"/>
      </g>
    </g>
    <g>
      <polygon class="cls-1" points="167.66 127 115.99 37.5 509.16 37.5 457.49 127 480.58 127 543.8 17.5 81.35 17.5 144.56 127 167.66 127"/>
      <polygon class="cls-1" points="337.98 334 312.57 378 287.17 334 264.08 334 312.57 418 361.07 334 337.98 334"/>
    </g>
    <g>
      <path class="cls-1" d="M518.64,127a231.92,231.92,0,0,0-24.92-39l-7.85,6.19A222.67,222.67,0,0,1,507.37,127Z"/>
      <path class="cls-1" d="M507.32,334q-1.47,2.76-3,5.47a222,222,0,0,1-75.87,78.67l5.27,8.5A232.17,232.17,0,0,0,513,344.42q2.93-5.15,5.58-10.42Z"/>
    </g>
  </g>
</svg>
