<svg xmlns="http://www.w3.org/2000/svg" id="Layer_1" data-name="Layer 1" viewBox="0 0 48 48"><defs><style>.cls-1{fill:#111}</style></defs><title>Hipster</title><g><path d="M24,0A24,24,0,1,0,48,24,24,24,0,0,0,24,0ZM14.42,17.76H10.24v4.87h3.28v2.31H10.24v6.68H7.69V15.45h6.73ZM21,31.62l-.44-2.94H17.44L17,31.62H14.67l2.59-16.17H21l2.58,16.17ZM32.11,20.9h-2.4V19.16c0-1.15-.51-1.59-1.32-1.59s-1.32.44-1.32,1.59V27.9c0,1.15.51,1.57,1.32,1.57s1.32-.42,1.32-1.57V25.59h2.4v2.15c0,2.58-1.29,4.06-3.79,4.06s-3.79-1.48-3.79-4.06V19.33c0-2.59,1.29-4.07,3.79-4.07s3.79,1.48,3.79,4.07Zm8.47-3.14H36.19v4.5h3.49v2.31H36.19v4.74h4.39v2.31H33.65V15.45h6.93Z" class="cls-1"/><polygon points="17.77 26.49 20.21 26.49 18.99 18.31 17.77 26.49" class="cls-1"/></g></svg>