<svg xmlns="http://www.w3.org/2000/svg" id="Layer_1" data-name="Layer 1" viewBox="0 0 48 48"><defs><style>.cls-1{fill:#111}</style></defs><title>Hipster</title><g><path d="M17.13,17.76h-1.2v5.47h1.2c.81,0,1.25-.37,1.25-1.52V19.28C18.38,18.13,17.94,17.76,17.13,17.76Z" class="cls-1"/><path d="M24,0A24,24,0,1,0,48,24,24,24,0,0,0,24,0ZM20.92,21.54c0,2.59-1.25,4-3.79,4h-1.2v6.08H13.39V15.45h3.74c2.54,0,3.79,1.4,3.79,4Zm3.83,10.08H22.21V15.45h2.54Zm9.89,0H32L28.86,19.9V31.62H26.57V15.45h3.19l2.61,9.68V15.45h2.27Z" class="cls-1"/></g></svg>