<svg id="Layer_1" data-name="Layer 1" xmlns="http://www.w3.org/2000/svg" viewBox="0 0 48 48">
  <defs>
    <style>
      .cls-1 {
        fill: #111;
      }
    </style>
  </defs>
  <title>Hipster</title>
  <g>
    <path class="cls-1" d="M28.37,24.34H27.23v5h1.46c.85,0,1.32-.4,1.32-1.6V26.3C30,24.8,29.52,24.34,28.37,24.34Z"/>
    <path class="cls-1" d="M29.75,20.32v-.9c0-1.16-.39-1.66-1.29-1.66H27.23V22h1C29.17,22,29.75,21.61,29.75,20.32Z"/>
    <path class="cls-1" d="M24,0A24,24,0,1,0,48,24,24,24,0,0,0,24,0ZM14.4,17.76H11.74V31.62H9.2V17.76H6.54V15.45H14.4Zm8.56,10c0,2.59-1.29,4.06-3.79,4.06s-3.78-1.47-3.78-4.06V15.45h2.54V27.92c0,1.16.51,1.57,1.31,1.57s1.32-.41,1.32-1.57V15.45H23Zm9.59,0c0,2.5-1.32,3.84-3.86,3.84h-4V15.45h3.84c2.63,0,3.76,1.22,3.76,3.71v.58c0,1.67-.51,2.73-1.64,3.26,1.37.53,1.9,1.76,1.9,3.47Zm7.55-5.52v2.31H36.61v4.74H41v2.31H34.07V15.45H41v2.31H36.61v4.5Z"/>
  </g>
</svg>
