<svg id="Layer_1" data-name="Layer 1" xmlns="http://www.w3.org/2000/svg" viewBox="0 0 20 20">
  <defs>
    <style>
      .cls-1 {
        fill: #605f64;
      }
    </style>
  </defs>
  <title>Hipster</title>
  <g>
    <path class="cls-1" d="M10,3.6A2.75,2.75,0,1,1,7.25,6.35,2.75,2.75,0,0,1,10,3.6Zm0,13a6.58,6.58,0,0,1-5.49-3c0-1.82,3.66-2.82,5.49-2.82s5.47,1,5.49,2.82A6.58,6.58,0,0,1,10,16.6Z"/>
    <path class="cls-1" d="M10,2a8,8,0,1,1-8,8,8,8,0,0,1,8-8m0-2A10,10,0,1,0,20,10,10,10,0,0,0,10,0Z"/>
  </g>
</svg>
