<svg style="fill:#fff" id="Layer_1" data-name="Layer 1" xmlns="http://www.w3.org/2000/svg" viewBox="0 0 196.91 188.42">
  <title>Hipster</title>
  <g>
    <g>
      <g>
        <g>
          <path d="M13.05,94.66c-2.61,0-4.25,1.42-4.25,5.15v5.59H1.05v-5.07C1.05,92,5.22,87.2,13.28,87.2S25.51,92,25.51,100.33c0,16.4-16.34,22.52-16.34,31.09a5.24,5.24,0,0,0,.08,1.12H24.76V140H1.05v-6.41c0-15.36,16.25-17.9,16.25-33C17.3,95.93,15.66,94.66,13.05,94.66Z"/>
          <path d="M29.9,100.33C29.9,92,34.3,87.2,42.36,87.2S54.81,92,54.81,100.33v27.14c0,8.35-4.4,13.13-12.45,13.13S29.9,135.82,29.9,127.47ZM38.11,128c0,3.73,1.64,5.15,4.25,5.15s4.25-1.42,4.25-5.15V99.81c0-3.73-1.64-5.15-4.25-5.15s-4.25,1.42-4.25,5.15Z"/>
          <path d="M59.65,95.78c0-5.37,2.76-8.35,7.91-8.35s7.9,3,7.9,8.35v17.15c0,5.37-2.76,8.35-7.9,8.35s-7.91-3-7.91-8.35Zm5.22,17.52c0,2.31,1,3.28,2.69,3.28s2.68-1,2.68-3.28V95.41c0-2.31-1-3.28-2.68-3.28s-2.69,1-2.69,3.28ZM88.14,87.8H93L72.41,140H67.56Zm-2.61,27.07c0-5.37,2.76-8.35,7.9-8.35s7.91,3,7.91,8.35V132c0,5.37-2.76,8.35-7.91,8.35s-7.9-3-7.9-8.35Zm5.22,17.52c0,2.31,1,3.28,2.68,3.28s2.69-1,2.69-3.28V114.5c0-2.31-1.05-3.28-2.69-3.28s-2.68,1-2.68,3.28Z"/>
          <path d="M117.74,100.33c0-8.35,4.4-13.13,12.45-13.13s12.46,4.78,12.46,13.13v27.14c0,8.35-4.4,13.13-12.46,13.13s-12.45-4.78-12.45-13.13Zm8.2,27.66c0,3.73,1.64,5.15,4.25,5.15s4.25-1.42,4.25-5.15V99.81c0-3.73-1.64-5.15-4.25-5.15s-4.25,1.42-4.25,5.15Z"/>
          <path d="M156.14,111h10.59v7.46H156.14V140h-8.2V87.8h21.7v7.46h-13.5Z"/>
          <path d="M181.79,111h10.59v7.46H181.79V140h-8.2V87.8h21.7v7.46h-13.5Z"/>
        </g>
        <rect x="1.05" y="150" width="117.58" height="6.14"/>
        <rect x="1.05" y="32.28" width="117.58" height="6.14"/>
      </g>
      <rect x="1.05" y="16.14" width="77.58" height="6.14"/>
      <rect x="1.05" width="37.58" height="6.14"/>
      <rect x="1.05" y="166.14" width="77.58" height="6.14"/>
      <rect x="1.05" y="182.28" width="37.58" height="6.14"/>
    </g>
    <g>
      <path d="M3.46,67.78l.45.25.29.24.17.33v.33L4,69.59l-.21.33-.33.66L3.34,71l-.17.74,0,.37,0,.42v.37l0,.37.09.37.16.37.21.33.24.29.29.29.33.2.33.17.37.12.37.08H6l.5,0L7,75.28l.37-.17.46-.33.45-.49.45-.54.37-.61.29-.54.21-.49.21-.42.12-.33.12-.37.13-.33.12-.37.16-.53.17-.62.12-.54.25-.74.16-.74.09-.33.12-.37.08-.37.13-.37.08-.33.16-.37.13-.37L12,64.2l.08-.25.08-.41.25-.75,0-.37.09-.37.24-.74.13-.33.08-.37.08-.41.12-.54.13-.49.49-1.48.08-.37L14,57l.08-.42.08-.37.13-.37.12-.33.08-.37.25-.74.08-.37.13-.41.08-.25,0-.33L15,53l-.21.16-.54.54-.57.49-.33.25-.37.25-.21.12-.37.25-.29.21-.33.24-.33.17-.33.2-.33.17-.33.2-.33.17-.61.29-.75.37-.37.12-1,.62-.66.33-.58.49-.29.29-.58.91-.16.37L5,60.57v.82l0,.37.12.38.17.33.28.28.66.42.37.16.42.29.16.53-.16.62-.42.37-.49.13H5.77L5,65.18l-.37-.08L4.33,65,4,64.81l-.29-.16-.33-.21L2.76,64l-.25-.29-.2-.29L2,62.71,1.73,62l-.08-.33,0-.37v-.74l.16-.74.17-.37.12-.33.12-.37.17-.33.49-.58.25-.25.29-.24L3.71,57l.2-.17.66-.49.33-.21.66-.33L6,55.67l.25-.09.54-.24.49-.21.37-.2.5-.21.53-.21.7-.24.37-.17.33-.16.66-.37.33-.17.7-.29.33-.16.33-.25.29-.21.33-.2.33-.17.33-.2,1.15-1,.25-.25.29-.33.16-.2.25-.33.21-.33.28-.25L16.6,49l.37-.12.33-.08h.79l.33,0,.37.12.33.21.24.41,0,.45-.08.38-.08.32-.12.38-.13.32-.16.33-.13.33-.08.37-.12.34-.29.86-.12.49-.13.38-.08.32-.08.42-.17.49-.12.45-.25.83,0,.2-.12.42-.29.86-.12.5-.05.37-.08.37-.12.37-.13.49-.16.5-.12.41-.05.37.25.25.41-.09.42-.12.45-.21.41-.16.33-.21.41-.24.91-.58.29-.21,1.52-1.52.33-.29.21-.29.24-.29.21-.28.25-.29.2-.29.42-.62.37-.62.2-.29.41-.65.25-.46.29-.53.08-.25.29-.58.25-.57.25-.5.2-.37.17-.33.12-.37.12-.33.17-.37.49-.91.33-.24L27.6,49,28,49h.42l.37,0,.41.13.33.2.29.25.16.33,0,.45-.12.33-.13.29-.12.37-.17.33-.2.45-.62,1.24-.12.33-.17.37-.16.33-.17.37-.16.33-.25.33-.25.41-.29.46-.2.37-.62,1-.2.28-.25.29-.29.37-.17.17-.24.37-.21.24-.25.29-.2.25-.29.37-.29.25-.25.29-.33.24-.28.21-.58.49L22,62l-.58.46-.29.2-.32.21-.71.29-.37.16-.33.25-.16.2.21.21.28.21.29.24.29.29.21.29.24.29.21.33.21.29.16.33.17.37.16.74.12.33.17.74.12.37,0,.33.17.74.08.41,0,.37.08.38.13.37.12.49.13.54.08.41.08.37.08.33.13.45.12.33.12.29.13.37.33.66.2.33.33.66.21.29.25.28.53.54.33.25.45.24.5.21.37.12.37.05.33.08.37.08.21.29v.49l-.13.62-.24.45-.29.29-.33.21-.37.08h-.37l-.42-.08-.24,0L25.54,81l-.49-.12-.54-.16-.37-.21-.33-.16-.29-.21-.33-.25-.53-.53-.5-.58-.2-.29-.21-.33-.2-.41-.21-.49-.21-.46L21,76.43l-.16-.37-.13-.33L20.48,75l-.25-1.11-.08-.33,0-.37L20,72.81l-.12-.42-.08-.33-.09-.41,0-.37-.08-.37-.25-.74-.08-.41,0-.25-.12-.45L19,68.69,19,68.36,18.87,68l-.33-.75-.17-.33-.2-.33-.25-.32L17.67,66l-.28-.29-.29-.21-.33-.2-.37-.17-.74-.16-.33.12-.33.29-.21.45-.08.41-.25,1-.08.42-.13.33-.12.37-.08.33L13.6,70l-.09.38-.12.32-.12.38-.13.33-.29.61-.12.33-.16.41-.17.38-.53,1.07-.29.45-.21.33-.21.29-.24.29-.21.2-.25.29-.45.41-.37.33L9.27,77l-.5.25-.57.24-.95.29-.49.08-.46,0H5.44L4,77.75l-.38-.08-.37-.13-.66-.33-.61-.41-.33-.24-.33-.29L1.07,76l-.21-.25-.2-.33-.17-.33L.37,74.7l-.08-.37L.16,74l-.08-.37L0,72.89v-.41l0-.37,0-.42,0-.24L.21,71l.12-.38L.66,70l.62-1,.2-.29.25-.29L2,68.19,2.27,68l.33-.21L3,67.66Z"/>
      <path d="M39.67,68.56V69l-.12.37-.33.66-.37.61-.21.38-.16.32-.25.38L38.1,72l-.2.37-.21.33-.2.29-.25.33-.21.29-.41.66-.74.86-.49.54-.29.29-.25.29-.29.24-.9.7-.29.21-.37.16-.37.13-.33.08-.75.16h-.7l-.45,0-.33-.12-.37-.12-.33-.21-.29-.25-.2-.29-.21-.32-.16-.38-.09-.32-.08-.38,0-.37v-.37l.08-.74.08-.37.13-.37.16-.74.13-.33.08-.37.12-.37.13-.33L29.58,70l0-.33.08-.37.12-.37.09-.37.08-.33.25-.74.12-.49.12-.54.25-.74.08-.37.09-.29.08-.37.16-.41.13-.33.24-1.11.13-.37.12-.5.16-.53.13-.38.16-.32.25-.21.37-.17.33,0,.41,0,.74.09.66.24.21.29v.37l-.08.37-.13.5-.12.53-.25.74-.08.34-.08.37-.13.41-.12.49-.41,1.24-.08.37-.17.53-.29.87-.08.37-.08.33-.08.37-.29.7-.08.37-.29,1-.25.74-.08.37-.13.54-.12.66-.08.7.08.62.33.45.45.12.37,0,.37-.16.29-.21.33-.24,1.36-1.36.25-.29.21-.29.24-.33.41-.66.25-.29.17-.25L37,71l.25-.38.16-.37.33-.7.5-1,.2-.33.38-.2.53.08ZM33,55.91l.2-.33.33-.28.33-.21.41-.12.38-.09h.41l.37.09.33.2.29.25.28.29.21.33.12.37,0,.37v.41l-.13.37-.2.33-.25.33-.29.25-.33.25-.37.16-.41.08-.37,0L34,58.84l-.65-.41-.25-.29-.21-.33-.08-.37,0-.37,0-.37.08-.41Z"/>
      <path d="M51.16,68.48v.45l-.16.42-.5.9-.16.37-.16.33-.42.66-.16.29-.21.33-.33.62-.16.29-.25.37-.49.57-.21.33-.21.29L47.5,75l-.79.78-.57.46-.58.49-.33.25-.45.24-.5.21-.37.16-.37.13-.33.08-.37,0H41.69l-.37,0L41,77.71l-.5-.17-.45-.2-.33-.21-.58-.49-.2-.29L38.68,76l-.33-.66L38.23,75l-.13-.37L38,74.29,37.94,74v-.37l0-.37v-.37l0-.41v-.38L38,71v-.37l.21-1.85.08-.37,0-.37.16-.75.13-.53.12-.5.08-.37.13-.37L39,65.1l.12-.37.09-.37.08-.49.16-.54.25-.74v-.33l-.12-.21L39.3,62l-.33,0-.41-.08-.41-.17-.29-.37-.09-.37,0-.41.09-.33.16-.29.29-.21.53,0,.62,0H40l.41-.12.17-.29.08-.41.08-.33.13-.37.16-.33.16-.37.13-.33.25-.74.16-.74.12-.37.17-.33.25-.74.12-.33.16-.37.13-.38.12-.32.13-.38.16-.33.16-.37.09-.33.12-.37.17-.37.2-.29.33-.2.37-.08.41,0,.5.08.53.12.37.21.33.29.13.45-.08.37-.21.54-.25.57-.2.54-.13.41-.08.25-.12.41-.46,1.36-.12.33-.12.37L44.9,57l-.25.61-.28.87-.09.37-.16.33L44,59.5v.29l.24.2.46.09h.41l.7,0,.57,0h1.28l.54,0,.29.24.08.46v.53l-.13.37-.2.29-.29.21-.37.12-.37.08-.41,0-1.12,0h-.45l-.37,0H43.34l-.25.17-.12.33-.17.49-.16.66-.17.7-.2.66-.17.7-.16.66-.13.58,0,.24-.12.58-.13.45L41.4,69l-.17.74,0,.49-.08.54-.08.74v1.15l.08.54.08.49.13.37.16.37.21.29.45.29.58.25.45.08h.41l.46-.08,1-.5,1.15-1,.29-.28.2-.25.42-.54.53-.66.21-.28.16-.33.21-.33.24-.33.21-.29.21-.33.16-.33.13-.37.2-.41.21-.33.24-.41.5-.33.53.08Z"/>
      <path d="M54.5,77.75l-.33,0-.37-.08-.37-.13-.5-.2-.45-.25-.37-.21-.41-.33-.37-.37L51,75.9l-.25-.29-.25-.25L50.38,75l-.21-.37-.2-.49-.21-.46-.12-.37-.13-.53-.08-.5,0-.41,0-.37v-.74l0-.33,0-.37,0-.42.09-.49.12-.53.12-.38.09-.37.28-.86.21-.46.21-.37.66-1.31.2-.33.41-.58.58-.62.12-.16.29-.33.29-.25.25-.25.29-.24.28-.21.33-.25.29-.2.33-.17.33-.2.29-.17.33-.16.45-.21.87-.25.45-.12.37-.08.37,0,.41,0h.7l.38,0,.53.08.62.16.53.17.38.12.28.17.29.2.29.25.25.29.24.24.17.38.16.45.13.49,0,.41,0,.5-.13.54-.12.37-.16.33-.21.33-.29.41-.29.37-.24.29-.29.24-.33.17-.54.08h-.66L59.81,67l-.41-.29v-.41l.21-.38.29-.45.24-.37.17-.37.08-.33.08-.37v-.33l-.08-.37-.29-.41-.41-.29-.37-.12-.37,0-.37,0-.5.08-.49.16-.37.17-.29.2-.33.25-.29.21-.33.24-.33.37-.29.29-.28.37-.37.46-.25.45-.17.37-.2.33-.17.29-.16.33-.13.37-.12.33-.12.37-.13.54-.12.49-.08.41-.08.5,0,.53,0,.41v.54l0,.66.13.57.12.42.41.82.25.33.25.25.29.25.45.2.49.21.37.08.54.08h.91l.94-.08.37-.08.46-.13.37-.16.45-.25.46-.21,1-.61.42-.33.37-.33.57-.5.5-.57.24-.25.5-.58.41-.57.25-.37.12-.25.29-.46.25-.41.16-.37.29-.53.41-.29.54.08.33.37V69l-.13.33-.16.33-.17.37-.2.42-.29.45-.33.45-.33.5-.62.9-.24.33-.21.29-.29.29-.74.86-.21.29-.24.25-.29.25-.58.41-.25.21-.28.2-.37.29-.33.21-.33.16L59.9,77l-.5.2-.49.17-.46.12-.49.08-.49.13-.75.12-1.11.12-.74-.08Z"/>
      <path d="M76.54,64.85v-.37l0-.41-.09-.37-.12-.37-.2-.29-.29-.25-.37-.08-.37,0-.38.09-.37.12-.37.21-.24.12-.75.49-.28.25-.25.21-.33.29-.21.2-.37.33-.16.21-.33.29-.29.37-.17.2-.28.37-.21.29-.25.37-.12.25-.25.37-.2.29-.17.37-.12.33-.13.45-.08.21-.25.82-.12.5-.12.53-.08.37-.09.46,0,.24-.12.5-.08.2-.13.42-.08.37-.08.45-.09.25-.16,1.07-.08.45-.17.74-.16.29-.29.21-.54.16-.61.12-.54.09-.41-.09-.5-.2L63.64,77l0-.58.25-1.36,0-.41.12-.41L64.1,74l.12-.74.12-.49.09-.25.12-.5,0-.24.25-.83.08-.24.12-.42.09-.37,0-.37.12-.41.08-.25.13-.49,0-.25.12-.41.25-1.11.12-.5.13-.53.12-.41.25-.62.12-.46.08-.37.13-.33.29-.86.12-.54.16-.82.09-.21.12-.45.12-.37.13-.41,0-.21.16-.41.13-.37.12-.41.08-.25.13-.41.12-.37.25-.62.16-.5,0-.2.17-.5.12-.2.17-.5,0-.2.16-.5,0-.24.17-.5.12-.2.17-.42.12-.37.12-.33.17-.33.25-.74.12-.33.16-.37.21-.49.29-.41.33-.21.37,0,.41,0,.74.08.41.08.33.13.29.25.13.32-.09.38-.12.32-.17.33-.12.37-.16.42,0,.2-.21.54-.33.82-.17.46-.12.41-.12.49-.29.87-.17.45-.08.21-.16.49,0,.21-.17.49-.12.21-.13.41-.12.37-.12.41,0,.25-.13.41-.12.37-.17.46-.24.82-.13.45-.12.41-.12.5-.17.49-.16.41-.13.34L70,64.2l0,.37.08.08.25-.29.29-.33.33-.41.37-.41.2-.17.29-.33.25-.33.37-.37L73,61.6l.42-.33.66-.41.28-.21.46-.24.49-.21.41-.12.5,0h1l.37,0,.41.12.9.45.29.21.29.25.21.28.16.37.13.33.12.38.08.37v.33l0,.37v.74l-.08.53-.08.5-.09.41-.08.33,0,.37-.17.74-.41,1.24-.12.53-.12.37-.17.75-.12.41,0,.24-.13.58-.16.62-.08.25-.13.49-.16.54-.13.45,0,.33,0,.45,0,.25,0,.41.17.33.33.13.37,0,.33-.09.37-.16.33-.25.37-.29.41-.41L80.7,74l.49-.57.25-.33.41-.62.25-.29.21-.37.16-.25.25-.45L83.38,70l.24-.41.21-.41.08-.25.21-.41.2-.33.33-.2.5.08.37.41,0,.45-.16.33-.17.37-.25.42-1.4,2.47-.37.74-.24.37-.17.21-.45.65-.25.29-.54.62-.16.21-.29.33-.58.49-.24.29L80,77l-.29.2L79,77.5l-.74.25-.37.08-.41,0-.54,0-.66-.08-.53-.08-.38-.17L75,77.21l-.37-.49-.2-.49-.17-.37,0-.5v-.78l.08-.62.08-.54.09-.41.08-.33.12-.37.13-.49.12-.54.12-.37.17-.74.12-.54.08-.49.13-.41.25-1,.08-.37L76,67l.08-.25.13-.41.2-.7Z"/>
      <path d="M97.26,67.57l-.21.29-.49.58-.58.49-.29.21-.37.21-.24.08-.42.24-.24.13-.37.16-.42.13-.37.12-.37,0-.41.08-.45,0-.5.08-.37,0h-.37l-.74-.08-.74,0-.37,0-1.12-.24h-.28l-.21.16-.08.29v.37l0,.41V72l0,.42.08.32.25.75.41.66.25.28.24.25.66.41.42.13.37.12.28,0,.37.08.38,0h.41l.37,0,1.07-.2.37-.08.37-.13.33-.12.7-.29.66-.33.58-.45.29-.21.28-.25.58-.53.5-.58.2-.29.25-.33.41-.57.21-.33.16-.33.21-.33.16-.33.21-.29.16-.33.17-.37.16-.33.21-.33.29-.2h.37l.37.24.2.37,0,.37-.16.37-.21.46-.24.45-.21.45-.25.46-.25.41-.41.66-.12.25-.25.37-.41.57-.25.29-.24.25-.25.29-.29.33-.12.16-.29.33-.25.29-.58.49-.41.33-.37.33-.66.41-1,.46-.33.12-.37.12-.53.09-.5.12-.86.08-.54,0-.45,0H90l-1.49-.17-.33-.08-.37-.13-.37-.16-.33-.16-.66-.38-.33-.16-.28-.25-.29-.29-.17-.2-.29-.33-.24-.29L84.61,75l-.16-.29-.17-.37L84.16,74,84,73.67,84,73.3,83.87,73l-.08-.37-.13-1.11V70.7l0-.37V70L84,68.85l.13-.33.08-.37.12-.37.08-.37.13-.37.16-.46.21-.49.2-.37.25-.45.29-.42.17-.37.2-.28.25-.29.62-.66.61-.62.33-.29.37-.29.42-.29.37-.28.41-.25.41-.21.37-.16.54-.25.86-.29.74-.16.54-.08h.91l.53.08.66.12.54.13.37.12.37.16.33.17.25.16.57.5.25.29.25.41.2.49.13.37.08.37,0,.38v.49l0,.53,0,.42-.13.49-.16.5-.17.41-.12.2-.21.37Zm-5-4.94-.57.25-.5.24-.33.21-.57.5-.38.37-.32.37-.29.33-.29.45-.29.41-.21.37-.24.45-.17.5-.16.37-.13.33,0,.29.21.2.53.13.83,0,.41,0h1.15l.42-.08.37-.08.41-.17.25-.08.41-.21.29-.2.28-.25.29-.29.29-.25.25-.33.2-.28.17-.33.21-.37.24-.75L95,64.4l0-.37,0-.41-.16-.37L94.62,63l-.33-.25-.37-.16-.37-.08-.37,0-.41.09Z"/>
      <path d="M108.79,62.88l-.33.16-.29.17-.28.2-.33.25-.29.25-.66.45-.29.21-.29.24-.29.29-.49.58L105,66l-.49.57-.41.66-.25.33-.5,1-.45,1.36-.12.54-.17.62-.16.53-.25,1.11-.16.54-.17.62-.12.53-.13.37-.12.54-.08.45-.13.41,0,.37-.08.33-.12.33-.25.21-.37.12-.37,0-.54,0-.62,0-.53-.08L98,77.3l-.25-.37,0-.46.08-.41.13-.53L98,75l.08-.37.13-.37.08-.37.12-.33.13-.37.08-.37.08-.33.08-.37.13-.37.12-.33.16-.75.09-.32,0-.38.12-.37.08-.37.13-.37.12-.49.17-.54.2-.74.08-.33.09-.37.12-.37.08-.37.13-.33.08-.37.12-.37.13-.54.12-.49.08-.37.25-.74.08-.33.13-.38.16-.74.29-.41.53-.29.66-.08.66.08.62.21.41.41.08.5-.08.41-.08.29-.12.37-.09.37-.12.33-.08.37-.13.37-.08.37,0,.25,0,0,.17-.21.24-.29.21-.28.49-.58.29-.25.54-.45.29-.25.53-.54.83-.65.33-.21.33-.16.33-.21.32-.12.38-.13.53-.12.5-.08h.94l.66.08.46.08.37.17.37.2.29.29.2.29.21.33.16.33.13.37.12.49.08.5V64l0,.37v.37l0,.33-.08.37-.09.41-.08.25-.12.41L114,67l-.16.62-.16.53-.13.37-.12.54-.17.7-.16.66L113,71l-.08.37-.08.28-.08.37-.13.38-.08.32-.25,1.12,0,.37V75l.17.33.29.21.37,0,.37-.13.37-.16.33-.21.29-.2.33-.25.53-.54.21-.29.24-.32.21-.29.29-.33.2-.29.25-.37.37-.62.25-.37.12-.21.25-.37.21-.37.33-.66.16-.37.12-.33.13-.37.2-.33.37-.24.54.12.33.41v.41l-.12.37-.17.33-.16.37-.17.33-.2.33-.17.33-.25.37-.12.25-.41.74-.08.25-.21.37-.41.66-.25.37-.16.21-.25.32-.29.38-.25.28-.45.5-.25.29-.57.49-.25.25-.33.25-.33.2-.66.33-.33.12-.37.13-.37.08-.33,0-.41,0h-.37l-.37,0-.33-.08-.37-.12L110,77.5l-.33-.2-.25-.21-.25-.29-.16-.37-.13-.33-.08-.37-.08-.33v-.91l.08-.53,0-.41.13-.54.37-1.36.12-.7.17-.7.16-.66.17-.53.12-.37.16-.54.17-.66.12-.66.17-.53.16-.74,0-.38.17-.78,0-.37-.08-.41-.25-.41-.37-.37-.37-.13-.37,0-.37,0Z"/>
      <path d="M127.78,74.17l-.29.37-.12.16-.29.33-.49.58-.29.2-.29.25-.29.21-.33.2-.29.21-.33.2-.28.21-.37.12-.33.13-.37.12-.71.21-.37,0-.33.08-.37,0h-.37l-.41,0-.37,0-.37-.08-.33-.13-.37-.16-.29-.25-.29-.2-.49-.58-.21-.33-.16-.37-.08-.33-.09-.37,0-.41v-.37l0-.38v-.37l.09-.74.16-.74,0-.33.33-1.48.25-1,.16-.74.29-.87.12-.49.13-.41.33-1,.2-.7.17-.37.16-.5.13-.49.12-.37.12-.33.17-.37.45-1.36.21-.33.25-.25.32-.16.42-.09h.37l.41,0,.37,0,.37.12.37.16.21.29,0,.33-.09.37-.12.33-.12.37-.13.33-.12.37-.08.33-.46,1.36-.12.41-.37,1-.08.37-.13.33-.08.37-.12.38-.08.33-.09.37-.24.7-.09.37-.24,1-.09.41-.08.37,0,.33-.16.74-.13,1.11v.37l0,.37.09.37.16.33.21.29.28.17.38.12.53,0,.66-.12.66-.29.58-.33.41-.33.33-.25.25-.25.24-.28.33-.42.33-.37.25-.33.29-.45.66-1.24.24-.45.17-.41.2-.45.42-1.24.08-.37.12-.37.17-.37.12-.37.08-.33.13-.37.08-.37.16-.38.13-.33.12-.37.08-.37.37-1.11.13-.33.16-.45L131,62l.17-.45.12-.33.17-.33.25-.25.37-.12.37-.08.41,0,.37,0,.41,0,.37.08.33.2.21.29v.33l-.13.37-.12.33-.29.87-.12.49-.17.37-.12.33-.16.37-.17.5-.12.49-.17.37-.12.54-.21.62-.2.53-.13.37-.16.54-.13.66-.12.53-.08.37-.12.37-.09.37-.24,1-.05.42-.12,1.11,0,.41V74l0,.37.12.37.25.29.33.21.33.12h.41l.37-.08.75-.25.37-.16.33-.17.33-.25.32-.2.29-.25.17-.33,0-.41-.17-.45-.08-.42.12-.49.25-.41.33-.25.45-.12.5,0,.37,0,.25,0,.2-.25.41-.66.21-.45.25-.45.16-.38.17-.32.16-.38.12-.53.29-.87.13-.49.16-.54.08-.37.13-.37.08-.37.08-.49.13-.54.08-.41.08-.54,0-.49v-.41l.08-.74.25-.37.5-.25.65-.08.66,0,.58.2.41.41.17.46v.78l-.08.74-.05.41-.08.75-.08.37-.08.41-.09.37-.12.33-.08.37-.25.74-.12.33-.08.37-.25.74-.17.33-.12.37-.37.74-.08.25-.21.46-.16.32-.17.29-.41.66-.21.29-.24.33-.21.29-.25.29-.12.24.21.21.41.08h.37l.37,0,.7-.2.37-.09.74-.41.33-.25.37-.33.33-.28.33-.37.29-.42.25-.29.24-.32.21-.33.25-.42.24-.45.17-.37.16-.33.25-.29.33-.2.54,0,.28.41v.45l-.12.33-.49,1-.17.37-.29.41-.24.46-.25.33-.21.28-.49.58-.21.25-.49.58-.29.2-.33.25-.41.29-.46.24-1,.46-.37.08-.37,0-.49,0H139.4l-.33-.08-.37-.12-.33,0-.33,0-.29.24-.53.54-.29.21-.33.24-.33.17-.33.2-.29.17-.33.16L135,77l-.37.12-.33.17-.37.12-.41.16-.5.13-.49.08-.41.08h-.41l-.54,0-.62-.12-.53-.17-.37-.16-.38-.33-.28-.37-.21-.37-.16-.54-.17-.62-.12-.66V74l0-.29h-.05l-.2.21Z"/>
      <path d="M166.26,69.67l-.08.21-.21.41-.21.29-.16.33-.16.37-.17.33-.41.66-.21.29-.2.33-.17.33-.2.33-.25.29-.25.33-.25.28-.45.58-.25.29-.24.25-1.16,1-.33.2-.37.21-.45.2-.5.21-.37.12-.37.08h-.41l-.49,0-.5-.12-.37-.12-.29-.21-.28-.25-.29-.41-.29-.45-.13-.37-.12-.5,0-.53v-.41l0-.54,0-.49-.12-.09-.21.29L155,74l-.41.58-.25.29-.2.28-.25.29-.21.29-.29.25-.24.25-.29.24-.29.21-.33.2-.45.29-.62.29-.66.21-.54.12-.74.08-.41,0-.49-.08-.5-.12-.37-.13-.33-.12-.29-.21-.57-.49-.21-.29-.21-.33-.24-.45-.25-.62-.12-.54,0-.41-.09-.53,0-.66v-.54l0-.41,0-.54.09-.49.12-.41.12-.5.13-.53.12-.37.17-.33.12-.37,1-2,.2-.33.21-.29.21-.33.41-.58.25-.28.53-.62.17-.17.28-.33.58-.49.37-.37.46-.33.57-.45.33-.21.29-.21.37-.16.49-.21.46-.24.41-.21.49-.16.5-.13.41-.12,1-.08.37,0h.5l.82,0,.95.08.9.16.37.09.46.12,1.65.74.28.25.29.2.29.25.25.29.08.45-.16.58-.46.49-.45.29-.33,0-.33-.12-.33-.25-.37-.2-.33-.21-.29-.12-.33-.17-.37-.16-.33-.09-.7-.16-.41-.12-.41-.09h-.83l-.28,0-.42,0-.53.12-1,.37-.41.21-.42.24-.28.21-.33.21-.29.2-.29.25-.33.29-.17.16-.28.33-.25.29-.21.29-.49.58-.21.28-.2.33-.5,1-.2.33-.25.74-.17.37-.16.33-.25,1.12-.12.41-.13,1.11v1.15l0,.42.12.37.16.33.21.33.25.24.37.17.49.08.54,0,.37-.12.66-.33.58-.5.24-.25.29-.24.25-.29.2-.29.25-.29.21-.29.45-.61.21-.29.61-1,.25-.45.29-.54.16-.25.5-1.07.16-.37.09-.29.16-.37.12-.33.13-.37.16-.45.25-.83.16-.45.13-.41.25-.37.41-.21.37-.08.37,0,.37.08.66.33.33.21.16.25,0,.37-.12.33-.08.37-.12.37-.17.74-.12.37-.09.33-.24.74-.09.41,0,.25-.12.49-.08.38-.17.7-.12.49-.08.41-.09.46-.12.61-.12.7,0,.62,0,.54.2.33.42.2.61,0,.5-.16.37-.21.58-.41.28-.29.5-.53.49-.58.41-.58.21-.33.25-.32.08-.25.66-1,.16-.33.21-.33.82-1.65.37-.2.5.08.33.41,0,.41-.16.37Z"/>
      <path d="M167.58,59.37l-.37-1.11-.05-.37v-.37l.09-.37.16-.37.21-.29.24-.29.29-.24.33-.17.37-.08h.37l.37.08.33.21.25.24.17.33.12.37v1.12l-.08.41v.33l.08.33.21.29.28.28.29.25.29.33.45.54.29.24.54.54.29.33.16.21.29.33.29.24.25.29.41.66.12.37.12.5.13.53,0,.37-.13.37-.16.33-.25.29-.41.66-.25.29-.2.33-.21.29-.25.33-.2.33-.25.32-.21.33-.7,1.4-.12.38-.12.33-.09.37-.08.41-.08.37,0,.37v.41l.16.83.21.32.2.38.29.24.33.21.42.08h.78l.37-.08.37-.12.37-.17.29-.2.62-.42.33-.24.28-.25.25-.25.25-.33.74-.86.62-1,.2-.29.21-.37.21-.33.16-.33.21-.37.12-.25.25-.45.16-.33.13-.33.16-.33.37-.21.54.13.37.41v.45l-.13.37-.32.7-.17.33-.21.33-.33.66-.41.66-.2.37-.17.21-.2.37-.42.66-.49.66-.33.45-.29.41-.49.58-.29.25-.5.49-.33.25-.37.24-.66.33-.37.17-.33.16-.37.13-.33.08-.41.08h-1l-.53,0-.83-.16-.32-.13-.42-.2-.61-.42-.29-.24-.25-.25-.25-.33-.2-.29-.17-.37-.16-.33-.09-.37-.08-.41-.08-.37,0-.37v-.37l.16-1.49.13-.37.12-.33.17-.37.2-.45.25-.45.2-.37.29-.46.29-.41.21-.37.24-.45.33-.46.25-.33.33-.57.45-.66.21-.46.12-.61-.08-.5-.41-.66-.25-.33-.66-.74-.24-.29-.33-.24-.33.08-.17.37-.08.37-.12.37-.09.37-.08.33-.12.37-.37,1-.13.37-.12.33-.12.37-.21.5-.21.45-.16.37-.21.5-.2.45-.21.41-.21.45-.24.46-.21.33-.25.2h-.37l-.33-.2-.24-.29,0-.33.12-.37.17-.37.12-.33.12-.37.33-.75.13-.24.16-.42.17-.32.12-.38.16-.37.13-.37.12-.33.33-.74.08-.37.13-.37.08-.37.17-.37.08-.37.08-.33.08-.37.13-.37.08-.41v-.38l-.08-.32Z"/>
      <path d="M193,67.57l-.2.29-.5.58-.57.49-.29.21-.37.21-.25.08-.41.24-.25.13-.37.16-.41.13-.37.12-.37,0-.42.08-.45,0-.49.08-.37,0h-.38l-.74-.08-.74,0-.37,0-1.11-.24h-.29l-.21.16-.08.29v.37l0,.41V72l0,.42.08.32.25.75.41.66.25.28.25.25.66.41.41.13.37.12.29,0,.37.08.37,0h.41l.37,0,1.07-.2.37-.08.38-.13.32-.12.71-.29.65-.33.58-.45.29-.21.29-.25.57-.53.5-.58.21-.29.24-.33.41-.57.21-.33.17-.33.2-.33.17-.33.2-.29.17-.33.16-.37.17-.33.2-.33L196,68h.37l.37.24.21.37,0,.37-.17.37-.2.46-.25.45-.21.45-.24.46-.25.41-.41.66-.13.25-.24.37-.42.57-.24.29-.25.25-.25.29-.29.33-.12.16-.29.33-.25.29-.57.49-.41.33-.37.33-.66.41-1,.46-.33.12-.37.12-.54.09-.49.12-.87.08-.54,0L186,78h-.37l-1.48-.17-.33-.08-.37-.13-.37-.16-.33-.16-.66-.38-.33-.16-.29-.25-.29-.29-.16-.2-.29-.33-.25-.29-.2-.33-.17-.29-.16-.37-.13-.33-.12-.37-.08-.37-.09-.33-.08-.37-.12-1.11V70.7l0-.37V70l.25-1.11.12-.33.08-.37.13-.37.08-.37.12-.37.17-.46.2-.49.21-.37.25-.45.28-.42.17-.37.2-.28.25-.29.62-.66.62-.62.33-.29.37-.29.41-.29.37-.28.41-.25.42-.21.37-.16.53-.25.87-.29.74-.16.53-.08h.91l.54.08.65.12.54.13.37.12.37.16.33.17.25.16.58.5.24.29.25.41.21.49.12.37.08.37,0,.38v.49l0,.53,0,.42-.12.49-.17.5-.16.41-.13.2-.2.37Zm-5-4.94-.58.25-.49.24-.33.21-.58.5-.37.37-.33.37-.29.33-.29.45-.29.41-.2.37-.25.45-.16.5-.17.37-.12.33,0,.29.2.2.54.13.82,0,.41,0h1.16l.41-.08.37-.08.41-.17.25-.08.41-.21.29-.2.29-.25.29-.29.28-.25.25-.33.21-.28.16-.33.21-.37.25-.75.08-.41,0-.37,0-.41-.17-.37-.24-.29-.33-.25-.37-.16-.37-.08-.38,0-.41.09Z"/>
    </g>
  </g>
</svg>
