<?xml version="1.0" encoding="UTF-8" standalone="no"?>
<svg
   id="Layer_1"
   data-name="Layer 1"
   viewBox="0 0 625.15 469.57"
   version="1.1"
   sodipodi:docname="Hipster_HeroLogoMaroon.svg"
   inkscape:version="1.2.2 (b0a84865, 2022-12-01)"
   xmlns:inkscape="http://www.inkscape.org/namespaces/inkscape"
   xmlns:sodipodi="http://sodipodi.sourceforge.net/DTD/sodipodi-0.dtd"
   xmlns="http://www.w3.org/2000/svg"
   xmlns:svg="http://www.w3.org/2000/svg">
  <sodipodi:namedview
     id="namedview213"
     pagecolor="#ffffff"
     bordercolor="#666666"
     borderopacity="1.0"
     inkscape:showpageshadow="2"
     inkscape:pageopacity="0.0"
     inkscape:pagecheckerboard="0"
     inkscape:deskcolor="#d1d1d1"
     showgrid="false"
     inkscape:zoom="1.0051749"
     inkscape:cx="319.3474"
     inkscape:cy="246.2258"
     inkscape:window-width="1411"
     inkscape:window-height="889"
     inkscape:window-x="95"
     inkscape:window-y="25"
     inkscape:window-maximized="0"
     inkscape:current-layer="Layer_1" />
  <defs
     id="defs134">
    <style
       id="style132">.cls-1{fill:#4bc7c7}</style>
  </defs>
  <title
     id="title136">Hipster</title>
  <g
     id="g734"
     transform="translate(2.0205932,3.0257415)"
     style="fill:#ffaaaa">
    <g
       id="g720"
       style="fill:#ffaaaa;fill-opacity:1">
      <path
         d="m 214.76,32.83 -4.44,-9 a 231,231 0 0 1 202.19,-1.14 l -4.34,9 a 221,221 0 0 0 -193.41,1.09 z"
         class="cls-1"
         id="path662"
         style="fill:#ffaaaa;fill-opacity:1" />
      <g
         id="g668"
         style="fill:#ffaaaa;fill-opacity:1">
        <path
           d="m 120.84,339.47 q -1.55,-2.72 -3,-5.47 h -11.27 q 2.66,5.28 5.58,10.42 a 232,232 0 0 0 79.29,82.22 l 5.26,-8.5 a 222,222 0 0 1 -75.86,-78.67 z"
           class="cls-1"
           id="path664"
           style="fill:#ffaaaa;fill-opacity:1" />
        <path
           d="m 117.78,127 a 221.75,221.75 0 0 1 21.57,-32.94 l -7.85,-6.2 a 231.18,231.18 0 0 0 -25,39.14 z"
           class="cls-1"
           id="path666"
           style="fill:#ffaaaa;fill-opacity:1" />
      </g>
      <g
         id="g682"
         style="fill:#ffaaaa;fill-opacity:1">
        <path
           d="m 198.23,116.53 -0.38,-0.86 -0.29,-0.77 -0.58,-1.73 -0.19,-0.86 -0.1,-0.87 -0.19,-0.86 -0.29,-2.6 v -1.82 l 0.1,-0.87 v -2.69 l 0.19,-1.72 0.19,-1 0.1,-0.87 0.19,-0.77 0.19,-0.86 0.29,-1 0.39,-1.06 0.57,-1.92 0.39,-1.06 0.38,-0.86 0.39,-0.77 0.38,-0.86 0.38,-0.77 0.39,-0.87 0.48,-0.76 0.48,-0.68 1,-0.57 1.06,-0.29 0.86,0.09 0.77,0.29 0.77,0.48 0.76,0.77 0.49,1.06 v 0.86 l -0.49,1.15 -0.47,1.25 -0.29,0.58 -0.39,1 -0.38,0.77 -0.29,0.86 -0.19,0.87 -0.29,1.15 -0.29,1.25 -0.19,0.86 -0.1,0.87 -0.19,0.86 -0.09,0.87 v 0.76 l -0.2,1.73 v 0.87 l 0.1,1 v 1.73 l 0.1,0.86 0.19,0.87 0.19,1.24 0.29,1.54 0.38,1.25 0.29,0.86 0.77,1.54 0.58,0.77 0.47,0.58 0.58,0.67 1.35,1.15 0.67,0.48 0.77,0.38 0.86,0.29 1.25,0.29 1.15,0.19 0.87,0.2 h 2.49 l 0.87,-0.2 0.86,-0.09 0.87,-0.29 1,-0.39 0.77,-0.38 1.44,-0.86 0.77,-0.48 1.35,-1 1.92,-1.93 0.57,-0.67 0.48,-0.67 0.48,-0.77 0.58,-0.86 0.38,-0.48 1.06,-1.54 0.38,-0.67 0.48,-0.77 0.39,-0.86 0.48,-0.87 0.67,-1.44 0.3,-0.83 0.38,-0.77 0.1,-0.77 -0.29,-0.39 -0.57,-0.19 -0.87,-0.09 -1,-0.1 -0.86,-0.19 -0.77,-0.19 -0.87,-0.29 -0.86,-0.19 -0.77,-0.29 -0.77,-0.39 -2.3,-0.86 -1.06,-0.38 -2.88,-1.73 -0.77,-0.48 -1.44,-1 -0.67,-0.58 -3.65,-3.65 -0.48,-0.67 -0.58,-0.67 -1,-1.45 -0.38,-0.67 -0.39,-0.86 -0.77,-1.54 -0.38,-1.06 -0.38,-1 -0.29,-1 -0.39,-1.05 -0.28,-0.87 -0.2,-1.73 -0.09,-1 v -0.4 l -0.19,-1.92 0.09,-0.87 0.1,-1 0.09,-0.57 0.2,-1.06 0.24,-1.08 0.38,-1.25 0.29,-0.87 0.48,-1.15 0.48,-1.06 0.38,-0.86 0.48,-0.67 1.16,-1.35 0.57,-0.57 1.38,-1.22 1.05,-0.76 1.35,-0.74 2.69,-1.35 0.86,-0.29 1.25,-0.28 1.15,-0.29 1,-0.19 1.16,-0.1 h 2.21 l 1.53,0.19 1.92,0.1 1.16,0.19 1.25,0.29 0.86,0.38 1.73,0.58 1.05,0.57 1.64,1 1,0.57 0.67,0.48 0.67,0.58 1.15,1.34 0.49,0.68 0.48,0.76 0.48,0.68 0.38,0.76 0.38,0.87 0.77,1.54 0.29,0.76 0.29,0.87 0.38,1.73 0.19,1.25 0.29,1.15 0.1,1 0.1,0.58 0.09,1 0.1,0.87 v 0.86 l 0.19,1.73 v 0.86 l -0.1,1 -0.09,0.87 -0.19,0.77 v 1 l -0.1,0.58 v 1.06 l -0.19,0.86 -0.28,1.14 -0.19,1.25 -0.19,1 -0.1,0.87 -0.09,0.76 -0.19,0.87 -0.29,0.86 v 1.06 l 0.57,0.58 h 1.06 l 0.87,-0.2 1.05,-0.28 0.58,-0.2 1.82,-0.48 1.06,-0.38 1.25,-0.48 1,-0.38 0.87,-0.49 0.58,-0.28 0.86,-0.48 0.86,-0.39 0.77,-0.09 0.48,0.38 0.1,0.86 -0.19,0.77 -0.29,0.87 -0.39,0.77 -0.57,0.57 -0.77,0.48 -1,0.39 -0.48,0.28 -1.73,0.87 -0.86,0.38 -0.77,0.29 -1,0.39 -0.58,0.19 -1,0.48 -0.77,0.29 -0.77,0.19 -0.86,0.19 -1,0.29 -1,0.19 -0.87,0.1 -0.76,0.19 -0.58,0.48 -0.49,1.49 -0.29,0.86 -0.51,1.14 -1.44,2.88 -0.29,0.48 -0.48,0.87 -0.38,0.86 -1,1.54 -0.38,0.48 -0.58,0.86 -0.48,0.68 -1.11,1.35 -0.48,0.77 -0.58,0.67 -0.67,0.58 -0.68,0.67 -0.57,0.48 -1.25,1.25 -1.34,1.15 -0.77,0.48 -1.06,0.58 -1.15,0.67 -0.87,0.48 -0.76,0.39 -0.87,0.28 -0.77,0.2 -0.86,0.28 -0.87,0.2 -0.86,0.28 -1,0.1 -0.58,0.1 -1,0.09 -0.86,0.1 h -2.61 l -1.15,-0.19 -1.06,-0.1 -2.39,-0.51 -1.15,-0.29 -0.87,-0.29 -0.77,-0.28 -0.86,-0.49 -1.92,-1.34 -0.77,-0.67 -0.58,-0.58 -0.67,-0.57 -0.58,-0.58 -0.57,-0.77 -0.67,-1 -0.58,-1.06 -0.48,-0.86 z m 17.1,-39.86 v 2.6 l 0.09,1 0.2,0.86 0.09,0.86 0.58,1.73 0.29,0.77 0.38,0.87 0.38,0.76 0.48,0.68 0.48,0.86 0.39,0.77 1.15,1.34 0.67,0.68 0.39,0.48 1.34,1.34 0.67,0.58 0.77,0.57 0.68,0.48 0.76,0.48 0.68,0.48 1,0.49 0.57,0.19 1.06,0.48 0.58,0.19 1,0.38 2.4,0.77 1,0.19 0.86,0.2 0.77,-0.1 0.67,-0.67 0.39,-1.06 0.57,-2.59 0.19,-1.25 0.1,-1.15 0.1,-1 0.29,-2.6 v -0.86 l 0.19,-1.15 v -5.19 l -0.1,-1.15 -0.09,-1 -0.2,-1.16 -0.19,-1.24 -0.38,-1.73 -0.29,-0.87 -0.48,-1.15 -0.39,-1.06 -0.38,-0.86 -0.48,-0.77 -0.48,-0.67 -0.48,-0.48 -0.58,-0.67 -0.76,-0.58 -0.68,-0.48 -0.77,-0.38 -0.86,-0.39 -1.25,-0.29 -1.7,-0.15 -1.2,-0.05 -1,0.1 -1.25,0.19 -1.44,0.48 -1.44,0.77 -1.35,0.87 -1.15,1 -0.87,1 -0.38,0.77 -0.48,1.15 -0.44,1.4 -0.29,1.27 -0.19,1 z"
           class="cls-1"
           id="path670"
           style="fill:#ffaaaa;fill-opacity:1" />
        <path
           d="m 275.16,91.85 -0.76,0.38 -0.68,0.39 -0.67,0.48 -0.77,0.57 -0.67,0.58 -1.54,1.06 -0.67,0.48 -0.67,0.57 -0.67,0.67 -1.16,1.35 -0.67,0.67 -1.15,1.35 -1,1.53 -0.58,0.77 -1.11,2.3 -1.06,3.17 -0.28,1.24 -0.39,1.44 -0.38,1.25 -0.58,2.6 -0.38,1.24 -0.39,1.45 -0.28,1.24 -0.29,0.87 -0.29,1.25 -0.19,1 -0.29,1 -0.1,0.87 -0.19,0.77 -0.29,0.77 -0.57,0.48 -0.87,0.28 -0.86,0.1 -1.25,0.1 -1.46,-0.12 -1.25,-0.19 -0.77,-0.39 -0.58,-0.86 -0.09,-1.06 0.19,-1 0.29,-1.25 0.29,-1.15 0.19,-0.86 0.29,-0.87 0.19,-0.86 0.29,-0.77 0.29,-0.87 0.19,-0.86 0.19,-0.77 0.19,-0.86 0.29,-0.87 0.29,-0.77 0.38,-1.72 0.19,-0.77 0.1,-0.87 0.29,-0.86 0.19,-0.87 0.29,-0.86 0.29,-1.15 0.38,-1.25 0.48,-1.73 0.19,-0.77 0.2,-0.86 0.28,-0.87 0.2,-0.86 0.28,-0.77 0.2,-0.86 0.28,-0.87 0.29,-1.25 0.29,-1.15 0.19,-0.86 0.58,-1.73 0.19,-0.77 0.29,-0.87 0.38,-1.72 0.68,-1 1.24,-0.67 1.54,-0.19 1.54,0.19 1.44,0.48 1,1 0.19,1.16 -0.19,1 -0.19,0.67 -0.29,0.86 -0.19,0.87 -0.29,0.77 -0.19,0.86 -0.29,0.86 -0.19,0.87 -0.1,0.58 0.1,0.09 0.38,-0.48 0.58,-0.67 0.48,-0.67 1.15,-1.35 0.67,-0.57 1.25,-1.06 0.67,-0.58 1.25,-1.25 1.92,-1.53 0.77,-0.48 0.77,-0.39 0.77,-0.48 0.77,-0.29 0.86,-0.28 1.25,-0.29 1.15,-0.19 h 2.21 l 1.54,0.19 1.05,0.19 0.87,0.38 0.86,0.48 0.67,0.68 0.48,0.67 0.48,0.77 0.39,0.77 0.29,0.86 0.29,1.15 0.19,1.16 v 1.82 l -0.1,0.87 v 0.86 l -0.09,0.77 -0.2,0.86 -0.19,1 -0.19,0.58 -0.29,1 -0.29,1.25 -0.38,1.4 -0.39,1.25 -0.28,0.86 -0.29,1.25 -0.39,1.63 -0.38,1.54 -0.38,1.34 -0.2,0.87 -0.19,0.67 -0.19,0.87 -0.29,0.86 -0.19,0.77 -0.58,2.59 -0.09,0.87 v 1.72 l 0.38,0.77 0.67,0.48 0.87,0.1 0.86,-0.29 0.87,-0.38 0.76,-0.48 0.68,-0.48 0.77,-0.58 1.24,-1.25 0.48,-0.67 0.58,-0.77 0.48,-0.67 0.67,-0.77 0.48,-0.67 0.58,-0.87 0.86,-1.44 0.58,-0.86 0.29,-0.48 0.57,-0.87 0.48,-0.86 0.77,-1.54 0.39,-0.86 0.29,-0.77 0.24,-0.88 0.48,-0.77 0.87,-0.58 1.25,0.29 0.76,1 v 1 l -0.28,0.86 -0.39,0.77 -0.38,0.87 -0.39,0.77 -0.48,0.76 -0.38,0.77 -0.58,0.87 -0.28,0.57 -1,1.73 -0.19,0.58 -0.48,0.86 -1,1.54 -0.57,0.86 -0.39,0.48 -0.57,0.77 -0.68,0.87 -0.57,0.67 -1.06,1.15 -0.58,0.67 -1.34,1.16 -0.58,0.57 -0.76,0.58 -0.77,0.48 -1.54,0.77 -0.77,0.29 -0.86,0.28 -0.87,0.2 -0.77,0.09 -1,0.1 h -0.86 l -0.86,-0.1 -0.77,-0.19 -0.87,-0.29 -0.77,-0.29 -0.76,-0.48 -0.58,-0.48 -0.58,-0.67 -0.38,-0.86 -0.29,-0.77 -0.19,-0.87 -0.19,-0.76 V 119 l 0.19,-1.25 0.09,-1 0.29,-1.25 0.87,-3.16 0.29,-1.64 0.52,-1.7 0.38,-1.54 0.39,-1.25 0.29,-0.86 0.38,-1.25 0.38,-1.54 0.29,-1.53 0.39,-1.25 0.38,-1.73 0.1,-0.86 0.38,-1.83 0.1,-0.86 -0.19,-1 -0.58,-1 -0.87,-0.87 -0.86,-0.29 -0.86,-0.09 -0.87,0.09 z"
           class="cls-1"
           id="path672"
           style="fill:#ffaaaa;fill-opacity:1" />
        <path
           d="m 327,79.65 -0.48,0.86 -0.77,1.54 -0.48,1.06 -0.67,1 -0.48,0.68 -0.48,0.76 -0.48,0.68 -0.48,0.86 -0.39,0.58 -0.48,0.77 -0.67,0.86 -0.86,1 -0.87,0.87 -0.38,0.48 -0.67,0.76 -1.25,1.25 -0.58,0.67 -1.03,1.17 -0.67,0.57 -0.77,0.77 -1.05,0.77 -1.44,1.25 -0.77,0.48 -2.11,1.34 -0.69,0.32 -0.77,0.48 -1.05,0.87 -0.67,0.86 -0.39,0.77 -0.19,1.06 -0.29,1.72 v 0.58 l -0.19,1 -0.19,0.87 -0.1,1 v 2 l -0.09,1.25 v 1.92 l 0.19,1.06 0.09,0.58 0.2,1 0.38,0.86 0.38,0.77 0.58,0.67 0.77,0.48 0.77,0.29 1,0.19 H 310 l 0.77,-0.09 0.86,-0.29 1.16,-0.48 1.05,-0.58 0.77,-0.58 1,-0.76 0.87,-0.87 1.15,-1.06 0.77,-0.67 0.6,-0.9 0.39,-0.48 0.57,-0.76 0.39,-0.68 0.57,-0.86 0.39,-0.48 0.57,-0.87 0.77,-1.44 0.48,-0.76 0.58,-0.87 0.48,-0.86 0.48,-1 0.86,-1.25 1,-0.77 1.25,0.19 0.77,1 v 1 l -0.29,0.87 -0.38,0.76 -0.48,0.77 -0.39,0.87 -0.38,0.77 -0.29,0.76 -0.48,0.77 -0.38,0.68 -0.48,0.76 -0.58,0.87 -0.19,0.48 -0.48,0.86 -0.58,0.77 -1,1.35 -0.67,0.86 -0.39,0.38 -0.67,0.87 -0.57,0.67 -0.77,1 -0.87,0.77 -0.67,0.67 -0.57,0.48 -0.68,0.58 -0.86,0.48 -0.77,0.38 -0.86,0.39 -0.77,0.38 -0.77,0.29 -0.87,0.38 -1.15,0.39 -1.92,0.38 -1.15,0.1 -1.06,-0.1 h -0.57 l -1,-0.09 -0.87,-0.2 -0.77,-0.28 -0.86,-0.29 -0.77,-0.39 -0.77,-0.48 -0.67,-0.57 -0.58,-0.58 -0.57,-0.67 -0.39,-0.77 -0.38,-0.86 -0.29,-0.77 -0.19,-0.87 -0.29,-0.86 -0.1,-0.87 -0.19,-1 v -0.57 l -0.19,-1.06 -0.1,-0.86 v -0.87 l 0.1,-0.86 0.1,-1 v -0.58 l 0.09,-1.25 0.29,-2.11 0.1,-1.15 v -0.87 l 0.19,-0.86 0.19,-1 0.67,-3.17 0.29,-1.15 0.29,-1.73 0.19,-0.48 0.29,-1.16 0.19,-0.57 0.39,-1.44 0.28,-1.25 0.2,-0.87 0.28,-1.15 0.39,-1.34 0.09,-0.68 0.39,-1.34 0.38,-1.25 0.29,-0.67 0.38,-1.25 0.39,-1.15 0.38,-0.87 1,-2.49 0.2,-0.58 0.57,-1.35 0.67,-1.53 0.48,-1.15 0.39,-0.87 0.29,-0.57 0.48,-0.87 0.67,-1.63 0.48,-1 0.48,-0.87 0.58,-0.86 0.76,-1.25 1.21,-1.67 0.58,-0.77 1.25,-1.23 0.38,-0.48 0.67,-0.67 0.68,-0.48 1.53,-1.06 1.06,-0.67 1.06,-0.48 0.86,-0.29 0.87,-0.19 h 1.72 l 1,0.19 0.58,0.1 1,0.29 0.77,0.38 1.34,1.16 0.48,0.76 0.68,1 0.48,1.16 0.38,0.86 0.38,1.15 0.2,1.25 v 1.73 l -0.2,2.59 -0.41,1.7 -0.29,0.77 -0.19,1 -0.82,2.23 -0.38,0.77 z m -15.94,2.69 -1.35,4 -0.19,0.87 -0.29,0.86 -0.38,1.25 -0.67,2 -0.29,1 -0.1,0.57 -0.29,1 -0.29,0.87 -0.19,1 0.19,0.58 0.58,-0.39 1,-0.77 3.94,-3.93 0.48,-0.68 0.48,-0.77 0.58,-0.86 0.38,-0.38 0.58,-0.87 0.67,-0.86 0.67,-1 0.67,-1.06 0.48,-0.77 0.39,-0.67 0.48,-0.67 0.77,-1.54 0.38,-1 0.29,-0.58 0.38,-1 0.39,-0.86 0.19,-0.87 0.29,-0.86 0.29,-1.06 0.38,-1 0.29,-1.06 0.38,-1.06 0.1,-1 0.09,-0.86 v -1.79 l -0.19,-0.76 -0.29,-0.77 -0.67,-0.48 -0.77,-0.19 -0.86,0.19 -0.87,0.67 -0.67,0.58 -0.48,0.57 -0.48,0.67 -0.48,0.77 -1,1.44 -0.48,0.87 -0.38,0.86 -0.39,0.77 -0.38,0.87 -0.39,0.76 -0.38,0.87 -0.29,0.77 -0.38,1 -0.58,1.44 -0.38,0.87 z"
           class="cls-1"
           id="path674"
           style="fill:#ffaaaa;fill-opacity:1" />
        <path
           d="m 348.16,105.1 v 1.06 l -0.29,0.86 -0.77,1.54 -0.86,1.44 -0.48,0.86 -0.39,0.77 -0.57,0.87 -0.29,0.57 -0.48,0.87 -0.48,0.77 -0.48,0.67 -0.58,0.77 -0.48,0.67 -1,1.54 -1.73,2 -1.15,1.25 -0.67,0.67 -0.58,0.68 -0.67,0.57 -2.11,1.64 -0.68,0.48 -0.86,0.38 -0.86,0.29 -0.77,0.19 -1.73,0.38 h -1.63 l -1.06,-0.09 -0.77,-0.29 -0.86,-0.29 -0.77,-0.48 -0.67,-0.57 -0.48,-0.68 -0.48,-0.77 -0.39,-0.86 -0.19,-0.77 -0.19,-0.86 -0.1,-0.87 v -0.86 l 0.19,-1.73 0.2,-0.86 0.28,-0.87 0.39,-1.73 0.29,-0.77 0.19,-0.86 0.29,-0.87 0.28,-0.76 0.87,-2.6 0.09,-0.77 0.2,-0.86 0.28,-0.86 0.2,-0.87 0.19,-0.77 0.57,-1.73 0.29,-1.15 0.29,-1.25 0.58,-1.73 0.19,-0.86 0.19,-0.67 0.19,-0.87 0.39,-1 0.29,-0.77 0.57,-2.59 0.29,-0.86 0.29,-1.16 0.38,-1.24 0.29,-0.87 0.39,-0.77 0.57,-0.48 0.87,-0.38 0.76,-0.1 1,0.1 1.73,0.19 1.54,0.58 0.48,0.67 v 0.86 l -0.19,0.87 -0.29,1.15 -0.29,1.25 -0.57,1.73 -0.2,0.77 -0.19,0.86 -0.29,1 -0.28,1.13 -1,2.89 -0.19,0.86 -0.38,1.25 -0.67,2 -0.2,0.86 -0.19,0.77 -0.19,0.86 -0.67,1.64 -0.19,0.86 -0.68,2.4 -0.57,1.73 -0.2,0.86 -0.28,1.25 -0.29,1.54 -0.19,1.63 0.19,1.44 0.77,1.06 1.05,0.29 0.87,-0.1 0.86,-0.38 0.67,-0.48 0.77,-0.58 3.17,-3.17 0.58,-0.67 0.48,-0.67 0.58,-0.77 1,-1.54 0.57,-0.67 0.39,-0.58 0.48,-0.77 0.57,-0.86 0.39,-0.86 0.77,-1.64 1.15,-2.3 0.48,-0.77 0.86,-0.48 1.25,0.19 z m -15.46,-29.48 0.48,-0.77 0.76,-0.67 0.77,-0.49 1,-0.28 0.87,-0.2 h 1 l 0.86,0.2 0.77,0.48 0.67,0.57 0.68,0.68 0.48,0.76 0.28,0.87 0.1,0.86 v 1 l -0.29,0.87 -0.48,0.77 -0.65,0.73 -0.68,0.58 -0.77,0.58 -0.86,0.38 -1,0.19 -0.86,-0.09 -1,-0.2 -1.54,-1 -0.58,-0.67 -0.48,-0.77 -0.19,-0.86 -0.1,-0.87 0.1,-0.86 0.19,-1 z"
           class="cls-1"
           id="path676"
           style="fill:#ffaaaa;fill-opacity:1" />
        <path
           d="m 365.93,91.85 -0.77,0.38 -0.67,0.39 -0.67,0.48 -0.77,0.57 -0.68,0.58 -1.53,1.06 -0.67,0.48 -0.68,0.57 -0.67,0.67 -1.15,1.35 -0.67,0.67 -1.16,1.35 -1,1.53 -0.57,0.77 -1.12,2.3 -1,3.17 -0.29,1.24 -0.38,1.44 -0.39,1.25 -0.57,2.6 -0.39,1.24 -0.38,1.45 -0.29,1.24 -0.29,0.87 -0.29,1.25 -0.19,1 -0.29,1 -0.09,0.87 -0.2,0.77 -0.28,0.77 -0.58,0.48 -0.86,0.28 -0.87,0.1 -1.25,0.1 -1.44,-0.1 -1.25,-0.19 -0.77,-0.39 -0.57,-0.86 -0.1,-1.06 0.19,-1 0.29,-1.25 0.29,-1.15 0.19,-0.86 0.29,-0.87 0.19,-0.86 0.29,-0.77 0.29,-0.87 0.19,-0.86 0.19,-0.77 0.19,-0.86 0.29,-0.87 0.29,-0.77 0.39,-1.72 0.19,-0.77 0.09,-0.87 0.29,-0.86 0.19,-0.87 0.29,-0.86 0.29,-1.15 0.38,-1.25 0.48,-1.73 0.2,-0.77 0.19,-0.86 0.29,-0.87 0.19,-0.86 0.29,-0.77 0.19,-0.86 0.29,-0.87 0.29,-1.25 0.28,-1.15 0.2,-0.86 0.57,-1.73 0.19,-0.77 0.29,-0.87 0.39,-1.72 0.67,-1 1.25,-0.67 1.53,-0.19 1.54,0.19 1.44,0.48 1,1 0.19,1.16 -0.19,1 -0.19,0.67 -0.29,0.86 -0.19,0.87 -0.29,0.77 -0.19,0.86 -0.29,0.86 -0.19,0.87 -0.1,0.58 0.1,0.09 0.38,-0.48 0.58,-0.67 0.48,-0.67 1.15,-1.35 0.67,-0.57 1.19,-1.05 0.68,-0.58 1.24,-1.25 1.93,-1.53 0.76,-0.48 0.77,-0.39 0.77,-0.48 0.77,-0.29 0.86,-0.28 1.25,-0.29 1.15,-0.19 h 2.21 l 1.54,0.19 1.06,0.19 0.86,0.38 0.87,0.48 0.67,0.68 0.48,0.67 0.48,0.77 0.38,0.77 0.29,0.86 0.29,1.15 0.19,1.16 v 1.82 l -0.1,0.87 v 0.86 l -0.09,0.77 -0.19,0.86 -0.2,1 -0.19,0.58 -0.29,1 -0.28,1.25 -0.39,1.44 -0.38,1.25 -0.29,0.86 -0.29,1.25 -0.41,1.57 -0.39,1.54 -0.38,1.34 -0.19,0.87 -0.2,0.67 -0.19,0.87 -0.29,0.86 -0.19,0.77 -0.57,2.59 -0.1,0.87 v 1.72 l 0.38,0.77 0.68,0.48 0.86,0.1 0.87,-0.29 0.86,-0.38 0.77,-0.48 0.67,-0.48 0.77,-0.58 1.24,-1.24 0.48,-0.67 0.57,-0.77 0.48,-0.67 0.68,-0.77 0.48,-0.67 0.57,-0.87 0.87,-1.44 0.57,-0.86 0.29,-0.48 0.58,-0.87 0.48,-0.86 0.77,-1.54 0.38,-0.86 0.29,-0.77 0.29,-0.86 0.48,-0.77 0.86,-0.58 1.25,0.29 0.77,1 v 1 l -0.29,0.86 -0.38,0.77 -0.39,0.87 -0.38,0.77 -0.48,0.76 -0.39,0.77 -0.57,0.87 -0.29,0.57 -1,1.73 -0.19,0.58 -0.48,0.86 -1,1.54 -0.58,0.86 -0.38,0.48 -0.58,0.77 -0.67,0.87 -0.58,0.67 -1.06,1.15 -0.57,0.67 -1.35,1.16 -0.57,0.57 -0.77,0.58 -0.77,0.48 -1.54,0.77 -0.76,0.29 -0.87,0.28 -0.86,0.2 -0.77,0.09 -1,0.1 h -0.87 l -0.86,-0.1 -0.77,-0.19 -0.86,-0.29 -0.77,-0.29 -0.77,-0.48 -0.58,-0.48 -0.57,-0.67 -0.39,-0.86 -0.29,-0.77 -0.19,-0.87 -0.19,-0.76 v -2.12 l 0.19,-1.25 0.1,-1 0.29,-1.25 0.86,-3.16 0.29,-1.64 0.38,-1.63 0.39,-1.54 0.38,-1.25 0.29,-0.86 0.38,-1.25 0.39,-1.54 0.29,-1.53 0.38,-1.25 0.38,-1.73 0.1,-0.86 0.38,-1.83 0.1,-0.86 -0.19,-1 -0.58,-1 -0.86,-0.87 -0.87,-0.29 -0.86,-0.09 -0.87,0.09 z"
           class="cls-1"
           id="path678"
           style="fill:#ffaaaa;fill-opacity:1" />
        <path
           d="m 419.71,102.8 -0.48,0.67 -1.15,1.34 -1.34,1.19 -0.68,0.48 -0.86,0.48 -0.58,0.19 -1,0.57 -0.57,0.29 -0.87,0.39 -1,0.29 -0.86,0.28 -0.87,0.1 -1,0.19 -1.05,0.1 -1.16,0.19 -0.86,0.1 h -0.87 l -1.72,-0.2 -1.73,-0.09 -0.87,-0.1 -2.59,-0.57 h -0.67 l -0.48,0.38 -0.2,0.67 v 0.87 l -0.09,1 v 1.63 l 0.09,1 0.2,0.77 0.57,1.73 1,1.53 0.58,0.68 0.58,0.57 1.53,1 1,0.29 0.87,0.29 0.67,0.1 0.86,0.19 0.87,0.09 h 1 l 0.86,-0.09 2.5,-0.48 0.87,-0.2 0.86,-0.28 0.77,-0.29 1.63,-0.67 1.54,-0.77 1.34,-1.06 0.65,-0.64 0.68,-0.58 1.34,-1.24 1.15,-1.35 0.48,-0.67 0.58,-0.77 1,-1.34 0.48,-0.77 0.39,-0.77 0.48,-0.77 0.38,-0.77 0.48,-0.67 0.38,-0.77 0.39,-0.86 0.38,-0.77 0.48,-0.77 0.68,-0.48 h 0.86 l 0.86,0.58 0.48,0.86 -0.09,0.87 -0.39,0.86 -0.48,1.06 -0.57,1 -0.48,1.06 -0.58,1.06 -0.58,1 -1,1.53 -0.28,0.58 -0.58,0.86 -1,1.35 -0.58,0.67 -0.57,0.58 -0.58,0.67 -0.67,0.77 -0.29,0.38 -0.67,0.77 -0.58,0.67 -1.28,1.17 -1,0.76 -0.87,0.77 -1.53,1 -2.41,1.06 -0.76,0.29 -0.87,0.29 -1.25,0.19 -1.15,0.29 -2,0.19 -1.25,0.09 -1.05,0.1 h -0.87 l -3.45,-0.38 -0.77,-0.2 -0.87,-0.28 -0.86,-0.39 -0.77,-0.38 -1.54,-0.87 -0.76,-0.38 -0.68,-0.58 -0.67,-0.67 -0.38,-0.48 -0.68,-0.77 -0.57,-0.67 -0.48,-0.77 -0.39,-0.67 -0.38,-0.87 -0.29,-0.76 -0.29,-0.87 -0.19,-0.86 -0.19,-0.77 -0.19,-0.87 -0.29,-2.59 v -1.85 l 0.09,-0.87 v -0.86 l 0.58,-2.6 0.33,-0.77 0.19,-0.87 0.29,-0.86 0.19,-0.87 0.29,-0.86 0.38,-1.06 0.48,-1.15 0.48,-0.87 0.58,-1 0.67,-1 0.39,-0.87 0.48,-0.67 0.57,-0.67 1.44,-1.54 1.45,-1.44 0.76,-0.67 0.87,-0.67 1,-0.68 0.86,-0.67 1,-0.57 1,-0.48 0.87,-0.39 1.25,-0.58 2,-0.67 1.73,-0.38 1.25,-0.19 h 2.11 l 1.25,0.19 1.54,0.29 1.25,0.28 0.86,0.29 0.87,0.39 0.76,0.38 0.58,0.39 1.35,1.15 0.57,0.67 0.58,1 0.48,1.15 0.29,0.87 0.19,0.86 0.09,0.87 v 1.15 l -0.24,1.21 -0.1,1 -0.29,1.15 -0.38,1.15 -0.38,1 -0.29,0.48 -0.48,0.87 z M 408,91.27 l -1.35,0.58 -1.15,0.57 -0.77,0.48 -1.34,1.16 -0.87,0.86 -0.77,0.87 -0.67,0.76 -0.67,1.06 -0.67,1 -0.48,0.86 -0.58,1.06 -0.38,1.15 -0.39,0.87 -0.29,0.77 -0.09,0.67 0.48,0.48 1.25,0.29 1.92,0.09 1,0.1 h 2.69 l 1,-0.19 0.86,-0.19 1,-0.39 0.58,-0.19 1,-0.48 0.67,-0.48 0.67,-0.58 0.68,-0.67 0.67,-0.58 0.57,-0.76 0.48,-0.68 0.39,-0.77 0.48,-0.86 0.58,-1.73 0.19,-1 0.09,-0.86 -0.09,-1 -0.39,-0.87 -0.57,-0.67 -0.77,-0.58 -0.87,-0.38 -0.86,-0.19 -0.86,-0.1 -1,0.19 z"
           class="cls-1"
           id="path680"
           style="fill:#ffaaaa;fill-opacity:1" />
      </g>
      <g
         id="g700"
         style="fill:#ffaaaa;fill-opacity:1">
        <path
           d="m 72.42,188.94 v 5.5 c 0,15.85 -4.84,26 -15.63,31 13,5.06 18.05,16.73 18.05,33 v 12.55 c 0,23.77 -12.55,36.54 -36.76,36.54 H 0 V 153.5 h 36.54 c 25.09,0 35.88,11.67 35.88,35.44 z M 24.21,175.51 v 40.72 h 9.47 c 9,0 14.53,-4 14.53,-16.28 v -8.59 c 0,-11 -3.75,-15.85 -12.33,-15.85 z m 0,62.74 v 47.32 h 13.87 c 8.15,0 12.55,-3.74 12.55,-15.18 V 257 c 0,-14.31 -4.62,-18.71 -15.63,-18.71 z"
           class="cls-1"
           id="path684"
           style="fill:#ffaaaa;fill-opacity:1" />
        <path
           d="m 87.39,190.48 c 0,-24.65 13,-38.74 36.76,-38.74 23.76,0 36.76,14.09 36.76,38.74 v 80.13 c 0,24.65 -13,38.74 -36.76,38.74 -23.76,0 -36.76,-14.09 -36.76,-38.74 z m 24.21,81.67 c 0,11 4.84,15.19 12.55,15.19 7.71,0 12.55,-4.19 12.55,-15.19 v -83.21 c 0,-11 -4.85,-15.19 -12.55,-15.19 -7.7,0 -12.55,4.18 -12.55,15.19 z"
           class="cls-1"
           id="path686"
           style="fill:#ffaaaa;fill-opacity:1" />
        <path
           d="m 199.65,153.5 v 118.87 c 0,11 4.85,15 12.55,15 7.7,0 12.55,-4 12.55,-15 V 153.5 h 22.89 v 117.33 c 0,24.65 -12.33,38.74 -36.1,38.74 -23.77,0 -36.1,-14.09 -36.1,-38.74 V 153.5 Z"
           class="cls-1"
           id="path688"
           style="fill:#ffaaaa;fill-opacity:1" />
        <path
           d="M 257.11,153.5 H 332 v 22 H 306.63 V 307.59 H 282.42 V 175.51 h -25.31 z"
           class="cls-1"
           id="path690"
           style="fill:#ffaaaa;fill-opacity:1" />
        <path
           d="m 342.51,153.5 h 24.21 v 154.09 h -24.21 z"
           class="cls-1"
           id="path692"
           style="fill:#ffaaaa;fill-opacity:1" />
        <path
           d="m 382.35,190.48 c 0,-24.65 13,-38.74 36.76,-38.74 23.76,0 36.76,14.09 36.76,38.74 v 80.13 c 0,8.58 -1.54,15.84 -4.62,21.57 1.1,2.86 2.86,3.3 6.82,3.3 h 2.21 v 21.57 H 457 c -10.78,0 -17.61,-4 -20.91,-10.56 a 49.64,49.64 0 0 1 -16.95,2.86 c -23.77,0 -36.76,-14.09 -36.76,-38.74 z m 24.22,81.67 c 0,11 4.84,15.19 12.54,15.19 7.7,0 12.55,-4.19 12.55,-15.19 v -83.21 c 0,-11 -4.84,-15.19 -12.55,-15.19 -7.71,0 -12.54,4.18 -12.54,15.19 z"
           class="cls-1"
           id="path694"
           style="fill:#ffaaaa;fill-opacity:1" />
        <path
           d="m 494.62,153.5 v 118.87 c 0,11 4.84,15 12.54,15 7.7,0 12.55,-4 12.55,-15 V 153.5 h 22.89 v 117.33 c 0,24.65 -12.32,38.74 -36.1,38.74 -23.78,0 -36.1,-14.09 -36.1,-38.74 V 153.5 Z"
           class="cls-1"
           id="path696"
           style="fill:#ffaaaa;fill-opacity:1" />
        <path
           d="m 583.33,218.44 h 33.23 v 22 h -33.23 v 45.12 h 41.82 v 22 h -66 V 153.5 h 66 v 22 h -41.82 z"
           class="cls-1"
           id="path698"
           style="fill:#ffaaaa;fill-opacity:1" />
      </g>
      <g
         id="g718"
         style="fill:#ffaaaa;fill-opacity:1">
        <path
           d="m 232.18,435.63 c 2.18,1.13 3.27,1.67 5.48,2.72 l -1.53,3.24 c -2.26,-1.07 -3.38,-1.62 -5.6,-2.77 l -3.38,6.53 c 2.92,1.51 4.39,2.23 7.35,3.6 l -1.5,3.26 c -4.76,-2.21 -7.12,-3.4 -11.76,-5.95 l 12.09,-22 c 4,2.22 6.08,3.25 10.21,5.16 l -1.5,3.26 c -2.68,-1.24 -4,-1.89 -6.64,-3.25 -1.3,2.47 -1.94,3.72 -3.22,6.2 z"
           class="cls-1"
           id="path702"
           style="fill:#ffaaaa;fill-opacity:1" />
        <path
           d="m 258.19,435.05 c 3.8,1.33 5.09,4.1 3.9,7.94 l -0.23,0.75 c -1.55,-0.48 -2.33,-0.73 -3.87,-1.25 l 0.33,-1 c 0.57,-1.7 0.06,-2.58 -1.21,-3 -1.27,-0.42 -2.22,-0.07 -2.83,1.62 -1.77,4.85 6.11,8.53 4,15.38 -1.19,3.84 -4.2,5.36 -8.62,3.8 -4.42,-1.56 -5.85,-4.62 -4.38,-8.36 l 0.57,-1.44 c 1.62,0.64 2.43,0.95 4.06,1.55 l -0.62,1.68 a 2.4,2.4 0 1 0 4.52,1.59 c 1.65,-4.89 -6.25,-8.81 -3.63,-15.49 1.46,-3.76 4.22,-5.1 8.01,-3.77 z"
           class="cls-1"
           id="path704"
           style="fill:#ffaaaa;fill-opacity:1" />
        <path
           d="m 272.24,439.58 c 4.93,1.25 7.42,1.77 12.41,2.63 -0.24,1.42 -0.37,2.12 -0.61,3.54 -1.73,-0.3 -2.59,-0.46 -4.31,-0.8 l -4.2,21.11 c -1.86,-0.37 -2.78,-0.56 -4.63,-1 l 4.73,-21 c -1.71,-0.39 -2.56,-0.59 -4.27,-1 z"
           class="cls-1"
           id="path706"
           style="fill:#ffaaaa;fill-opacity:1" />
        <path
           d="m 293.27,464.91 -0.4,3.78 c -1.8,-0.19 -2.71,-0.3 -4.51,-0.53 0.2,-1.51 0.29,-2.26 0.49,-3.77 1.76,0.23 2.65,0.33 4.42,0.52 z"
           class="cls-1"
           id="path708"
           style="fill:#ffaaaa;fill-opacity:1" />
        <path
           d="m 325.25,447.42 c -1.32,0.1 -2.11,0.83 -2,2.62 0.07,1.07 0.1,1.61 0.17,2.69 -1.62,0.1 -2.43,0.14 -4.06,0.2 0,-1 -0.05,-1.46 -0.09,-2.43 -0.16,-4 1.83,-6.36 5.82,-6.66 3.99,-0.3 6.32,1.7 6.77,5.69 0.89,7.85 -7.71,11.56 -7.44,15.68 a 2.33,2.33 0 0 0 0.07,0.53 c 3.49,-0.22 5.23,-0.37 8.71,-0.76 0.16,1.43 0.24,2.14 0.39,3.57 -5.41,0.6 -8.13,0.8 -13.57,1 l -0.12,-3.09 c -0.29,-7.38 8.4,-9.16 7.76,-16.38 -0.2,-2.23 -1.09,-2.76 -2.41,-2.66 z"
           class="cls-1"
           id="path710"
           style="fill:#ffaaaa;fill-opacity:1" />
        <path
           d="m 341.75,448.11 c -0.69,-3.95 1.09,-6.56 5,-7.4 3.91,-0.84 6.63,0.82 7.61,4.71 1.28,5.07 1.93,7.6 3.21,12.67 1,3.89 -0.92,6.78 -5.47,7.75 -4.55,0.97 -7.45,-0.9 -8.13,-4.86 -0.88,-5.15 -1.33,-7.72 -2.22,-12.87 z m 6.78,12.28 c 0.35,1.76 1.4,2.25 2.85,1.94 1.45,-0.31 2.2,-1.18 1.8,-2.93 -1.2,-5.29 -1.8,-7.94 -3,-13.23 -0.4,-1.75 -1.37,-2.22 -2.67,-1.95 -1.3,0.27 -2,1.11 -1.64,2.87 z"
           class="cls-1"
           id="path712"
           style="fill:#ffaaaa;fill-opacity:1" />
        <path
           d="m 363.19,439.94 c 3.1,-1 3.31,-2.64 3.36,-4.45 1.05,-0.36 1.58,-0.55 2.63,-0.93 3.45,9.43 5.18,14.15 8.64,23.58 -1.8,0.66 -2.7,1 -4.5,1.58 -2.46,-7.26 -3.68,-10.89 -6.14,-18.15 -1.25,0.43 -1.88,0.64 -3.14,1 z"
           class="cls-1"
           id="path714"
           style="fill:#ffaaaa;fill-opacity:1" />
        <path
           d="m 391.63,443.48 1,2.1 a 2.43,2.43 0 1 0 4.34,-2.17 c -1,-2 -1.52,-3 -2.54,-4.91 -0.82,-1.59 -1.93,-1.78 -3.2,-1.14 -1.27,0.64 -1.79,1.63 -1,3.25 l 0.33,0.68 c -1.55,0.75 -2.33,1.11 -3.89,1.82 -2.11,-5.44 -3.18,-8.15 -5.34,-13.57 4,-1.84 6,-2.83 9.88,-5 0.69,1.26 1,1.89 1.71,3.15 -2.62,1.43 -3.95,2.12 -6.62,3.42 0.93,2.21 1.39,3.32 2.31,5.54 a 4.45,4.45 0 0 1 2.62,-3.36 c 2.88,-1.47 5.3,-0.5 7.08,2.74 L 401,441 c 1.94,3.52 0.89,6.76 -3.36,8.89 -4.25,2.13 -7.45,1 -9.11,-2.64 l -0.86,-1.89 c 1.6,-0.75 2.39,-1.12 3.96,-1.88 z"
           class="cls-1"
           id="path716"
           style="fill:#ffaaaa;fill-opacity:1" />
      </g>
    </g>
    <g
       id="g726"
       style="fill:#ffaaaa;fill-opacity:1">
      <polygon
         points="167.66,127 115.99,37.5 509.16,37.5 457.49,127 480.58,127 543.8,17.5 81.35,17.5 144.56,127 "
         class="cls-1"
         id="polygon722"
         style="fill:#ffaaaa;fill-opacity:1" />
      <polygon
         points="287.17,334 264.08,334 312.57,418 361.07,334 337.98,334 312.57,378 "
         class="cls-1"
         id="polygon724"
         style="fill:#ffaaaa;fill-opacity:1" />
    </g>
    <g
       id="g732"
       style="fill:#ffaaaa;fill-opacity:1">
      <path
         d="M 518.64,127 A 231.92,231.92 0 0 0 493.72,88 l -7.85,6.19 a 222.67,222.67 0 0 1 21.5,32.81 z"
         class="cls-1"
         id="path728"
         style="fill:#ffaaaa;fill-opacity:1" />
      <path
         d="m 507.32,334 q -1.47,2.76 -3,5.47 a 222,222 0 0 1 -75.87,78.67 l 5.27,8.5 A 232.17,232.17 0 0 0 513,344.42 q 2.93,-5.15 5.58,-10.42 z"
         class="cls-1"
         id="path730"
         style="fill:#ffaaaa;fill-opacity:1" />
    </g>
  </g>
  <g
     id="g1003"
     transform="translate(-1.9588136,-1.948517)"
     style="fill:#ffaaaa">
    <g
       id="g989"
       style="fill:#ffaaaa;fill-opacity:1">
      <path
         d="m 214.76,32.83 -4.44,-9 a 231,231 0 0 1 202.19,-1.14 l -4.34,9 a 221,221 0 0 0 -193.41,1.09 z"
         class="cls-1"
         id="path931"
         style="fill:#ffaaaa;fill-opacity:1" />
      <g
         id="g937"
         style="fill:#ffaaaa;fill-opacity:1">
        <path
           d="m 120.84,339.47 q -1.55,-2.72 -3,-5.47 h -11.27 q 2.66,5.28 5.58,10.42 a 232,232 0 0 0 79.29,82.22 l 5.26,-8.5 a 222,222 0 0 1 -75.86,-78.67 z"
           class="cls-1"
           id="path933"
           style="fill:#ffaaaa;fill-opacity:1" />
        <path
           d="m 117.78,127 a 221.75,221.75 0 0 1 21.57,-32.94 l -7.85,-6.2 a 231.18,231.18 0 0 0 -25,39.14 z"
           class="cls-1"
           id="path935"
           style="fill:#ffaaaa;fill-opacity:1" />
      </g>
      <g
         id="g951"
         style="fill:#ffaaaa;fill-opacity:1">
        <path
           d="m 198.23,116.53 -0.38,-0.86 -0.29,-0.77 -0.58,-1.73 -0.19,-0.86 -0.1,-0.87 -0.19,-0.86 -0.29,-2.6 v -1.82 l 0.1,-0.87 v -2.69 l 0.19,-1.72 0.19,-1 0.1,-0.87 0.19,-0.77 0.19,-0.86 0.29,-1 0.39,-1.06 0.57,-1.92 0.39,-1.06 0.38,-0.86 0.39,-0.77 0.38,-0.86 0.38,-0.77 0.39,-0.87 0.48,-0.76 0.48,-0.68 1,-0.57 1.06,-0.29 0.86,0.09 0.77,0.29 0.77,0.48 0.76,0.77 0.49,1.06 v 0.86 l -0.49,1.15 -0.47,1.25 -0.29,0.58 -0.39,1 -0.38,0.77 -0.29,0.86 -0.19,0.87 -0.29,1.15 -0.29,1.25 -0.19,0.86 -0.1,0.87 -0.19,0.86 -0.09,0.87 v 0.76 l -0.2,1.73 v 0.87 l 0.1,1 v 1.73 l 0.1,0.86 0.19,0.87 0.19,1.24 0.29,1.54 0.38,1.25 0.29,0.86 0.77,1.54 0.58,0.77 0.47,0.58 0.58,0.67 1.35,1.15 0.67,0.48 0.77,0.38 0.86,0.29 1.25,0.29 1.15,0.19 0.87,0.2 h 2.49 l 0.87,-0.2 0.86,-0.09 0.87,-0.29 1,-0.39 0.77,-0.38 1.44,-0.86 0.77,-0.48 1.35,-1 1.92,-1.93 0.57,-0.67 0.48,-0.67 0.48,-0.77 0.58,-0.86 0.38,-0.48 1.06,-1.54 0.38,-0.67 0.48,-0.77 0.39,-0.86 0.48,-0.87 0.67,-1.44 0.3,-0.83 0.38,-0.77 0.1,-0.77 -0.29,-0.39 -0.57,-0.19 -0.87,-0.09 -1,-0.1 -0.86,-0.19 -0.77,-0.19 -0.87,-0.29 -0.86,-0.19 -0.77,-0.29 -0.77,-0.39 -2.3,-0.86 -1.06,-0.38 -2.88,-1.73 -0.77,-0.48 -1.44,-1 -0.67,-0.58 -3.65,-3.65 -0.48,-0.67 -0.58,-0.67 -1,-1.45 -0.38,-0.67 -0.39,-0.86 -0.77,-1.54 -0.38,-1.06 -0.38,-1 -0.29,-1 -0.39,-1.05 -0.28,-0.87 -0.2,-1.73 -0.09,-1 v -0.4 l -0.19,-1.92 0.09,-0.87 0.1,-1 0.09,-0.57 0.2,-1.06 0.24,-1.08 0.38,-1.25 0.29,-0.87 0.48,-1.15 0.48,-1.06 0.38,-0.86 0.48,-0.67 1.16,-1.35 0.57,-0.57 1.38,-1.22 1.05,-0.76 1.35,-0.74 2.69,-1.35 0.86,-0.29 1.25,-0.28 1.15,-0.29 1,-0.19 1.16,-0.1 h 2.21 l 1.53,0.19 1.92,0.1 1.16,0.19 1.25,0.29 0.86,0.38 1.73,0.58 1.05,0.57 1.64,1 1,0.57 0.67,0.48 0.67,0.58 1.15,1.34 0.49,0.68 0.48,0.76 0.48,0.68 0.38,0.76 0.38,0.87 0.77,1.54 0.29,0.76 0.29,0.87 0.38,1.73 0.19,1.25 0.29,1.15 0.1,1 0.1,0.58 0.09,1 0.1,0.87 v 0.86 l 0.19,1.73 v 0.86 l -0.1,1 -0.09,0.87 -0.19,0.77 v 1 l -0.1,0.58 v 1.06 l -0.19,0.86 -0.28,1.14 -0.19,1.25 -0.19,1 -0.1,0.87 -0.09,0.76 -0.19,0.87 -0.29,0.86 v 1.06 l 0.57,0.58 h 1.06 l 0.87,-0.2 1.05,-0.28 0.58,-0.2 1.82,-0.48 1.06,-0.38 1.25,-0.48 1,-0.38 0.87,-0.49 0.58,-0.28 0.86,-0.48 0.86,-0.39 0.77,-0.09 0.48,0.38 0.1,0.86 -0.19,0.77 -0.29,0.87 -0.39,0.77 -0.57,0.57 -0.77,0.48 -1,0.39 -0.48,0.28 -1.73,0.87 -0.86,0.38 -0.77,0.29 -1,0.39 -0.58,0.19 -1,0.48 -0.77,0.29 -0.77,0.19 -0.86,0.19 -1,0.29 -1,0.19 -0.87,0.1 -0.76,0.19 -0.58,0.48 -0.49,1.49 -0.29,0.86 -0.51,1.14 -1.44,2.88 -0.29,0.48 -0.48,0.87 -0.38,0.86 -1,1.54 -0.38,0.48 -0.58,0.86 -0.48,0.68 -1.11,1.35 -0.48,0.77 -0.58,0.67 -0.67,0.58 -0.68,0.67 -0.57,0.48 -1.25,1.25 -1.34,1.15 -0.77,0.48 -1.06,0.58 -1.15,0.67 -0.87,0.48 -0.76,0.39 -0.87,0.28 -0.77,0.2 -0.86,0.28 -0.87,0.2 -0.86,0.28 -1,0.1 -0.58,0.1 -1,0.09 -0.86,0.1 h -2.61 l -1.15,-0.19 -1.06,-0.1 -2.39,-0.51 -1.15,-0.29 -0.87,-0.29 -0.77,-0.28 -0.86,-0.49 -1.92,-1.34 -0.77,-0.67 -0.58,-0.58 -0.67,-0.57 -0.58,-0.58 -0.57,-0.77 -0.67,-1 -0.58,-1.06 -0.48,-0.86 z m 17.1,-39.86 v 2.6 l 0.09,1 0.2,0.86 0.09,0.86 0.58,1.73 0.29,0.77 0.38,0.87 0.38,0.76 0.48,0.68 0.48,0.86 0.39,0.77 1.15,1.34 0.67,0.68 0.39,0.48 1.34,1.34 0.67,0.58 0.77,0.57 0.68,0.48 0.76,0.48 0.68,0.48 1,0.49 0.57,0.19 1.06,0.48 0.58,0.19 1,0.38 2.4,0.77 1,0.19 0.86,0.2 0.77,-0.1 0.67,-0.67 0.39,-1.06 0.57,-2.59 0.19,-1.25 0.1,-1.15 0.1,-1 0.29,-2.6 v -0.86 l 0.19,-1.15 v -5.19 l -0.1,-1.15 -0.09,-1 -0.2,-1.16 -0.19,-1.24 -0.38,-1.73 -0.29,-0.87 -0.48,-1.15 -0.39,-1.06 -0.38,-0.86 -0.48,-0.77 -0.48,-0.67 -0.48,-0.48 -0.58,-0.67 -0.76,-0.58 -0.68,-0.48 -0.77,-0.38 -0.86,-0.39 -1.25,-0.29 -1.7,-0.15 -1.2,-0.05 -1,0.1 -1.25,0.19 -1.44,0.48 -1.44,0.77 -1.35,0.87 -1.15,1 -0.87,1 -0.38,0.77 -0.48,1.15 -0.44,1.4 -0.29,1.27 -0.19,1 z"
           class="cls-1"
           id="path939"
           style="fill:#ffaaaa;fill-opacity:1" />
        <path
           d="m 275.16,91.85 -0.76,0.38 -0.68,0.39 -0.67,0.48 -0.77,0.57 -0.67,0.58 -1.54,1.06 -0.67,0.48 -0.67,0.57 -0.67,0.67 -1.16,1.35 -0.67,0.67 -1.15,1.35 -1,1.53 -0.58,0.77 -1.11,2.3 -1.06,3.17 -0.28,1.24 -0.39,1.44 -0.38,1.25 -0.58,2.6 -0.38,1.24 -0.39,1.45 -0.28,1.24 -0.29,0.87 -0.29,1.25 -0.19,1 -0.29,1 -0.1,0.87 -0.19,0.77 -0.29,0.77 -0.57,0.48 -0.87,0.28 -0.86,0.1 -1.25,0.1 -1.46,-0.12 -1.25,-0.19 -0.77,-0.39 -0.58,-0.86 -0.09,-1.06 0.19,-1 0.29,-1.25 0.29,-1.15 0.19,-0.86 0.29,-0.87 0.19,-0.86 0.29,-0.77 0.29,-0.87 0.19,-0.86 0.19,-0.77 0.19,-0.86 0.29,-0.87 0.29,-0.77 0.38,-1.72 0.19,-0.77 0.1,-0.87 0.29,-0.86 0.19,-0.87 0.29,-0.86 0.29,-1.15 0.38,-1.25 0.48,-1.73 0.19,-0.77 0.2,-0.86 0.28,-0.87 0.2,-0.86 0.28,-0.77 0.2,-0.86 0.28,-0.87 0.29,-1.25 0.29,-1.15 0.19,-0.86 0.58,-1.73 0.19,-0.77 0.29,-0.87 0.38,-1.72 0.68,-1 1.24,-0.67 1.54,-0.19 1.54,0.19 1.44,0.48 1,1 0.19,1.16 -0.19,1 -0.19,0.67 -0.29,0.86 -0.19,0.87 -0.29,0.77 -0.19,0.86 -0.29,0.86 -0.19,0.87 -0.1,0.58 0.1,0.09 0.38,-0.48 0.58,-0.67 0.48,-0.67 1.15,-1.35 0.67,-0.57 1.25,-1.06 0.67,-0.58 1.25,-1.25 1.92,-1.53 0.77,-0.48 0.77,-0.39 0.77,-0.48 0.77,-0.29 0.86,-0.28 1.25,-0.29 1.15,-0.19 h 2.21 l 1.54,0.19 1.05,0.19 0.87,0.38 0.86,0.48 0.67,0.68 0.48,0.67 0.48,0.77 0.39,0.77 0.29,0.86 0.29,1.15 0.19,1.16 v 1.82 l -0.1,0.87 v 0.86 l -0.09,0.77 -0.2,0.86 -0.19,1 -0.19,0.58 -0.29,1 -0.29,1.25 -0.38,1.4 -0.39,1.25 -0.28,0.86 -0.29,1.25 -0.39,1.63 -0.38,1.54 -0.38,1.34 -0.2,0.87 -0.19,0.67 -0.19,0.87 -0.29,0.86 -0.19,0.77 -0.58,2.59 -0.09,0.87 v 1.72 l 0.38,0.77 0.67,0.48 0.87,0.1 0.86,-0.29 0.87,-0.38 0.76,-0.48 0.68,-0.48 0.77,-0.58 1.24,-1.25 0.48,-0.67 0.58,-0.77 0.48,-0.67 0.67,-0.77 0.48,-0.67 0.58,-0.87 0.86,-1.44 0.58,-0.86 0.29,-0.48 0.57,-0.87 0.48,-0.86 0.77,-1.54 0.39,-0.86 0.29,-0.77 0.24,-0.88 0.48,-0.77 0.87,-0.58 1.25,0.29 0.76,1 v 1 l -0.28,0.86 -0.39,0.77 -0.38,0.87 -0.39,0.77 -0.48,0.76 -0.38,0.77 -0.58,0.87 -0.28,0.57 -1,1.73 -0.19,0.58 -0.48,0.86 -1,1.54 -0.57,0.86 -0.39,0.48 -0.57,0.77 -0.68,0.87 -0.57,0.67 -1.06,1.15 -0.58,0.67 -1.34,1.16 -0.58,0.57 -0.76,0.58 -0.77,0.48 -1.54,0.77 -0.77,0.29 -0.86,0.28 -0.87,0.2 -0.77,0.09 -1,0.1 h -0.86 l -0.86,-0.1 -0.77,-0.19 -0.87,-0.29 -0.77,-0.29 -0.76,-0.48 -0.58,-0.48 -0.58,-0.67 -0.38,-0.86 -0.29,-0.77 -0.19,-0.87 -0.19,-0.76 V 119 l 0.19,-1.25 0.09,-1 0.29,-1.25 0.87,-3.16 0.29,-1.64 0.52,-1.7 0.38,-1.54 0.39,-1.25 0.29,-0.86 0.38,-1.25 0.38,-1.54 0.29,-1.53 0.39,-1.25 0.38,-1.73 0.1,-0.86 0.38,-1.83 0.1,-0.86 -0.19,-1 -0.58,-1 -0.87,-0.87 -0.86,-0.29 -0.86,-0.09 -0.87,0.09 z"
           class="cls-1"
           id="path941"
           style="fill:#ffaaaa;fill-opacity:1" />
        <path
           d="m 327,79.65 -0.48,0.86 -0.77,1.54 -0.48,1.06 -0.67,1 -0.48,0.68 -0.48,0.76 -0.48,0.68 -0.48,0.86 -0.39,0.58 -0.48,0.77 -0.67,0.86 -0.86,1 -0.87,0.87 -0.38,0.48 -0.67,0.76 -1.25,1.25 -0.58,0.67 -1.03,1.17 -0.67,0.57 -0.77,0.77 -1.05,0.77 -1.44,1.25 -0.77,0.48 -2.11,1.34 -0.69,0.32 -0.77,0.48 -1.05,0.87 -0.67,0.86 -0.39,0.77 -0.19,1.06 -0.29,1.72 v 0.58 l -0.19,1 -0.19,0.87 -0.1,1 v 2 l -0.09,1.25 v 1.92 l 0.19,1.06 0.09,0.58 0.2,1 0.38,0.86 0.38,0.77 0.58,0.67 0.77,0.48 0.77,0.29 1,0.19 H 310 l 0.77,-0.09 0.86,-0.29 1.16,-0.48 1.05,-0.58 0.77,-0.58 1,-0.76 0.87,-0.87 1.15,-1.06 0.77,-0.67 0.6,-0.9 0.39,-0.48 0.57,-0.76 0.39,-0.68 0.57,-0.86 0.39,-0.48 0.57,-0.87 0.77,-1.44 0.48,-0.76 0.58,-0.87 0.48,-0.86 0.48,-1 0.86,-1.25 1,-0.77 1.25,0.19 0.77,1 v 1 l -0.29,0.87 -0.38,0.76 -0.48,0.77 -0.39,0.87 -0.38,0.77 -0.29,0.76 -0.48,0.77 -0.38,0.68 -0.48,0.76 -0.58,0.87 -0.19,0.48 -0.48,0.86 -0.58,0.77 -1,1.35 -0.67,0.86 -0.39,0.38 -0.67,0.87 -0.57,0.67 -0.77,1 -0.87,0.77 -0.67,0.67 -0.57,0.48 -0.68,0.58 -0.86,0.48 -0.77,0.38 -0.86,0.39 -0.77,0.38 -0.77,0.29 -0.87,0.38 -1.15,0.39 -1.92,0.38 -1.15,0.1 -1.06,-0.1 h -0.57 l -1,-0.09 -0.87,-0.2 -0.77,-0.28 -0.86,-0.29 -0.77,-0.39 -0.77,-0.48 -0.67,-0.57 -0.58,-0.58 -0.57,-0.67 -0.39,-0.77 -0.38,-0.86 -0.29,-0.77 -0.19,-0.87 -0.29,-0.86 -0.1,-0.87 -0.19,-1 v -0.57 l -0.19,-1.06 -0.1,-0.86 v -0.87 l 0.1,-0.86 0.1,-1 v -0.58 l 0.09,-1.25 0.29,-2.11 0.1,-1.15 v -0.87 l 0.19,-0.86 0.19,-1 0.67,-3.17 0.29,-1.15 0.29,-1.73 0.19,-0.48 0.29,-1.16 0.19,-0.57 0.39,-1.44 0.28,-1.25 0.2,-0.87 0.28,-1.15 0.39,-1.34 0.09,-0.68 0.39,-1.34 0.38,-1.25 0.29,-0.67 0.38,-1.25 0.39,-1.15 0.38,-0.87 1,-2.49 0.2,-0.58 0.57,-1.35 0.67,-1.53 0.48,-1.15 0.39,-0.87 0.29,-0.57 0.48,-0.87 0.67,-1.63 0.48,-1 0.48,-0.87 0.58,-0.86 0.76,-1.25 1.21,-1.67 0.58,-0.77 1.25,-1.23 0.38,-0.48 0.67,-0.67 0.68,-0.48 1.53,-1.06 1.06,-0.67 1.06,-0.48 0.86,-0.29 0.87,-0.19 h 1.72 l 1,0.19 0.58,0.1 1,0.29 0.77,0.38 1.34,1.16 0.48,0.76 0.68,1 0.48,1.16 0.38,0.86 0.38,1.15 0.2,1.25 v 1.73 l -0.2,2.59 -0.41,1.7 -0.29,0.77 -0.19,1 -0.82,2.23 -0.38,0.77 z m -15.94,2.69 -1.35,4 -0.19,0.87 -0.29,0.86 -0.38,1.25 -0.67,2 -0.29,1 -0.1,0.57 -0.29,1 -0.29,0.87 -0.19,1 0.19,0.58 0.58,-0.39 1,-0.77 3.94,-3.93 0.48,-0.68 0.48,-0.77 0.58,-0.86 0.38,-0.38 0.58,-0.87 0.67,-0.86 0.67,-1 0.67,-1.06 0.48,-0.77 0.39,-0.67 0.48,-0.67 0.77,-1.54 0.38,-1 0.29,-0.58 0.38,-1 0.39,-0.86 0.19,-0.87 0.29,-0.86 0.29,-1.06 0.38,-1 0.29,-1.06 0.38,-1.06 0.1,-1 0.09,-0.86 v -1.79 l -0.19,-0.76 -0.29,-0.77 -0.67,-0.48 -0.77,-0.19 -0.86,0.19 -0.87,0.67 -0.67,0.58 -0.48,0.57 -0.48,0.67 -0.48,0.77 -1,1.44 -0.48,0.87 -0.38,0.86 -0.39,0.77 -0.38,0.87 -0.39,0.76 -0.38,0.87 -0.29,0.77 -0.38,1 -0.58,1.44 -0.38,0.87 z"
           class="cls-1"
           id="path943"
           style="fill:#ffaaaa;fill-opacity:1" />
        <path
           d="m 348.16,105.1 v 1.06 l -0.29,0.86 -0.77,1.54 -0.86,1.44 -0.48,0.86 -0.39,0.77 -0.57,0.87 -0.29,0.57 -0.48,0.87 -0.48,0.77 -0.48,0.67 -0.58,0.77 -0.48,0.67 -1,1.54 -1.73,2 -1.15,1.25 -0.67,0.67 -0.58,0.68 -0.67,0.57 -2.11,1.64 -0.68,0.48 -0.86,0.38 -0.86,0.29 -0.77,0.19 -1.73,0.38 h -1.63 l -1.06,-0.09 -0.77,-0.29 -0.86,-0.29 -0.77,-0.48 -0.67,-0.57 -0.48,-0.68 -0.48,-0.77 -0.39,-0.86 -0.19,-0.77 -0.19,-0.86 -0.1,-0.87 v -0.86 l 0.19,-1.73 0.2,-0.86 0.28,-0.87 0.39,-1.73 0.29,-0.77 0.19,-0.86 0.29,-0.87 0.28,-0.76 0.87,-2.6 0.09,-0.77 0.2,-0.86 0.28,-0.86 0.2,-0.87 0.19,-0.77 0.57,-1.73 0.29,-1.15 0.29,-1.25 0.58,-1.73 0.19,-0.86 0.19,-0.67 0.19,-0.87 0.39,-1 0.29,-0.77 0.57,-2.59 0.29,-0.86 0.29,-1.16 0.38,-1.24 0.29,-0.87 0.39,-0.77 0.57,-0.48 0.87,-0.38 0.76,-0.1 1,0.1 1.73,0.19 1.54,0.58 0.48,0.67 v 0.86 l -0.19,0.87 -0.29,1.15 -0.29,1.25 -0.57,1.73 -0.2,0.77 -0.19,0.86 -0.29,1 -0.28,1.13 -1,2.89 -0.19,0.86 -0.38,1.25 -0.67,2 -0.2,0.86 -0.19,0.77 -0.19,0.86 -0.67,1.64 -0.19,0.86 -0.68,2.4 -0.57,1.73 -0.2,0.86 -0.28,1.25 -0.29,1.54 -0.19,1.63 0.19,1.44 0.77,1.06 1.05,0.29 0.87,-0.1 0.86,-0.38 0.67,-0.48 0.77,-0.58 3.17,-3.17 0.58,-0.67 0.48,-0.67 0.58,-0.77 1,-1.54 0.57,-0.67 0.39,-0.58 0.48,-0.77 0.57,-0.86 0.39,-0.86 0.77,-1.64 1.15,-2.3 0.48,-0.77 0.86,-0.48 1.25,0.19 z m -15.46,-29.48 0.48,-0.77 0.76,-0.67 0.77,-0.49 1,-0.28 0.87,-0.2 h 1 l 0.86,0.2 0.77,0.48 0.67,0.57 0.68,0.68 0.48,0.76 0.28,0.87 0.1,0.86 v 1 l -0.29,0.87 -0.48,0.77 -0.65,0.73 -0.68,0.58 -0.77,0.58 -0.86,0.38 -1,0.19 -0.86,-0.09 -1,-0.2 -1.54,-1 -0.58,-0.67 -0.48,-0.77 -0.19,-0.86 -0.1,-0.87 0.1,-0.86 0.19,-1 z"
           class="cls-1"
           id="path945"
           style="fill:#ffaaaa;fill-opacity:1" />
        <path
           d="m 365.93,91.85 -0.77,0.38 -0.67,0.39 -0.67,0.48 -0.77,0.57 -0.68,0.58 -1.53,1.06 -0.67,0.48 -0.68,0.57 -0.67,0.67 -1.15,1.35 -0.67,0.67 -1.16,1.35 -1,1.53 -0.57,0.77 -1.12,2.3 -1,3.17 -0.29,1.24 -0.38,1.44 -0.39,1.25 -0.57,2.6 -0.39,1.24 -0.38,1.45 -0.29,1.24 -0.29,0.87 -0.29,1.25 -0.19,1 -0.29,1 -0.09,0.87 -0.2,0.77 -0.28,0.77 -0.58,0.48 -0.86,0.28 -0.87,0.1 -1.25,0.1 -1.44,-0.1 -1.25,-0.19 -0.77,-0.39 -0.57,-0.86 -0.1,-1.06 0.19,-1 0.29,-1.25 0.29,-1.15 0.19,-0.86 0.29,-0.87 0.19,-0.86 0.29,-0.77 0.29,-0.87 0.19,-0.86 0.19,-0.77 0.19,-0.86 0.29,-0.87 0.29,-0.77 0.39,-1.72 0.19,-0.77 0.09,-0.87 0.29,-0.86 0.19,-0.87 0.29,-0.86 0.29,-1.15 0.38,-1.25 0.48,-1.73 0.2,-0.77 0.19,-0.86 0.29,-0.87 0.19,-0.86 0.29,-0.77 0.19,-0.86 0.29,-0.87 0.29,-1.25 0.28,-1.15 0.2,-0.86 0.57,-1.73 0.19,-0.77 0.29,-0.87 0.39,-1.72 0.67,-1 1.25,-0.67 1.53,-0.19 1.54,0.19 1.44,0.48 1,1 0.19,1.16 -0.19,1 -0.19,0.67 -0.29,0.86 -0.19,0.87 -0.29,0.77 -0.19,0.86 -0.29,0.86 -0.19,0.87 -0.1,0.58 0.1,0.09 0.38,-0.48 0.58,-0.67 0.48,-0.67 1.15,-1.35 0.67,-0.57 1.19,-1.05 0.68,-0.58 1.24,-1.25 1.93,-1.53 0.76,-0.48 0.77,-0.39 0.77,-0.48 0.77,-0.29 0.86,-0.28 1.25,-0.29 1.15,-0.19 h 2.21 l 1.54,0.19 1.06,0.19 0.86,0.38 0.87,0.48 0.67,0.68 0.48,0.67 0.48,0.77 0.38,0.77 0.29,0.86 0.29,1.15 0.19,1.16 v 1.82 l -0.1,0.87 v 0.86 l -0.09,0.77 -0.19,0.86 -0.2,1 -0.19,0.58 -0.29,1 -0.28,1.25 -0.39,1.44 -0.38,1.25 -0.29,0.86 -0.29,1.25 -0.41,1.57 -0.39,1.54 -0.38,1.34 -0.19,0.87 -0.2,0.67 -0.19,0.87 -0.29,0.86 -0.19,0.77 -0.57,2.59 -0.1,0.87 v 1.72 l 0.38,0.77 0.68,0.48 0.86,0.1 0.87,-0.29 0.86,-0.38 0.77,-0.48 0.67,-0.48 0.77,-0.58 1.24,-1.24 0.48,-0.67 0.57,-0.77 0.48,-0.67 0.68,-0.77 0.48,-0.67 0.57,-0.87 0.87,-1.44 0.57,-0.86 0.29,-0.48 0.58,-0.87 0.48,-0.86 0.77,-1.54 0.38,-0.86 0.29,-0.77 0.29,-0.86 0.48,-0.77 0.86,-0.58 1.25,0.29 0.77,1 v 1 l -0.29,0.86 -0.38,0.77 -0.39,0.87 -0.38,0.77 -0.48,0.76 -0.39,0.77 -0.57,0.87 -0.29,0.57 -1,1.73 -0.19,0.58 -0.48,0.86 -1,1.54 -0.58,0.86 -0.38,0.48 -0.58,0.77 -0.67,0.87 -0.58,0.67 -1.06,1.15 -0.57,0.67 -1.35,1.16 -0.57,0.57 -0.77,0.58 -0.77,0.48 -1.54,0.77 -0.76,0.29 -0.87,0.28 -0.86,0.2 -0.77,0.09 -1,0.1 h -0.87 l -0.86,-0.1 -0.77,-0.19 -0.86,-0.29 -0.77,-0.29 -0.77,-0.48 -0.58,-0.48 -0.57,-0.67 -0.39,-0.86 -0.29,-0.77 -0.19,-0.87 -0.19,-0.76 v -2.12 l 0.19,-1.25 0.1,-1 0.29,-1.25 0.86,-3.16 0.29,-1.64 0.38,-1.63 0.39,-1.54 0.38,-1.25 0.29,-0.86 0.38,-1.25 0.39,-1.54 0.29,-1.53 0.38,-1.25 0.38,-1.73 0.1,-0.86 0.38,-1.83 0.1,-0.86 -0.19,-1 -0.58,-1 -0.86,-0.87 -0.87,-0.29 -0.86,-0.09 -0.87,0.09 z"
           class="cls-1"
           id="path947"
           style="fill:#ffaaaa;fill-opacity:1" />
        <path
           d="m 419.71,102.8 -0.48,0.67 -1.15,1.34 -1.34,1.19 -0.68,0.48 -0.86,0.48 -0.58,0.19 -1,0.57 -0.57,0.29 -0.87,0.39 -1,0.29 -0.86,0.28 -0.87,0.1 -1,0.19 -1.05,0.1 -1.16,0.19 -0.86,0.1 h -0.87 l -1.72,-0.2 -1.73,-0.09 -0.87,-0.1 -2.59,-0.57 h -0.67 l -0.48,0.38 -0.2,0.67 v 0.87 l -0.09,1 v 1.63 l 0.09,1 0.2,0.77 0.57,1.73 1,1.53 0.58,0.68 0.58,0.57 1.53,1 1,0.29 0.87,0.29 0.67,0.1 0.86,0.19 0.87,0.09 h 1 l 0.86,-0.09 2.5,-0.48 0.87,-0.2 0.86,-0.28 0.77,-0.29 1.63,-0.67 1.54,-0.77 1.34,-1.06 0.65,-0.64 0.68,-0.58 1.34,-1.24 1.15,-1.35 0.48,-0.67 0.58,-0.77 1,-1.34 0.48,-0.77 0.39,-0.77 0.48,-0.77 0.38,-0.77 0.48,-0.67 0.38,-0.77 0.39,-0.86 0.38,-0.77 0.48,-0.77 0.68,-0.48 h 0.86 l 0.86,0.58 0.48,0.86 -0.09,0.87 -0.39,0.86 -0.48,1.06 -0.57,1 -0.48,1.06 -0.58,1.06 -0.58,1 -1,1.53 -0.28,0.58 -0.58,0.86 -1,1.35 -0.58,0.67 -0.57,0.58 -0.58,0.67 -0.67,0.77 -0.29,0.38 -0.67,0.77 -0.58,0.67 -1.28,1.17 -1,0.76 -0.87,0.77 -1.53,1 -2.41,1.06 -0.76,0.29 -0.87,0.29 -1.25,0.19 -1.15,0.29 -2,0.19 -1.25,0.09 -1.05,0.1 h -0.87 l -3.45,-0.38 -0.77,-0.2 -0.87,-0.28 -0.86,-0.39 -0.77,-0.38 -1.54,-0.87 -0.76,-0.38 -0.68,-0.58 -0.67,-0.67 -0.38,-0.48 -0.68,-0.77 -0.57,-0.67 -0.48,-0.77 -0.39,-0.67 -0.38,-0.87 -0.29,-0.76 -0.29,-0.87 -0.19,-0.86 -0.19,-0.77 -0.19,-0.87 -0.29,-2.59 v -1.85 l 0.09,-0.87 v -0.86 l 0.58,-2.6 0.33,-0.77 0.19,-0.87 0.29,-0.86 0.19,-0.87 0.29,-0.86 0.38,-1.06 0.48,-1.15 0.48,-0.87 0.58,-1 0.67,-1 0.39,-0.87 0.48,-0.67 0.57,-0.67 1.44,-1.54 1.45,-1.44 0.76,-0.67 0.87,-0.67 1,-0.68 0.86,-0.67 1,-0.57 1,-0.48 0.87,-0.39 1.25,-0.58 2,-0.67 1.73,-0.38 1.25,-0.19 h 2.11 l 1.25,0.19 1.54,0.29 1.25,0.28 0.86,0.29 0.87,0.39 0.76,0.38 0.58,0.39 1.35,1.15 0.57,0.67 0.58,1 0.48,1.15 0.29,0.87 0.19,0.86 0.09,0.87 v 1.15 l -0.24,1.21 -0.1,1 -0.29,1.15 -0.38,1.15 -0.38,1 -0.29,0.48 -0.48,0.87 z M 408,91.27 l -1.35,0.58 -1.15,0.57 -0.77,0.48 -1.34,1.16 -0.87,0.86 -0.77,0.87 -0.67,0.76 -0.67,1.06 -0.67,1 -0.48,0.86 -0.58,1.06 -0.38,1.15 -0.39,0.87 -0.29,0.77 -0.09,0.67 0.48,0.48 1.25,0.29 1.92,0.09 1,0.1 h 2.69 l 1,-0.19 0.86,-0.19 1,-0.39 0.58,-0.19 1,-0.48 0.67,-0.48 0.67,-0.58 0.68,-0.67 0.67,-0.58 0.57,-0.76 0.48,-0.68 0.39,-0.77 0.48,-0.86 0.58,-1.73 0.19,-1 0.09,-0.86 -0.09,-1 -0.39,-0.87 -0.57,-0.67 -0.77,-0.58 -0.87,-0.38 -0.86,-0.19 -0.86,-0.1 -1,0.19 z"
           class="cls-1"
           id="path949"
           style="fill:#ffaaaa;fill-opacity:1" />
      </g>
      <g
         id="g969"
         style="fill:#ffaaaa;fill-opacity:1">
        <path
           d="m 72.42,188.94 v 5.5 c 0,15.85 -4.84,26 -15.63,31 13,5.06 18.05,16.73 18.05,33 v 12.55 c 0,23.77 -12.55,36.54 -36.76,36.54 H 0 V 153.5 h 36.54 c 25.09,0 35.88,11.67 35.88,35.44 z M 24.21,175.51 v 40.72 h 9.47 c 9,0 14.53,-4 14.53,-16.28 v -8.59 c 0,-11 -3.75,-15.85 -12.33,-15.85 z m 0,62.74 v 47.32 h 13.87 c 8.15,0 12.55,-3.74 12.55,-15.18 V 257 c 0,-14.31 -4.62,-18.71 -15.63,-18.71 z"
           class="cls-1"
           id="path953"
           style="fill:#ffaaaa;fill-opacity:1" />
        <path
           d="m 87.39,190.48 c 0,-24.65 13,-38.74 36.76,-38.74 23.76,0 36.76,14.09 36.76,38.74 v 80.13 c 0,24.65 -13,38.74 -36.76,38.74 -23.76,0 -36.76,-14.09 -36.76,-38.74 z m 24.21,81.67 c 0,11 4.84,15.19 12.55,15.19 7.71,0 12.55,-4.19 12.55,-15.19 v -83.21 c 0,-11 -4.85,-15.19 -12.55,-15.19 -7.7,0 -12.55,4.18 -12.55,15.19 z"
           class="cls-1"
           id="path955"
           style="fill:#ffaaaa;fill-opacity:1" />
        <path
           d="m 199.65,153.5 v 118.87 c 0,11 4.85,15 12.55,15 7.7,0 12.55,-4 12.55,-15 V 153.5 h 22.89 v 117.33 c 0,24.65 -12.33,38.74 -36.1,38.74 -23.77,0 -36.1,-14.09 -36.1,-38.74 V 153.5 Z"
           class="cls-1"
           id="path957"
           style="fill:#ffaaaa;fill-opacity:1" />
        <path
           d="M 257.11,153.5 H 332 v 22 H 306.63 V 307.59 H 282.42 V 175.51 h -25.31 z"
           class="cls-1"
           id="path959"
           style="fill:#ffaaaa;fill-opacity:1" />
        <path
           d="m 342.51,153.5 h 24.21 v 154.09 h -24.21 z"
           class="cls-1"
           id="path961"
           style="fill:#ffaaaa;fill-opacity:1" />
        <path
           d="m 382.35,190.48 c 0,-24.65 13,-38.74 36.76,-38.74 23.76,0 36.76,14.09 36.76,38.74 v 80.13 c 0,8.58 -1.54,15.84 -4.62,21.57 1.1,2.86 2.86,3.3 6.82,3.3 h 2.21 v 21.57 H 457 c -10.78,0 -17.61,-4 -20.91,-10.56 a 49.64,49.64 0 0 1 -16.95,2.86 c -23.77,0 -36.76,-14.09 -36.76,-38.74 z m 24.22,81.67 c 0,11 4.84,15.19 12.54,15.19 7.7,0 12.55,-4.19 12.55,-15.19 v -83.21 c 0,-11 -4.84,-15.19 -12.55,-15.19 -7.71,0 -12.54,4.18 -12.54,15.19 z"
           class="cls-1"
           id="path963"
           style="fill:#ffaaaa;fill-opacity:1" />
        <path
           d="m 494.62,153.5 v 118.87 c 0,11 4.84,15 12.54,15 7.7,0 12.55,-4 12.55,-15 V 153.5 h 22.89 v 117.33 c 0,24.65 -12.32,38.74 -36.1,38.74 -23.78,0 -36.1,-14.09 -36.1,-38.74 V 153.5 Z"
           class="cls-1"
           id="path965"
           style="fill:#ffaaaa;fill-opacity:1" />
        <path
           d="m 583.33,218.44 h 33.23 v 22 h -33.23 v 45.12 h 41.82 v 22 h -66 V 153.5 h 66 v 22 h -41.82 z"
           class="cls-1"
           id="path967"
           style="fill:#ffaaaa;fill-opacity:1" />
      </g>
      <g
         id="g987"
         style="fill:#ffaaaa;fill-opacity:1">
        <path
           d="m 232.18,435.63 c 2.18,1.13 3.27,1.67 5.48,2.72 l -1.53,3.24 c -2.26,-1.07 -3.38,-1.62 -5.6,-2.77 l -3.38,6.53 c 2.92,1.51 4.39,2.23 7.35,3.6 l -1.5,3.26 c -4.76,-2.21 -7.12,-3.4 -11.76,-5.95 l 12.09,-22 c 4,2.22 6.08,3.25 10.21,5.16 l -1.5,3.26 c -2.68,-1.24 -4,-1.89 -6.64,-3.25 -1.3,2.47 -1.94,3.72 -3.22,6.2 z"
           class="cls-1"
           id="path971"
           style="fill:#ffaaaa;fill-opacity:1" />
        <path
           d="m 258.19,435.05 c 3.8,1.33 5.09,4.1 3.9,7.94 l -0.23,0.75 c -1.55,-0.48 -2.33,-0.73 -3.87,-1.25 l 0.33,-1 c 0.57,-1.7 0.06,-2.58 -1.21,-3 -1.27,-0.42 -2.22,-0.07 -2.83,1.62 -1.77,4.85 6.11,8.53 4,15.38 -1.19,3.84 -4.2,5.36 -8.62,3.8 -4.42,-1.56 -5.85,-4.62 -4.38,-8.36 l 0.57,-1.44 c 1.62,0.64 2.43,0.95 4.06,1.55 l -0.62,1.68 a 2.4,2.4 0 1 0 4.52,1.59 c 1.65,-4.89 -6.25,-8.81 -3.63,-15.49 1.46,-3.76 4.22,-5.1 8.01,-3.77 z"
           class="cls-1"
           id="path973"
           style="fill:#ffaaaa;fill-opacity:1" />
        <path
           d="m 272.24,439.58 c 4.93,1.25 7.42,1.77 12.41,2.63 -0.24,1.42 -0.37,2.12 -0.61,3.54 -1.73,-0.3 -2.59,-0.46 -4.31,-0.8 l -4.2,21.11 c -1.86,-0.37 -2.78,-0.56 -4.63,-1 l 4.73,-21 c -1.71,-0.39 -2.56,-0.59 -4.27,-1 z"
           class="cls-1"
           id="path975"
           style="fill:#ffaaaa;fill-opacity:1" />
        <path
           d="m 293.27,464.91 -0.4,3.78 c -1.8,-0.19 -2.71,-0.3 -4.51,-0.53 0.2,-1.51 0.29,-2.26 0.49,-3.77 1.76,0.23 2.65,0.33 4.42,0.52 z"
           class="cls-1"
           id="path977"
           style="fill:#ffaaaa;fill-opacity:1" />
        <path
           d="m 325.25,447.42 c -1.32,0.1 -2.11,0.83 -2,2.62 0.07,1.07 0.1,1.61 0.17,2.69 -1.62,0.1 -2.43,0.14 -4.06,0.2 0,-1 -0.05,-1.46 -0.09,-2.43 -0.16,-4 1.83,-6.36 5.82,-6.66 3.99,-0.3 6.32,1.7 6.77,5.69 0.89,7.85 -7.71,11.56 -7.44,15.68 a 2.33,2.33 0 0 0 0.07,0.53 c 3.49,-0.22 5.23,-0.37 8.71,-0.76 0.16,1.43 0.24,2.14 0.39,3.57 -5.41,0.6 -8.13,0.8 -13.57,1 l -0.12,-3.09 c -0.29,-7.38 8.4,-9.16 7.76,-16.38 -0.2,-2.23 -1.09,-2.76 -2.41,-2.66 z"
           class="cls-1"
           id="path979"
           style="fill:#ffaaaa;fill-opacity:1" />
        <path
           d="m 341.75,448.11 c -0.69,-3.95 1.09,-6.56 5,-7.4 3.91,-0.84 6.63,0.82 7.61,4.71 1.28,5.07 1.93,7.6 3.21,12.67 1,3.89 -0.92,6.78 -5.47,7.75 -4.55,0.97 -7.45,-0.9 -8.13,-4.86 -0.88,-5.15 -1.33,-7.72 -2.22,-12.87 z m 6.78,12.28 c 0.35,1.76 1.4,2.25 2.85,1.94 1.45,-0.31 2.2,-1.18 1.8,-2.93 -1.2,-5.29 -1.8,-7.94 -3,-13.23 -0.4,-1.75 -1.37,-2.22 -2.67,-1.95 -1.3,0.27 -2,1.11 -1.64,2.87 z"
           class="cls-1"
           id="path981"
           style="fill:#ffaaaa;fill-opacity:1" />
        <path
           d="m 363.19,439.94 c 3.1,-1 3.31,-2.64 3.36,-4.45 1.05,-0.36 1.58,-0.55 2.63,-0.93 3.45,9.43 5.18,14.15 8.64,23.58 -1.8,0.66 -2.7,1 -4.5,1.58 -2.46,-7.26 -3.68,-10.89 -6.14,-18.15 -1.25,0.43 -1.88,0.64 -3.14,1 z"
           class="cls-1"
           id="path983"
           style="fill:#ffaaaa;fill-opacity:1" />
        <path
           d="m 391.63,443.48 1,2.1 a 2.43,2.43 0 1 0 4.34,-2.17 c -1,-2 -1.52,-3 -2.54,-4.91 -0.82,-1.59 -1.93,-1.78 -3.2,-1.14 -1.27,0.64 -1.79,1.63 -1,3.25 l 0.33,0.68 c -1.55,0.75 -2.33,1.11 -3.89,1.82 -2.11,-5.44 -3.18,-8.15 -5.34,-13.57 4,-1.84 6,-2.83 9.88,-5 0.69,1.26 1,1.89 1.71,3.15 -2.62,1.43 -3.95,2.12 -6.62,3.42 0.93,2.21 1.39,3.32 2.31,5.54 a 4.45,4.45 0 0 1 2.62,-3.36 c 2.88,-1.47 5.3,-0.5 7.08,2.74 L 401,441 c 1.94,3.52 0.89,6.76 -3.36,8.89 -4.25,2.13 -7.45,1 -9.11,-2.64 l -0.86,-1.89 c 1.6,-0.75 2.39,-1.12 3.96,-1.88 z"
           class="cls-1"
           id="path985"
           style="fill:#ffaaaa;fill-opacity:1" />
      </g>
    </g>
    <g
       id="g995"
       style="fill:#ffaaaa;fill-opacity:1">
      <polygon
         points="115.99,37.5 509.16,37.5 457.49,127 480.58,127 543.8,17.5 81.35,17.5 144.56,127 167.66,127 "
         class="cls-1"
         id="polygon991"
         style="fill:#ffaaaa;fill-opacity:1" />
      <polygon
         points="264.08,334 312.57,418 361.07,334 337.98,334 312.57,378 287.17,334 "
         class="cls-1"
         id="polygon993"
         style="fill:#ffaaaa;fill-opacity:1" />
    </g>
    <g
       id="g1001"
       style="fill:#ffaaaa;fill-opacity:1">
      <path
         d="M 518.64,127 A 231.92,231.92 0 0 0 493.72,88 l -7.85,6.19 a 222.67,222.67 0 0 1 21.5,32.81 z"
         class="cls-1"
         id="path997"
         style="fill:#ffaaaa;fill-opacity:1" />
      <path
         d="m 507.32,334 q -1.47,2.76 -3,5.47 a 222,222 0 0 1 -75.87,78.67 l 5.27,8.5 A 232.17,232.17 0 0 0 513,344.42 q 2.93,-5.15 5.58,-10.42 z"
         class="cls-1"
         id="path999"
         style="fill:#ffaaaa;fill-opacity:1" />
    </g>
  </g>
  <g
     id="g210">
    <g
       id="g196"
       style="fill:#570d2d;fill-opacity:1">
      <path
         d="M214.76,32.83l-4.44-9a231,231,0,0,1,202.19-1.14l-4.34,9a221,221,0,0,0-193.41,1.09Z"
         class="cls-1"
         id="path138"
         style="fill:#570d2d;fill-opacity:1" />
      <g
         id="g144"
         style="fill:#570d2d;fill-opacity:1">
        <path
           d="M120.84,339.47q-1.55-2.72-3-5.47H106.57q2.66,5.28,5.58,10.42a232,232,0,0,0,79.29,82.22l5.26-8.5A222,222,0,0,1,120.84,339.47Z"
           class="cls-1"
           id="path140"
           style="fill:#570d2d;fill-opacity:1" />
        <path
           d="M117.78,127a221.75,221.75,0,0,1,21.57-32.94l-7.85-6.2a231.18,231.18,0,0,0-25,39.14Z"
           class="cls-1"
           id="path142"
           style="fill:#570d2d;fill-opacity:1" />
      </g>
      <g
         id="g158"
         style="fill:#570d2d;fill-opacity:1">
        <path
           d="M198.23,116.53l-.38-.86-.29-.77-.58-1.73-.19-.86-.1-.87-.19-.86-.29-2.6v-1.82l.1-.87V102.6l.19-1.72.19-1,.1-.87.19-.77.19-.86.29-1,.39-1.06.57-1.92.39-1.06.38-.86.39-.77.38-.86.38-.77.39-.87.48-.76.48-.68,1-.57,1.06-.29.86.09.77.29.77.48.76.77.49,1.06v.86l-.49,1.15-.47,1.25-.29.58-.39,1-.38.77-.29.86-.19.87-.29,1.15-.29,1.25-.19.86-.1.87-.19.86-.09.87v.76l-.2,1.73v.87l.1,1v1.73l.1.86.19.87.19,1.24.29,1.54.38,1.25.29.86.77,1.54.58.77.47.58.58.67,1.35,1.15.67.48.77.38.86.29,1.25.29,1.15.19.87.2h2.49l.87-.2.86-.09.87-.29,1-.39.77-.38,1.44-.86.77-.48,1.35-1,1.92-1.93.57-.67.48-.67.48-.77.58-.86.38-.48,1.06-1.54.38-.67.48-.77.39-.86.48-.87.67-1.44L233,105l.38-.77.1-.77-.29-.39-.57-.19-.87-.09-1-.1-.86-.19-.77-.19-.87-.29-.86-.19-.77-.29-.77-.39-2.3-.86-1.06-.38-2.88-1.73-.77-.48-1.44-1-.67-.58-3.65-3.65-.48-.67-.58-.67-1-1.45-.38-.67-.39-.86-.77-1.54-.38-1.06-.38-1-.29-1-.39-1.05-.28-.87-.2-1.73-.09-1V78.5l-.19-1.92.09-.87.1-1,.09-.57.2-1.06L208,72l.38-1.25.29-.87.48-1.15.48-1.06.38-.86.48-.67,1.16-1.35.57-.57L213.6,63l1.05-.76L216,61.5l2.69-1.35.86-.29,1.25-.28,1.15-.29,1-.19,1.16-.1h2.21l1.53.19,1.92.1,1.16.19,1.25.29.86.38,1.73.58,1.05.57,1.64,1,1,.57.67.48.67.58,1.15,1.34.49.68.48.76.48.68.38.76.38.87.77,1.54.29.76.29.87.38,1.73.19,1.25.29,1.15.1,1,.1.58.09,1,.1.87v.86l.19,1.73v.86l-.1,1-.09.87-.19.77v1l-.1.58v1.06l-.19.86L245,90.5l-.19,1.25-.19,1-.1.87-.09.76-.19.87-.29.86v1.06l.57.58h1.06l.87-.2,1.05-.28.58-.2,1.82-.48,1.06-.38,1.25-.48,1-.38.87-.49.58-.28.86-.48.86-.39.77-.09.48.38.1.86-.19.77-.29.87-.39.77-.57.57-.77.48-1,.39-.48.28-1.73.87-.86.38-.77.29-1,.39-.58.19-1,.48-.77.29-.77.19-.86.19-1,.29-1,.19-.87.1-.76.19-.58.48L241,105l-.29.86L240.2,107l-1.44,2.88-.29.48-.48.87-.38.86-1,1.54-.38.48-.58.86-.48.68L234.06,117l-.48.77-.58.67-.67.58-.68.67-.57.48-1.25,1.25-1.34,1.15-.77.48-1.06.58-1.15.67-.87.48-.76.39-.87.28-.77.2-.86.28-.87.2-.86.28-1,.1-.58.1-1,.09-.86.1H213.6l-1.15-.19-1.06-.1L209,126l-1.15-.29-.87-.29-.77-.28-.86-.49-1.92-1.34-.77-.67-.58-.58-.67-.57-.58-.58-.57-.77-.67-1-.58-1.06-.48-.86Zm17.1-39.86v2.6l.09,1,.2.86.09.86.58,1.73.29.77.38.87.38.76.48.68.48.86.39.77,1.15,1.34.67.68.39.48,1.34,1.34.67.58.77.57.68.48.76.48.68.48,1,.49.57.19,1.06.48.58.19,1,.38,2.4.77,1,.19.86.2.77-.1.67-.67.39-1.06.57-2.59.19-1.25.1-1.15.1-1,.29-2.6v-.86l.19-1.15V80.13l-.1-1.15-.09-1-.2-1.16-.19-1.24-.38-1.73-.29-.87-.48-1.15-.39-1.06-.38-.86-.48-.77-.48-.67-.48-.48-.58-.67-.76-.58-.68-.48-.77-.38-.86-.39-1.25-.29L227,65.05,225.8,65l-1,.1-1.25.19-1.44.48-1.44.77-1.35.87-1.15,1-.87,1-.38.77-.48,1.15L216,72.73,215.71,74l-.19,1Z"
           class="cls-1"
           id="path146"
           style="fill:#570d2d;fill-opacity:1" />
        <path
           d="M275.16,91.85l-.76.38-.68.39-.67.48-.77.57-.67.58-1.54,1.06-.67.48-.67.57-.67.67-1.16,1.35-.67.67-1.15,1.35-1,1.53-.58.77L262.39,105l-1.06,3.17-.28,1.24-.39,1.44-.38,1.25-.58,2.6-.38,1.24-.39,1.45-.28,1.24-.29.87-.29,1.25-.19,1-.29,1-.1.87-.19.77-.29.77-.57.48-.87.28-.86.1-1.25.1L252,126l-1.25-.19-.77-.39-.58-.86-.09-1.06.19-1,.29-1.25.29-1.15.19-.86.29-.87.19-.86.29-.77.29-.87.19-.86.19-.77.19-.86.29-.87.29-.77.38-1.72.19-.77.1-.87.29-.86.19-.87.29-.86.29-1.15.38-1.25.48-1.73.19-.77.2-.86.28-.87.2-.86.28-.77.2-.86.28-.87.29-1.25.29-1.15.19-.86.58-1.73.19-.77.29-.87.38-1.72.68-1,1.24-.67,1.54-.19,1.54.19,1.44.48,1,1,.19,1.16-.19,1-.19.67-.29.86-.19.87-.29.77-.19.86-.29.86-.19.87-.1.58.1.09.38-.48.58-.67.48-.67,1.15-1.35.67-.57,1.25-1.06.67-.58,1.25-1.25,1.92-1.53.77-.48.77-.39.77-.48.77-.29.86-.28,1.25-.29,1.15-.19h2.21l1.54.19,1.05.19.87.38.86.48.67.68.48.67.48.77.39.77.29.86.29,1.15.19,1.16v1.82l-.1.87v.86l-.09.77-.2.86-.19,1-.19.58-.29,1-.29,1.25L287,103l-.39,1.25-.28.86-.29,1.25-.39,1.63-.38,1.54-.38,1.34-.2.87-.19.67-.19.87-.29.86-.19.77-.58,2.59-.09.87v1.72l.38.77.67.48.87.1.86-.29.87-.38.76-.48.68-.48.77-.58,1.24-1.25.48-.67.58-.77.48-.67.67-.77.48-.67.58-.87.86-1.44.58-.86.29-.48.57-.87.48-.86.77-1.54.39-.86.29-.77L298,105l.48-.77.87-.58,1.25.29.76,1v1l-.28.86-.39.77-.38.87-.39.77-.48.76-.38.77-.58.87-.28.57-1,1.73-.19.58-.48.86-1,1.54-.57.86-.39.48-.57.77-.68.87-.57.67-1.06,1.15-.58.67-1.34,1.16-.58.57-.76.58-.77.48-1.54.77-.77.29-.86.28-.87.2-.77.09-1,.1h-.86l-.86-.1-.77-.19-.87-.29-.77-.29-.76-.48-.58-.48-.58-.67-.38-.86-.29-.77-.19-.87-.19-.76v-2.12l.19-1.25.09-1,.29-1.25.87-3.16.29-1.64L277,109l.38-1.54.39-1.25.29-.86.38-1.25.38-1.54.29-1.53.39-1.25.38-1.73.1-.86.38-1.83.1-.86-.19-1-.58-1-.87-.87-.86-.29-.86-.09-.87.09Z"
           class="cls-1"
           id="path148"
           style="fill:#570d2d;fill-opacity:1" />
        <path
           d="M327,79.65l-.48.86-.77,1.54-.48,1.06-.67,1-.48.68-.48.76-.48.68-.48.86-.39.58-.48.77-.67.86-.86,1-.87.87-.38.48-.67.76-1.25,1.25-.58.67L315.5,95.5l-.67.57-.77.77-1.05.77-1.44,1.25-.77.48-2.11,1.34L308,101l-.77.48-1.05.87-.67.86-.39.77-.19,1.06-.29,1.72v.58l-.19,1-.19.87-.1,1v2l-.09,1.25v1.92l.19,1.06.09.58.2,1,.38.86.38.77.58.67.77.48.77.29,1,.19H310l.77-.09.86-.29,1.16-.48,1.05-.58.77-.58,1-.76.87-.87,1.15-1.06.77-.67L319,115l.39-.48.57-.76.39-.68.57-.86.39-.48.57-.87.77-1.44.48-.76.58-.87.48-.86.48-1,.86-1.25,1-.77,1.25.19.77,1v1l-.29.87-.38.76-.48.77-.39.87-.38.77-.29.76-.48.77-.38.68-.48.76-.58.87-.19.48-.48.86-.58.77-1,1.35-.67.86-.39.38-.67.87-.57.67-.77,1-.87.77-.67.67-.57.48-.68.58-.86.48-.77.38-.86.39-.77.38-.77.29-.87.38-1.15.39-1.92.38-1.15.1-1.06-.1h-.57l-1-.09-.87-.2-.77-.28-.86-.29-.77-.39-.77-.48-.67-.57-.58-.58-.57-.67-.39-.77-.38-.86-.29-.77-.19-.87-.29-.86-.1-.87-.19-1v-.57l-.19-1.06-.1-.86v-.87l.1-.86.1-1v-.58l.09-1.25.29-2.11.1-1.15v-.87l.19-.86.19-1,.67-3.17.29-1.15.29-1.73.19-.48.29-1.16.19-.57.39-1.44.28-1.25.2-.87.28-1.15.39-1.34.09-.68.39-1.34.38-1.25.29-.67.38-1.25.39-1.15.38-.87,1-2.49.2-.58.57-1.35.67-1.53.48-1.15.39-.87.29-.57.48-.87.67-1.63.48-1,.48-.87.58-.86.76-1.25L311.66,66l.58-.77L313.49,64l.38-.48.67-.67.68-.48,1.53-1.06,1.06-.67,1.06-.48.86-.29.87-.19h1.72l1,.19.58.1,1,.29.77.38,1.34,1.16.48.76.68,1,.48,1.16.38.86.38,1.15.2,1.25v1.73l-.2,2.59L329,74l-.29.77-.19,1L327.7,78l-.38.77Zm-15.94,2.69-1.35,4-.19.87-.29.86-.38,1.25-.67,2-.29,1-.1.57-.29,1-.29.87-.19,1,.19.58.58-.39,1-.77,3.94-3.93.48-.68.48-.77.58-.86.38-.38.58-.87.67-.86.67-1,.67-1.06.48-.77.39-.67.48-.67.77-1.54.38-1,.29-.58.38-1,.39-.86.19-.87.29-.86.29-1.06.38-1,.29-1.06.38-1.06.1-1,.09-.86V68.12l-.19-.76-.29-.77-.67-.48-.77-.19-.86.19-.87.67-.67.58-.48.57-.48.67-.48.77-1,1.44-.48.87-.38.86-.39.77-.38.87-.39.76-.38.87-.29.77-.38,1-.58,1.44-.38.87Z"
           class="cls-1"
           id="path150"
           style="fill:#570d2d;fill-opacity:1" />
        <path
           d="M348.16,105.1v1.06l-.29.86-.77,1.54-.86,1.44-.48.86-.39.77-.57.87-.29.57-.48.87-.48.77-.48.67-.58.77-.48.67-1,1.54-1.73,2-1.15,1.25-.67.67-.58.68-.67.57-2.11,1.64-.68.48-.86.38-.86.29-.77.19-1.73.38h-1.63l-1.06-.09-.77-.29-.86-.29-.77-.48-.67-.57-.48-.68-.48-.77-.39-.86-.19-.77-.19-.86-.1-.87v-.86l.19-1.73.2-.86.28-.87.39-1.73.29-.77.19-.86.29-.87.28-.76.87-2.6.09-.77.2-.86.28-.86.2-.87.19-.77.57-1.73.29-1.15.29-1.25.58-1.73.19-.86.19-.67.19-.87.39-1,.29-.77.57-2.59.29-.86.29-1.16.38-1.24.29-.87.39-.77.57-.48.87-.38.76-.1,1,.1,1.73.19,1.54.58.48.67v.86l-.19.87-.29,1.15-.29,1.25-.57,1.73-.2.77-.19.86-.29,1L335.39,97l-1,2.89-.19.86-.38,1.25-.67,2-.2.86-.19.77-.19.86-.67,1.64-.19.86-.68,2.4-.57,1.73-.2.86-.28,1.25-.29,1.54-.19,1.63.19,1.44.77,1.06,1.05.29.87-.1.86-.38.67-.48.77-.58,3.17-3.17.58-.67.48-.67.58-.77,1-1.54.57-.67.39-.58.48-.77.57-.86.39-.86.77-1.64,1.15-2.3.48-.77.86-.48,1.25.19ZM332.7,75.62l.48-.77.76-.67.77-.49,1-.28.87-.2h1l.86.2.77.48.67.57.68.68.48.76.28.87.1.86v1l-.29.87-.48.77L340,81l-.68.58-.77.58-.86.38-1,.19-.86-.09-1-.2-1.54-1-.58-.67-.48-.77-.19-.86-.1-.87.1-.86.19-1Z"
           class="cls-1"
           id="path152"
           style="fill:#570d2d;fill-opacity:1" />
        <path
           d="M365.93,91.85l-.77.38-.67.39-.67.48-.77.57-.68.58-1.53,1.06-.67.48-.68.57-.67.67-1.15,1.35-.67.67-1.16,1.35-1,1.53-.57.77L353.15,105l-1,3.17-.29,1.24-.38,1.44-.39,1.25-.57,2.6-.39,1.24-.38,1.45-.29,1.24-.29.87-.29,1.25-.19,1-.29,1-.09.87-.2.77-.28.77-.58.48-.86.28-.87.1-1.25.1-1.44-.1-1.25-.19-.77-.39-.57-.86-.1-1.06.19-1,.29-1.25.29-1.15.19-.86.29-.87.19-.86.29-.77.29-.87.19-.86.19-.77.19-.86.29-.87.29-.77.39-1.72.19-.77.09-.87.29-.86.19-.87.29-.86.29-1.15.38-1.25.48-1.73.2-.77.19-.86.29-.87.19-.86.29-.77.19-.86.29-.87.29-1.25.28-1.15.2-.86.57-1.73.19-.77.29-.87.39-1.72.67-1,1.25-.67,1.53-.19,1.54.19,1.44.48,1,1,.19,1.16-.19,1-.19.67-.29.86-.19.87-.29.77-.19.86-.29.86-.19.87-.1.58.1.09.38-.48.58-.67.48-.67,1.15-1.35.67-.57L360,91.08l.68-.58,1.24-1.25,1.93-1.53.76-.48.77-.39.77-.48.77-.29.86-.28,1.25-.29,1.15-.19h2.21l1.54.19,1.06.19.86.38.87.48.67.68.48.67.48.77.38.77.29.86.29,1.15.19,1.16v1.82l-.1.87v.86l-.09.77-.19.86-.2,1-.19.58-.29,1-.28,1.25-.39,1.44-.38,1.25-.29.86-.29,1.25L376.4,108l-.39,1.54-.38,1.34-.19.87-.2.67-.19.87-.29.86-.19.77-.57,2.59-.1.87v1.72l.38.77.68.48.86.1.87-.29.86-.38.77-.48.67-.48.77-.58L381,118l.48-.67.57-.77.48-.67.68-.77.48-.67.57-.87.87-1.44.57-.86.29-.48.58-.87.48-.86.77-1.54.38-.86.29-.77.29-.86.48-.77.86-.58,1.25.29.77,1v1l-.29.86-.38.77-.39.87-.38.77-.48.76-.39.77-.57.87-.29.57-1,1.73-.19.58-.48.86-1,1.54-.58.86-.38.48-.58.77-.67.87-.58.67-1.06,1.15-.57.67-1.35,1.16-.57.57-.77.58-.77.48-1.54.77-.76.29-.87.28-.86.2-.77.09-1,.1h-.87l-.86-.1-.77-.19-.86-.29-.77-.29-.77-.48-.58-.48-.57-.67-.39-.86-.29-.77-.19-.87-.19-.76v-2.12l.19-1.25.1-1,.29-1.25.86-3.16.29-1.64.38-1.63.39-1.54.38-1.25.29-.86.38-1.25.39-1.54.29-1.53.38-1.25.38-1.73.1-.86.38-1.83.1-.86-.19-1-.58-1-.86-.87-.87-.29-.86-.09-.87.09Z"
           class="cls-1"
           id="path154"
           style="fill:#570d2d;fill-opacity:1" />
        <path
           d="M419.71,102.8l-.48.67-1.15,1.34L416.74,106l-.68.48-.86.48-.58.19-1,.57-.57.29-.87.39-1,.29-.86.28-.87.1-1,.19-1.05.1-1.16.19-.86.1h-.87l-1.72-.2-1.73-.09-.87-.1-2.59-.57h-.67l-.48.38-.2.67v.87l-.09,1v1.63l.09,1,.2.77.57,1.73,1,1.53.58.68.58.57,1.53,1,1,.29.87.29.67.1.86.19.87.09h1l.86-.09,2.5-.48.87-.2.86-.28.77-.29,1.63-.67,1.54-.77,1.34-1.06L417,117l.68-.58,1.34-1.24,1.15-1.35.48-.67.58-.77,1-1.34.48-.77.39-.77.48-.77.38-.77.48-.67.38-.77.39-.86.38-.77.48-.77.68-.48h.86l.86.58.48.86-.09.87-.39.86-.48,1.06-.57,1-.48,1.06-.58,1.06-.58,1-1,1.53-.28.58-.58.86-1,1.35-.58.67-.57.58-.58.67-.67.77-.29.38-.67.77-.58.67L417.7,122l-1,.76-.87.77-1.53,1-2.41,1.06-.76.29-.87.29-1.25.19-1.15.29-2,.19-1.25.09-1.05.1h-.87l-3.45-.38-.77-.2-.87-.28-.86-.39-.77-.38-1.54-.87-.76-.38-.68-.58-.67-.67-.38-.48-.68-.77-.57-.67-.48-.77-.39-.67-.38-.87-.29-.76-.29-.87-.19-.86-.19-.77-.19-.87-.29-2.59V110.1l.09-.87v-.86l.58-2.6L389,105l.19-.87.29-.86.19-.87.29-.86.38-1.06.48-1.15.48-.87.58-1,.67-1,.39-.87.48-.67.57-.67,1.44-1.54,1.45-1.44.76-.67.87-.67,1-.68.86-.67,1-.57,1-.48.87-.39,1.25-.58,2-.67,1.73-.38,1.25-.19h2.11l1.25.19,1.54.29,1.25.28.86.29.87.39.76.38.58.39,1.35,1.15.57.67.58,1,.48,1.15.29.87.19.86.09.87v1.15L422,96.46l-.1,1-.29,1.15-.38,1.15-.38,1-.29.48-.48.87ZM408,91.27l-1.35.58-1.15.57-.77.48-1.34,1.16-.87.86-.77.87-.67.76-.67,1.06-.67,1-.48.86-.58,1.06-.38,1.15-.39.87-.29.77-.09.67.48.48,1.25.29,1.92.09,1,.1h2.69l1-.19.86-.19,1-.39.58-.19,1-.48.67-.48.67-.58.68-.67.67-.58.57-.76.48-.68.39-.77.48-.86.58-1.73.19-1,.09-.86-.09-1-.39-.87-.57-.67-.77-.58-.87-.38-.86-.19-.86-.1-1,.19Z"
           class="cls-1"
           id="path156"
           style="fill:#570d2d;fill-opacity:1" />
      </g>
      <g
         id="g176"
         style="fill:#570d2d;fill-opacity:1">
        <path
           d="M72.42,188.94v5.5c0,15.85-4.84,26-15.63,31,13,5.06,18.05,16.73,18.05,33v12.55c0,23.77-12.55,36.54-36.76,36.54H0V153.5H36.54C61.63,153.5,72.42,165.17,72.42,188.94ZM24.21,175.51v40.72h9.47c9,0,14.53-4,14.53-16.28v-8.59c0-11-3.75-15.85-12.33-15.85Zm0,62.74v47.32H38.08c8.15,0,12.55-3.74,12.55-15.18V257c0-14.31-4.62-18.71-15.63-18.71Z"
           class="cls-1"
           id="path160"
           style="fill:#570d2d;fill-opacity:1" />
        <path
           d="M87.39,190.48c0-24.65,13-38.74,36.76-38.74s36.76,14.09,36.76,38.74v80.13c0,24.65-13,38.74-36.76,38.74s-36.76-14.09-36.76-38.74Zm24.21,81.67c0,11,4.84,15.19,12.55,15.19s12.55-4.19,12.55-15.19V188.94c0-11-4.85-15.19-12.55-15.19s-12.55,4.18-12.55,15.19Z"
           class="cls-1"
           id="path162"
           style="fill:#570d2d;fill-opacity:1" />
        <path
           d="M199.65,153.5V272.37c0,11,4.85,15,12.55,15s12.55-4,12.55-15V153.5h22.89V270.83c0,24.65-12.33,38.74-36.1,38.74s-36.1-14.09-36.1-38.74V153.5Z"
           class="cls-1"
           id="path164"
           style="fill:#570d2d;fill-opacity:1" />
        <path
           d="M257.11,153.5H332v22H306.63V307.59H282.42V175.51H257.11Z"
           class="cls-1"
           id="path166"
           style="fill:#570d2d;fill-opacity:1" />
        <path
           d="M342.51,153.5h24.21V307.59H342.51Z"
           class="cls-1"
           id="path168"
           style="fill:#570d2d;fill-opacity:1" />
        <path
           d="M382.35,190.48c0-24.65,13-38.74,36.76-38.74s36.76,14.09,36.76,38.74v80.13c0,8.58-1.54,15.84-4.62,21.57,1.1,2.86,2.86,3.3,6.82,3.3h2.21v21.57H457c-10.78,0-17.61-4-20.91-10.56a49.64,49.64,0,0,1-16.95,2.86c-23.77,0-36.76-14.09-36.76-38.74Zm24.22,81.67c0,11,4.84,15.19,12.54,15.19s12.55-4.19,12.55-15.19V188.94c0-11-4.84-15.19-12.55-15.19s-12.54,4.18-12.54,15.19Z"
           class="cls-1"
           id="path170"
           style="fill:#570d2d;fill-opacity:1" />
        <path
           d="M494.62,153.5V272.37c0,11,4.84,15,12.54,15s12.55-4,12.55-15V153.5H542.6V270.83c0,24.65-12.32,38.74-36.1,38.74s-36.1-14.09-36.1-38.74V153.5Z"
           class="cls-1"
           id="path172"
           style="fill:#570d2d;fill-opacity:1" />
        <path
           d="M583.33,218.44h33.23v22H583.33v45.12h41.82v22h-66V153.5h66v22H583.33Z"
           class="cls-1"
           id="path174"
           style="fill:#570d2d;fill-opacity:1" />
      </g>
      <g
         id="g194"
         style="fill:#570d2d;fill-opacity:1">
        <path
           d="M232.18,435.63c2.18,1.13,3.27,1.67,5.48,2.72l-1.53,3.24c-2.26-1.07-3.38-1.62-5.6-2.77l-3.38,6.53c2.92,1.51,4.39,2.23,7.35,3.6L233,452.21c-4.76-2.21-7.12-3.4-11.76-5.95l12.09-22c4,2.22,6.08,3.25,10.21,5.16l-1.5,3.26c-2.68-1.24-4-1.89-6.64-3.25C234.1,431.9,233.46,433.15,232.18,435.63Z"
           class="cls-1"
           id="path178"
           style="fill:#570d2d;fill-opacity:1" />
        <path
           d="M258.19,435.05c3.8,1.33,5.09,4.1,3.9,7.94l-.23.75c-1.55-.48-2.33-.73-3.87-1.25l.33-1c.57-1.7.06-2.58-1.21-3s-2.22-.07-2.83,1.62c-1.77,4.85,6.11,8.53,4,15.38-1.19,3.84-4.2,5.36-8.62,3.8s-5.85-4.62-4.38-8.36l.57-1.44c1.62.64,2.43.95,4.06,1.55l-.62,1.68a2.4,2.4,0,1,0,4.52,1.59c1.65-4.89-6.25-8.81-3.63-15.49C251.64,435.06,254.4,433.72,258.19,435.05Z"
           class="cls-1"
           id="path180"
           style="fill:#570d2d;fill-opacity:1" />
        <path
           d="M272.24,439.58c4.93,1.25,7.42,1.77,12.41,2.63-.24,1.42-.37,2.12-.61,3.54-1.73-.3-2.59-.46-4.31-.8l-4.2,21.11c-1.86-.37-2.78-.56-4.63-1l4.73-21c-1.71-.39-2.56-.59-4.27-1Z"
           class="cls-1"
           id="path182"
           style="fill:#570d2d;fill-opacity:1" />
        <path
           d="M293.27,464.91l-.4,3.78c-1.8-.19-2.71-.3-4.51-.53.2-1.51.29-2.26.49-3.77C290.61,464.62,291.5,464.72,293.27,464.91Z"
           class="cls-1"
           id="path184"
           style="fill:#570d2d;fill-opacity:1" />
        <path
           d="M325.25,447.42c-1.32.1-2.11.83-2,2.62.07,1.07.1,1.61.17,2.69-1.62.1-2.43.14-4.06.2,0-1-.05-1.46-.09-2.43-.16-4,1.83-6.36,5.82-6.66s6.32,1.7,6.77,5.69c.89,7.85-7.71,11.56-7.44,15.68a2.33,2.33,0,0,0,.07.53c3.49-.22,5.23-.37,8.71-.76.16,1.43.24,2.14.39,3.57-5.41.6-8.13.8-13.57,1l-.12-3.09c-.29-7.38,8.4-9.16,7.76-16.38C327.46,447.85,326.57,447.32,325.25,447.42Z"
           class="cls-1"
           id="path186"
           style="fill:#570d2d;fill-opacity:1" />
        <path
           d="M341.75,448.11c-.69-3.95,1.09-6.56,5-7.4s6.63.82,7.61,4.71c1.28,5.07,1.93,7.6,3.21,12.67,1,3.89-.92,6.78-5.47,7.75s-7.45-.9-8.13-4.86C343.09,455.83,342.64,453.26,341.75,448.11Zm6.78,12.28c.35,1.76,1.4,2.25,2.85,1.94s2.2-1.18,1.8-2.93c-1.2-5.29-1.8-7.94-3-13.23-.4-1.75-1.37-2.22-2.67-1.95s-2,1.11-1.64,2.87Z"
           class="cls-1"
           id="path188"
           style="fill:#570d2d;fill-opacity:1" />
        <path
           d="M363.19,439.94c3.1-1,3.31-2.64,3.36-4.45,1.05-.36,1.58-.55,2.63-.93,3.45,9.43,5.18,14.15,8.64,23.58-1.8.66-2.7,1-4.5,1.58-2.46-7.26-3.68-10.89-6.14-18.15-1.25.43-1.88.64-3.14,1Z"
           class="cls-1"
           id="path190"
           style="fill:#570d2d;fill-opacity:1" />
        <path
           d="M391.63,443.48l1,2.1a2.43,2.43,0,1,0,4.34-2.17c-1-2-1.52-3-2.54-4.91-.82-1.59-1.93-1.78-3.2-1.14s-1.79,1.63-1,3.25l.33.68c-1.55.75-2.33,1.11-3.89,1.82-2.11-5.44-3.18-8.15-5.34-13.57,4-1.84,6-2.83,9.88-5,.69,1.26,1,1.89,1.71,3.15-2.62,1.43-3.95,2.12-6.62,3.42.93,2.21,1.39,3.32,2.31,5.54a4.45,4.45,0,0,1,2.62-3.36c2.88-1.47,5.3-.5,7.08,2.74L401,441c1.94,3.52.89,6.76-3.36,8.89s-7.45,1-9.11-2.64l-.86-1.89C389.27,444.61,390.06,444.24,391.63,443.48Z"
           class="cls-1"
           id="path192"
           style="fill:#570d2d;fill-opacity:1" />
      </g>
    </g>
    <g
       id="g202"
       style="fill:#570d2d;fill-opacity:1">
      <polygon
         points="167.66 127 115.99 37.5 509.16 37.5 457.49 127 480.58 127 543.8 17.5 81.35 17.5 144.56 127 167.66 127"
         class="cls-1"
         id="polygon198"
         style="fill:#570d2d;fill-opacity:1" />
      <polygon
         points="337.98 334 312.57 378 287.17 334 264.08 334 312.57 418 361.07 334 337.98 334"
         class="cls-1"
         id="polygon200"
         style="fill:#570d2d;fill-opacity:1" />
    </g>
    <g
       id="g208"
       style="fill:#570d2d;fill-opacity:1">
      <path
         d="M518.64,127a231.92,231.92,0,0,0-24.92-39l-7.85,6.19A222.67,222.67,0,0,1,507.37,127Z"
         class="cls-1"
         id="path204"
         style="fill:#570d2d;fill-opacity:1" />
      <path
         d="M507.32,334q-1.47,2.76-3,5.47a222,222,0,0,1-75.87,78.67l5.27,8.5A232.17,232.17,0,0,0,513,344.42q2.93-5.15,5.58-10.42Z"
         class="cls-1"
         id="path206"
         style="fill:#570d2d;fill-opacity:1" />
    </g>
  </g>
</svg>
