<svg id="Layer_1" data-name="Layer 1" xmlns="http://www.w3.org/2000/svg" viewBox="0 0 20 20">
  <defs>
    <style>
      .cls-1 {
        fill: #605f64;
      }
    </style>
  </defs>
  <title>Hipster</title>
  <g>
    <path class="cls-1" d="M10.28,9.21c-1.64-.43-2.16-.87-2.16-1.56s.72-1.33,2-1.33,1.76.61,1.8,1.51h1.6a2.88,2.88,0,0,0-2.32-2.75V3.5H9V5.06A2.82,2.82,0,0,0,6.45,7.67c0,1.67,1.38,2.5,3.4,3,1.8.43,2.16,1.07,2.16,1.74,0,.5-.35,1.29-1.95,1.29S8,13,7.91,12.17H6.32A3,3,0,0,0,9,14.93V16.5h2.17V15c1.41-.27,2.53-1.09,2.53-2.57C13.68,10.33,11.92,9.63,10.28,9.21Z"/>
    <path class="cls-1" d="M10,2a8,8,0,1,1-8,8,8,8,0,0,1,8-8m0-2A10,10,0,1,0,20,10,10,10,0,0,0,10,0Z"/>
  </g>
</svg>
