<svg id="Layer_1" data-name="Layer 1" xmlns="http://www.w3.org/2000/svg" viewBox="0 0 316.16 60">
  <defs>
    <style>
      .cls-1 {
        fill: #4cc8c6;
      }

      .cls-2 {
        fill: #fff;
      }
    </style>
  </defs>
  <title>Hipster</title>
  <g>
    <g>
      <path class="cls-1" d="M28.65,5.77A22.07,22.07,0,1,1,6.58,27.84,22.09,22.09,0,0,1,28.65,5.77m0-5.77A27.84,27.84,0,1,0,56.48,27.84,27.83,27.83,0,0,0,28.65,0Z"/>
      <path class="cls-1" d="M47.3,16.15,28.65,48.46,10,16.15H47.3m10-5.77H0L28.65,60,57.29,10.38Z"/>
    </g>
    <g>
      <path class="cls-2" d="M76.11,20.82c0-5.61,3-8.82,8.38-8.82s8.37,3.21,8.37,8.82V39.08c0,5.61-3,8.82-8.37,8.82s-8.38-3.21-8.38-8.82Zm5.52,18.61c0,2.5,1.1,3.46,2.86,3.46s2.85-1,2.85-3.46v-19c0-2.5-1.1-3.46-2.85-3.46s-2.86,1-2.86,3.46Z"/>
      <path class="cls-2" d="M101.33,22.08V47.5h-5V12.4h6.92l5.66,21v-21h4.92V47.5H108.2Z"/>
      <path class="cls-2" d="M117.82,12.4h5.52V42.48h9.08v5h-14.6Z"/>
      <path class="cls-2" d="M134.82,12.4h5.52V47.5h-5.52Z"/>
      <path class="cls-2" d="M149.26,22.08V47.5h-5V12.4h6.92l5.66,21v-21h4.91V47.5h-5.66Z"/>
      <path class="cls-2" d="M171.27,27.19h7.57v5h-7.57V42.48h9.53v5H165.75V12.4H180.8v5h-9.53Z"/>
      <path class="cls-2" d="M191.22,12.4c5.12,0,6.77,2.56,6.77,7.27v2.26c0,3.91-1.05,6.27-5,6.87,4.16.6,5.72,3.46,5.72,7.52v3.11c0,5-2.11,8.07-7.42,8.07H184.2V12.4Zm-1.35,16c4.86,0,7-1.16,7-6.27V19.72c0-4.11-1.25-6.27-5.67-6.27h-5.91v14.9Zm1.41,18.1c4.61,0,6.31-2.61,6.31-7V36.27c0-5.07-2.4-6.92-7.22-6.92h-5.06v17.1Z"/>
      <path class="cls-2" d="M202.55,21c0-5.81,2.56-8.87,7.43-8.87s7.52,3.06,7.52,8.87V38.87c0,5.82-2.56,8.88-7.52,8.88s-7.43-3.06-7.43-8.88Zm1.11,17.91c0,5.16,2.15,7.82,6.32,7.82s6.41-2.66,6.41-7.82V21c0-5.17-2.2-7.83-6.41-7.83s-6.32,2.66-6.32,7.83Z"/>
      <path class="cls-2" d="M222.51,38.87c0,4.22,1.5,7.88,6.17,7.88s6.16-3.66,6.16-7.88V12.4h1.06V38.82c0,4.82-1.91,8.93-7.22,8.93s-7.27-4.11-7.27-8.93V12.4h1.1Z"/>
      <path class="cls-2" d="M246.63,47.5v-34H239v-1H255.4v1h-7.67V47.5Z"/>
      <path class="cls-2" d="M259.71,12.4V47.5h-1.1V12.4Z"/>
      <path class="cls-2" d="M278.66,21V38.87a10.14,10.14,0,0,1-1.9,6.47A3.33,3.33,0,0,0,280,47h.55v1H280a4.16,4.16,0,0,1-3.92-2,7,7,0,0,1-4.91,1.71c-5.36,0-7.47-4-7.47-8.88V21c0-4.91,2.11-8.87,7.47-8.87S278.66,16.11,278.66,21Zm-13.89,0v18c0,4.31,1.71,7.82,6.37,7.82s6.42-3.51,6.42-7.82V21c0-4.32-1.76-7.83-6.42-7.83S264.77,16.66,264.77,21Z"/>
      <path class="cls-2" d="M285.43,38.87c0,4.22,1.5,7.88,6.17,7.88s6.16-3.66,6.16-7.88V12.4h1.06V38.82c0,4.82-1.91,8.93-7.22,8.93s-7.27-4.11-7.27-8.93V12.4h1.1Z"/>
      <path class="cls-2" d="M314.21,29.2v1H303.88V46.45h12.28v1H302.78V12.4h13.38v1H303.88V29.2Z"/>
    </g>
  </g>
</svg>
