<svg xmlns="http://www.w3.org/2000/svg" id="Layer_1" data-name="Layer 1" viewBox="0 0 226.6 144.39"><title>Hipster</title><g><g><polygon points="46.3 17.26 65.16 36.11 69.27 36.11 48.36 15.2 58.93 11.87 31.1 0 42.97 27.82 46.3 17.26"/><polygon points="157.33 36.11 161.44 36.11 180.3 17.26 183.63 27.82 195.49 0 167.67 11.87 178.24 15.2 157.33 36.11"/><polygon points="167.32 121.85 152.75 119.58 150.09 116.93 162.73 117.26 154.56 109.09 139.98 106.82 130.74 97.58 126.62 97.58 137.93 108.88 140.19 123.46 148.36 131.63 148.04 118.99 150.69 121.64 152.96 136.22 161.13 144.39 160.75 129.64 175.49 130.02 167.32 121.85"/><polygon points="95.86 97.58 86.62 106.82 72.04 109.09 63.87 117.26 76.5 116.93 73.85 119.58 59.27 121.85 51.1 130.02 65.85 129.64 65.47 144.39 73.64 136.22 75.91 121.64 78.56 118.99 78.23 131.63 86.4 123.46 88.67 108.88 99.98 97.58 95.86 97.58"/></g><g><g><path d="M89.85,13.15l-.29.25-.34.21-.29.21-.34.12-.37.13-.38.08-.34,0-.37,0-.8,0h-.71l-.42,0-.51-.09L84.15,14l-.38-.17-.33-.12-.34-.21-.59-.42-.29-.3L82,12.56l-.21-.33-.21-.3-.17-.33-.16-.38-.09-.38-.08-.33,0-.38V9.75l.12-1.13.09-.38.5-1,.42-.67.25-.26.59-.5.25-.17.33-.21L84,5.18,84.27,5l.34-.17L85,4.64l.5-.17L86,4.34l.37-.12.76-.17.38,0h.33l.76-.09h.79l.38.05h.38l.5,0,2.1.33.37,0,.42,0,.38.08h.38l1.09-.12.38-.09.42-.12.25-.09.42-.21.46-.25.46-.29L98.2,3l.16-.16.34-.3L99,2.29,99.29,2l.46-.13.42-.08h.33l.42,0,.42.08.34.17.33.29.13.38-.13.55L101.8,4l-.17.54-.29.88-.12.51-.13.42L101,6.9l-.12.5-.13.38-.08.34-.13.37-.12.55L100,10.21l-.25,1.14-.13.33-.12.38-.09.33-.12.38-.17.55L99,14l-.12.5-.13.42-.12.5-.13.55-.12.38-.09.33-.12.42-.13.5,0,.63.25.42.55.21.62.13.93.17,1.21.16.88.17.76.13.46.08.33,0,.26-.25.12-.3.09-.29.16-.76.13-.41.08-.51.17-.84.13-.5.08-.38.13-.37,0-.38.25-1.13.13-.38.08-.34.17-.75.12-.38.13-.33.08-.38,0-.38.13-.38.08-.37.09-.34.17-.38.25-.75.08-.34.09-.37.12-.38.13-.34.21-.37.12-.34.13-.38.12-.42.09-.21.12-.46.13-.33.21-.38.21-.29.42-.34.46-.17h.42l.38.09.41.08.38.08.34.17.29.25.13.34-.09.33-.16.38-.21.51-.42,1.25-.17.34-.13.38-.16.33-.13.38-.08.33-.13.38-.08.38-.26.75-.12.51-.17.5-.12.42-.13.34-.25,1.13-.13.37-.08.42,0,.25-.13.42-.08.38-.13.38-.08.38-.09.33-.08.38-.13.38-.08.42-.08.37-.09.3-.08.42-.13.54-.12.51-.05.33.13.17.34,0,.54-.08.67-.17.63-.21.8-.29.5-.21.38-.21.33-.26.42-.25,1.3-1,.42-.34.38-.08.29.08.21.25.09.34,0,.38-.21.46-.33.42-.59.5-.38.29-.16.17-.38.25-.29.25-.38.21-1,.51-.71.33-.38.17-.33.13-.46.12-.26,0-.42.09-.37.12-.42.09-.38.08-.33,0-.26.21-.12.3-.17.75-.13.38-.08.34-.08.37-.13.38-.08.34-.13.41-.12.51-.09.5-.12.38-.09.38-.12.37-.13.51-.17.54-.12.38-.13.33-.12.38-.17.55-.34.5-.59.29-.71.13-.67,0L101.8,31l-.46-.25-.17-.3,0-.5.16-.5.17-.38.17-.54.38-1.14.12-.42.17-.46.08-.5.13-.42.17-.5.25-.88.08-.34.13-.38.12-.54.05-.59-.26-.38-.5-.12-.25,0-1.09-.17-1.51-.25-.92-.21L98.24,21,98,21l-.55,0L97,21l-.17.3-.12.46,0,.25-.13.42-.08.37-.13.34-.12.38L96.1,24l-.08.25-.13.42-.13.38-.5,1-.17.38-.21.5-.25.5-.21.34-.46.71-.17.25-.21.3-.25.29-.25.25-.88.76-.34.21-.29.21-.38.17-.5.16-.5.13-.42.13-.38.08-.46,0h-.67l-.8,0-.38,0h-.33l-.38,0L86,31.18l-.29-.08L85.37,31,85,30.8l-.34-.21-.29-.21-.3-.25-.21-.29-.25-.3-.17-.33-.21-.34-.12-.33-.13-.38-.08-.38V27l.08-.76,0-.33.08-.38.12-.38.09-.33.12-.38.13-.34.17-.37.17-.34.21-.33.25-.34.5-.59.21-.29.25-.29.29-.3,1-.71.21-.13.38-.29L87.5,20l.34-.21.38-.12.33-.17L89.64,19l.34-.13.37-.12,1.14-.25,1.17-.13H93l.71,0,.34,0,.33-.21.13-.34.12-.5.13-.55.08-.37L95,16l.17-.34.08-.37.13-.38.12-.55.13-.67.17-.54.16-.38.13-.55.13-.5.12-.38.09-.37.12-.38.08-.34.13-.37.08-.34L97,9.12l.13-.54.12-.51.17-.75.21-.71.12-.38.09-.34.08-.25-.08,0-.21.13-.34.16L97,6.1l-.34.17-.33.21-.38.13-.38.08-.5.08-.54.05-.76,0h-.42l-.54,0-1.55-.17-.51,0-.33-.09H88.17l-.37.05-1.09.33L86.33,7,86,7.24l-.3.16-.29.21-.34.3-.29.29-.17.34-.17.37-.08.34-.08.38v.42l.08.33.17.38.21.29.29.3.3.21.33.21.38.12.38.08.37,0,.42,0,.38-.08.33-.12.38-.17.34-.17.33-.21.34-.17h.38l.37.17.3.34.21.37,0,.38-.16.34-.25.29Zm-.63,15.64.38-.13.67-.33.29-.3.51-.54.21-.29.25-.3.33-.67.21-.33.17-.34.13-.38.12-.33.17-.34.13-.38.12-.33.21-.76.13-.33.12-.38.17-.75,0-.46-.25-.3-.46,0-.75.17-.38,0-.34.08L91,21.2l-.34.13-.38.12-.67.34-.29.21-.34.25-.29.25-.29.21-.59.5-.21.3-.25.29-.21.38-.21.33-.13.25-.21.38-.16.5-.17.67V27l.12.71.34.54.54.38.63.21.59.08.42,0Z"/><path d="M122.85,29l-.58.5-.67.42-.34.17-.67.42-.34.17-.75.25-.42.13-.75.12-.26.09-.42.08-.33,0h-.38l-.46,0h-.38l-.75-.08-.46-.13-.38-.12-.29-.13-.38-.12-.34-.17-.67-.42-.29-.25-.5-.59-.21-.34-.17-.33-.21-.34-.25-.75-.17-.76-.08-.75,0-.42,0-.38V24.22l.08-.38.08-.33.09-.38.12-.76.09-.42.08-.37.13-.34.12-.38.17-.37.17-.34.12-.38.21-.5.26-.5.21-.34.25-.33.21-.3.25-.29.42-.67.25-.29.54-.55.59-.5.29-.21L116,15l.38-.26.46-.29.46-.25.33-.17.42-.17.26-.08.46-.17.25-.08.42-.13.38-.08.41,0,.38-.05h1l.67.09.54.08.38.09.38.12.33.17.76.46.46.25.29.25.21.26.25.29.25.33.51.93.12.37,0,.38,0,.34.17.75V19.9l-.09.5,0,.46,0,.42-.25,1.26-.17.59-.13.42-.17.42-.16.46-.13.38-.25.46-.38.75-.21.46,0,.3.34,0h.25l.46,0,.3-.05.37-.08.42-.17.3-.17.67-.41.29-.26.55-.54.5-.59.21-.29.21-.34.21-.29.33-.67.38-.71L131,22l.25-.37.38-.21.5.08.33.38.05.46-.13.38-.5,1-.21.3-.42.67L131,25l-.21.3-.25.33-.21.3-.25.25-.55.58-.25.26-.29.25-.3.21-.33.25-.29.17-.68.33-.37.17-.34.08-1.51.17-.46,0-.38,0-.33-.09-.34,0-.29.13-.29.21Zm-8.3-4.57,0,.5,0,.42,0,.55.09.67.17.67.29.63.29.42.34.29.46.21.63.17h.54l.42,0,.42-.09.38-.17.33-.16.38-.21.34-.21.29-.25.34-.26.16-.29v-.25l-.16-.29-.21-.34-.09-.38.09-.5.16-.5.3-.25.33-.21.38-.05.38.09.29.08.25,0,.17-.25.13-.34.5-1.51.25-1.13.09-.54.12-.72.09-1.42,0-.67-.16-.72-.26-.63-.29-.41-.33-.26-.51-.21-.63-.12-.54,0h-.42l-.34.08-.37.13-.42.25-.34.21-.38.25-.42.33-.29.26-.29.29-.21.29-.25.3-.21.33-.42.59-.21.33L115.35,21l-.13.38-.08.33-.25.76-.09.33-.12.38,0,.38V24Z"/><path d="M144.37,21.87v.46l-.17.42-.51.92-.16.38-.17.34-.42.67-.17.29-.21.34-.33.62-.17.3-.25.38-.51.58-.21.34-.2.29-.26.3-.79.79-.59.46-.59.51-.33.25-.46.25-.51.21-.37.17-.38.12-.34.09-.37,0h-1.18l-.38,0-.37-.09-.51-.16-.46-.21-.33-.21-.59-.51-.21-.29-.21-.34-.34-.67-.12-.33-.13-.38-.08-.38-.08-.33v-.38l0-.38v-.38l0-.41v-.38l.13-1.13V24l.21-1.89.08-.38,0-.37.17-.76.13-.54.12-.51.09-.37.12-.38.09-.38.12-.38.09-.37.08-.51.17-.54.25-.76v-.33l-.13-.21-.29-.08L132,15.2l-.42-.08-.41-.17-.3-.38-.08-.37,0-.42.08-.34.17-.29.29-.21.55,0,.63,0H133l.42-.13.17-.29.08-.42.09-.33.12-.38.17-.34.17-.38.13-.33.25-.76.17-.75.12-.38.17-.33.25-.76.13-.33.16-.38.13-.38.13-.33.12-.38.17-.34.17-.37.08-.34.13-.38.16-.37.21-.3.34-.21.38-.08.42,0,.5.08.54.13.38.21.34.29.12.47-.08.37-.21.55-.25.58-.21.55-.13.42-.08.25-.13.42-.46,1.38-.12.34-.13.38-.17.54-.25.63-.29.88-.09.38-.17.33-.12.34V13l.25.21.46.09h.42l.71-.05.59,0h1.3l.55,0,.29.26.08.46v.54l-.12.38-.21.29-.3.21-.37.13-.38.08-.42,0-1.13.05h-.46l-.38-.05H136.4l-.25.17-.13.34-.17.5-.16.67-.17.71-.21.68-.17.71-.17.67-.12.59,0,.25-.13.58-.13.47-.12.42-.17.75,0,.5-.09.55-.08.75v1.18l.08.54.09.51.12.37.17.38.21.29.46.3.59.25.46.08h.42l.46-.08,1-.5,1.17-1,.29-.29.21-.26.42-.54.55-.67.21-.29.17-.34.21-.34.25-.33.21-.29.21-.34.17-.34.12-.37.21-.42.21-.34.25-.42.5-.33.55.08Z"/></g><g><path d="M24.31,54.26v6.79c0,8.35-4,12.9-12.23,12.9H8.2V93.56H0V41.36H12.08C20.28,41.36,24.31,45.91,24.31,54.26ZM8.2,48.82V66.49h3.88c2.61,0,4-1.19,4-4.92V53.74c0-3.73-1.42-4.92-4-4.92Z"/><path d="M45.63,93.56c-.44-1.34-.74-2.16-.74-6.41V78.94c0-4.84-1.64-6.63-5.37-6.63H36.69V93.56H28.48V41.36H40.86c8.5,0,12.16,4,12.16,12v4.11c0,5.37-1.72,8.87-5.37,10.59,4.1,1.71,5.44,5.66,5.44,11.11v8a15.37,15.37,0,0,0,.9,6.34ZM36.69,48.82v16h3.2c3.06,0,4.92-1.34,4.92-5.52V54.19c0-3.73-1.26-5.37-4.17-5.37Z"/><path d="M57.79,53.89c0-8.35,4.4-13.13,12.45-13.13s12.45,4.78,12.45,13.13V81c0,8.35-4.4,13.12-12.45,13.12S57.79,89.38,57.79,81ZM66,81.55c0,3.73,1.64,5.15,4.25,5.15s4.25-1.42,4.25-5.15V53.36c0-3.72-1.64-5.14-4.25-5.14S66,49.64,66,53.36Z"/><path d="M88,41.36h13c8.2,0,12.23,4.55,12.23,12.9v26.4c0,8.35-4,12.9-12.23,12.9H88Zm8.21,7.46V86.1h4.62c2.61,0,4.18-1.34,4.18-5.07V53.89c0-3.73-1.57-5.07-4.18-5.07Z"/><path d="M126.24,41.36V81.63c0,3.72,1.64,5.07,4.25,5.07s4.25-1.35,4.25-5.07V41.36h7.75V81.1c0,8.36-4.17,13.13-12.23,13.13S118,89.46,118,81.1V41.36Z"/><path d="M171.87,74.1V81c0,8.35-4.18,13.12-12.23,13.12S147.41,89.38,147.41,81V53.89c0-8.35,4.18-13.13,12.23-13.13s12.23,4.78,12.23,13.13V59h-7.75v-5.6c0-3.72-1.65-5.14-4.26-5.14s-4.25,1.42-4.25,5.14V81.55c0,3.73,1.64,5.07,4.25,5.07s4.26-1.34,4.26-5.07V74.1Z"/><path d="M174.48,41.36h25.35v7.46h-8.57V93.56h-8.21V48.82h-8.57Z"/><path d="M214.44,40.76c8,0,12.08,4.78,12.08,13.13v1.64h-7.75V53.36c0-3.72-1.49-5.14-4.1-5.14s-4.1,1.42-4.1,5.14c0,10.74,16,12.76,16,27.67,0,8.35-4.18,13.12-12.23,13.12S202.14,89.38,202.14,81V77.82h7.76v3.73c0,3.73,1.64,5.07,4.25,5.07s4.25-1.34,4.25-5.07c0-10.74-16-12.75-16-27.66C202.36,45.54,206.46,40.76,214.44,40.76Z"/></g></g></g></svg>