<svg xmlns="http://www.w3.org/2000/svg" id="Layer_1" data-name="Layer 1" viewBox="0 0 48 48"><defs><style>.cls-1{fill:#111}</style></defs><title>Hipster</title><g><path d="M17.6,17.76H16.38v5h1c.95,0,1.53-.41,1.53-1.71V19.42C18.9,18.26,18.51,17.76,17.6,17.76Z" class="cls-1"/><path d="M24,0A24,24,0,1,0,48,24,24,24,0,0,0,24,0ZM12.2,20.9H9.8V19.16c0-1.15-.51-1.59-1.32-1.59S7.16,18,7.16,19.16V27.9c0,1.15.51,1.57,1.32,1.57S9.8,29.05,9.8,27.9v-3H8.64V22.61H12.2v5.13c0,2.58-1.29,4.06-3.79,4.06s-3.79-1.48-3.79-4.06V19.33c0-2.59,1.3-4.07,3.79-4.07s3.79,1.48,3.79,4.07Zm7,10.72a5,5,0,0,1-.23-2V27.09c0-1.5-.51-2.06-1.66-2.06h-.88v6.59H13.84V15.45h3.83c2.64,0,3.77,1.22,3.77,3.71v1.28c0,1.66-.53,2.74-1.66,3.28,1.27.53,1.68,1.75,1.68,3.44v2.49a4.68,4.68,0,0,0,.28,2Zm9.63,0-.44-2.94H25.22l-.43,2.94H22.45L25,15.45h3.72l2.59,16.17Zm12,0V20L39,31.62h-2.4L34.72,20.18V31.62H32.5V15.45H36L37.9,26.93l1.74-11.48h3.53V31.62Z" class="cls-1"/><polygon points="25.55 26.49 28 26.49 26.77 18.31 25.55 26.49" class="cls-1"/></g></svg>