<svg xmlns="http://www.w3.org/2000/svg" id="Layer_1" data-name="Layer 1" viewBox="0 0 196.91 188.42"><defs><style>.cls-1{fill:#fff}</style></defs><title>Hipster</title><g><g><g><path d="M13.05,94.66c-2.61,0-4.25,1.42-4.25,5.15v5.59H1.05v-5.07C1.05,92,5.22,87.2,13.28,87.2S25.51,92,25.51,100.33c0,16.4-16.34,22.52-16.34,31.09a5.24,5.24,0,0,0,.08,1.12H24.76V140H1.05v-6.41c0-15.36,16.25-17.9,16.25-33C17.3,95.93,15.66,94.66,13.05,94.66Z" class="cls-1"/><path d="M29.9,100.33C29.9,92,34.3,87.2,42.36,87.2S54.81,92,54.81,100.33v27.14c0,8.35-4.4,13.13-12.45,13.13S29.9,135.82,29.9,127.47ZM38.11,128c0,3.73,1.64,5.15,4.25,5.15s4.25-1.42,4.25-5.15V99.81c0-3.73-1.64-5.15-4.25-5.15s-4.25,1.42-4.25,5.15Z" class="cls-1"/><path d="M59.65,95.78c0-5.37,2.76-8.35,7.91-8.35s7.9,3,7.9,8.35v17.15c0,5.37-2.76,8.35-7.9,8.35s-7.91-3-7.91-8.35Zm5.22,17.52c0,2.31,1,3.28,2.69,3.28s2.68-1,2.68-3.28V95.41c0-2.31-1-3.28-2.68-3.28s-2.69,1-2.69,3.28ZM88.14,87.8H93L72.41,140H67.56Zm-2.61,27.07c0-5.37,2.76-8.35,7.9-8.35s7.91,3,7.91,8.35V132c0,5.37-2.76,8.35-7.91,8.35s-7.9-3-7.9-8.35Zm5.22,17.52c0,2.31,1,3.28,2.68,3.28s2.69-1,2.69-3.28V114.5c0-2.31-1.05-3.28-2.69-3.28s-2.68,1-2.68,3.28Z" class="cls-1"/><path d="M117.74,100.33c0-8.35,4.4-13.13,12.45-13.13s12.46,4.78,12.46,13.13v27.14c0,8.35-4.4,13.13-12.46,13.13s-12.45-4.78-12.45-13.13Zm8.2,27.66c0,3.73,1.64,5.15,4.25,5.15s4.25-1.42,4.25-5.15V99.81c0-3.73-1.64-5.15-4.25-5.15s-4.25,1.42-4.25,5.15Z" class="cls-1"/><path d="M156.14,111h10.59v7.46H156.14V140h-8.2V87.8h21.7v7.46h-13.5Z" class="cls-1"/><path d="M181.79,111h10.59v7.46H181.79V140h-8.2V87.8h21.7v7.46h-13.5Z" class="cls-1"/></g><rect width="117.58" height="6.14" x="1.05" y="150" class="cls-1"/><rect width="117.58" height="6.14" x="1.05" y="32.28" class="cls-1"/></g><rect width="77.58" height="6.14" x="1.05" y="16.14" class="cls-1"/><rect width="37.58" height="6.14" x="1.05" class="cls-1"/><rect width="77.58" height="6.14" x="1.05" y="166.14" class="cls-1"/><rect width="37.58" height="6.14" x="1.05" y="182.28" class="cls-1"/></g><g><path d="M1.5,62.16l-.41-.54L.72,61l-.24-.45L.32,60.2.2,59.66.08,59,0,58.34v-1l0-.37.05-.33,0-.37.26-.74.08-.34.17-.37.17-.29L1,54.24l.17-.37.21-.29.21-.32L2,52.68l.25-.29.54-.53.59-.49.33-.21.83-.57.38-.2.33-.21.62-.32.38-.17.5-.16.41-.16.42-.12.45-.16L8.49,49l.37,0,.33-.08.38,0,.37-.12.37-.08.34,0,.37,0,.41,0,.5,0h.87l1.74.14.91.17.25,0,.82.13.38.09.37.13.33.13.37.12.33.13.33.17.33.13.37.16.45.26.46.29.33.21.33.3.53.37.29.25L22,52l.21.25.49.59.41.66.16.21.21.38.12.33.12.37.24.67.12.37,0,.34.12,1.11v.92l-.05.53v.42l-.09.74-.09.37-.13.38-.08.33-.26.74-.08.33-.17.37-.17.29L22.9,63l-.17.37-.21.33-.21.29-.21.33-.29.33-.17.16-.29.33-.25.29-.29.24-.25.25-.29.25-.67.4L19,67l-.3.16-.33.17-.41.16-.34.08-.74.24-.38.08-.33.08-.37,0L15,68l-.37,0H12.75l-.41,0-.5-.09-.53-.13-.42-.08-.74-.22-.46-.08-.37.08-.17.28L9,68.11l-.13.41-.09.25-.08.45-.09.37-.09.75-.09.37-.25.74-.09.37,0,.38L8,72.57l-.08.37-.13.37,0,.42-.17.74-.13.37-.08.33-.17.37L7,75.92l-.17.32-.21.37L6.3,77l-.54.29-.67.08-.7-.13-.54-.3-.28-.37,0-.38.13-.33.17-.37L4,75l.17-.5.12-.41.13-.5.17-.53.26-.75L5,71.92l.12-.54.09-.45.13-.37.08-.37,0-.38.09-.37.08-.33.09-.37.12-.37.13-.5.13-.53.17-.75.09-.33.09-.45.08-.21.09-.46.08-.33.09-.37.13-.37L7,63.7l.13-.37.09-.54.13-.5.25-.74.26-.66L8,60.52l.09-.37.3-.87.17-.58.13-.25.21-.58.29-.61.21-.5.21-.37.38-.62.21-.33.17-.33.21-.29.25-.28.54-.54.3-.24.66-.33.38-.12.74-.16.42.05.37.08.37.21.24.3.08.37-.12.29-.34.2-.29.21-.33.2-.25.25-.5.57-.21.29-.68,1.32-.16.29-.17.33-.13.37-.09.37-.12.37-.13.5-.17.54-.17.37-.13.54-.13.49-.09.37-.12.42-.05.24-.13.42-.08.37-.13.37,0,.37-.05.46.08.37.29.21.49.17.58.09.25,0,.58.09.54.09h.41l.75,0,.5,0,.53-.08.38-.12.33-.12.37-.16.5-.21.42-.24.67-.41.29-.2.25-.25.75-.86.3-.45.33-.58.25-.46.21-.41.17-.49.13-.5,0-.41.09-.5.12-.54.05-.41,0-.37,0-.38,0-.41-.08-.37-.16-.54-.12-.5-.16-.38L20.07,55l-.2-.33-.2-.29L19.46,54l-.53-.54-.25-.29-.57-.51-.33-.21-.33-.16-.37-.17-1-.43-.38-.16-.37-.13-.7-.17-.41,0-.38,0-1.15-.06h-.38l-.37,0-.75,0-.37,0-.33.08-.37.08-.38.12-.7.16-.75.24L8,52l-.88.45-.41.2-.38.2-1.17,1-.54.53-.25.29L4.13,55l-.21.33-.17.33L3.62,56l-.12.37-.13.33L3.24,57l-.09.74,0,.38v.41l.08.54.07.5.12.37.17.38L4,61l.21.33.16.34,0,.33-.17.37-.25.29-.3.24-.37.16-.37.08-.38-.08-.37-.3-.28-.29Z" class="cls-1"/><path d="M35.83,75.55l-.58.49-.67.41-.33.16-.67.41-.33.16-.75.24-.41.12-.75.12-.25.08-.41.08-.33,0H30l-.45,0h-.38l-.74-.09L28,77.67l-.38-.12-.29-.13-.37-.13-.33-.17-.66-.42-.28-.25-.49-.58-.21-.34-.16-.33-.21-.33-.24-.75-.16-.75-.07-.74,0-.42,0-.37V70.68l.09-.37.09-.33.08-.37.13-.75.09-.41.09-.37.12-.33.13-.37L25.1,67l.17-.34.12-.37.22-.49.25-.5.21-.33.25-.33.21-.28.25-.29.42-.66.25-.29L28,62.6l.58-.49.29-.21.33-.24.38-.25.46-.28.46-.25.33-.16.41-.16.25-.08.46-.17.25-.08.41-.12L33,60l.41,0,.37,0h1l.66.09.54.08.37.09.37.13.33.16.74.47.45.25.29.25.21.25.24.29.25.34.49.91.12.37,0,.38,0,.33.15.75v1.45l-.09.49,0,.46-.05.41-.26,1.24-.17.58-.12.41-.17.41-.17.46-.13.37-.25.45-.38.75L38,73l0,.29.33,0h.24l.46,0,.29,0,.37-.08.42-.16.29-.16.67-.41.29-.25.54-.53.51-.58.2-.29.21-.33.21-.28.34-.66.38-.7.13-.25.25-.37.37-.21.5.09.33.38,0,.45-.12.37-.51,1-.21.29-.42.66-.17.33-.21.29-.25.33-.21.29-.25.24-.54.58-.25.24-.29.25-.3.2-.33.25-.29.16-.67.33-.37.16-.33.08-1.49.15-.46,0-.37,0L37,75l-.33,0-.29.13-.3.2ZM27.67,71l0,.5,0,.41,0,.54.08.66.16.67.28.62.29.42.33.29.45.21.62.17h.54l.41,0,.42-.08.37-.16L32,75l.37-.21.33-.2.3-.25.33-.24.17-.29v-.25l-.16-.29L33.12,73,33,72.58l.09-.49.17-.5.29-.25.33-.2.38,0,.37.09.29.08.25,0,.17-.24.12-.33L36,69.17l.26-1.11.09-.54.13-.7.09-1.41,0-.67-.16-.7-.24-.62L35.86,63l-.33-.25L35,62.54l-.62-.13-.54,0h-.42l-.33.08-.37.12-.42.24L32,63l-.38.24-.41.33-.3.25-.29.28-.21.29-.25.29L30,65l-.42.57-.21.33-.84,1.65-.13.37-.08.33L28,69l-.08.33-.13.37,0,.37v.37Z" class="cls-1"/><path d="M68.11,68.79l0,.58-.21.49-.21.37-.17.34-.21.37-.08.24-.51.83-.25.45-.25.33-.17.33-.21.33-.21.29-.25.33-.29.37-.34.45-.25.33-.5.57L63.7,76l-.3.25-.25.24-.29.25-.33.2-.29.21-1.33.65-.38.12-.37.08-.37,0h-.92l-.49,0L58,77.94l-.54-.17-.62-.3-.53-.38L56,76.72l-.41-.67-.17-.33-.2-.5L55,74.6l0-.54v-.42l-.08-.37h-.21l-.25.29-.29.28-.5.58-.46.62-.51.57-.29.25-.62.49-.34.24-.91.58-.38.2-.33.2-.33.17-.75.16L47.57,78H47.2L46.82,78l-.37-.08-.33-.13-.37-.13-.33-.17-.29-.21-.57-.5-.41-.58L44,75.78l-.12-.33-.13-.37-.07-.38,0-.37,0-.33v-.75l0-.41v-.75l0-.33,0-.37.05-.41.13-1.12.05-.33.08-.37.13-.37.09-.37.08-.34.09-.37,0-.41.13-.54.13-.49.09-.42.17-.74.13-.5.13-.54.12-.37.09-.37.09-.33.17-.74.25-.75.09-.33.13-.37.08-.37v-.29l-.12-.21-.33-.08-.54-.09-.57-.13-.38-.13L44,59.26l-.24-.38v-.37l.05-.37.17-.33.21-.29.33-.2h.37l.37.09.42,0,.37.09.41,0h.33l.21-.17.13-.29.25-.74.13-.33.13-.37.21-.7.09-.38L48,54.2l.13-.5.13-.53.09-.37.13-.38.16-.37.17-.49.22-.5.29-.2.41-.12.38,0h.41l.37.09.37.13.33.16.29.26.16.33L52,52l-.09.41-.17.75-.13.37-.08.37-.09.33-.13.37-.12.42-.26.74-.08.37-.13.37-.09.37-.13.38v.29l.29.16.54,0,1.45,0,.7,0,.5,0,.29.25.08.34,0,.37-.08.37-.13.37-.21.29-.33.2-.38.08-1.11.12-.42,0h-.83l-.25,0h-.45l-.33,0-.21.16-.13.33-.13.38-.08.37-.13.37-.21.7-.09.37-.08.33-.09.37L48.6,64l-.08.37-.13.37-.13.34-.08.37-.13.41,0,.37,0,.33-.09.37-.25.75-.52,2.23,0,.37-.26,1.12,0,.41-.18,1.49,0,.37,0,.42.08.33.12.37.21.34.28.25.33.17.42.08.49,0,.59-.16.49-.21.5-.28.21-.08.38-.25.29-.2.54-.54.25-.2.29-.25.25-.29.3-.32.12-.21.25-.33.51-.57.21-.29.29-.42.67-1,.29-.46.26-.45.29-.41.17-.37.13-.37.08-.37.13-.38.09-.33.08-.37.13-.37.09-.37.12-.33.09-.37.09-.42L57,63.52l.13-.33.09-.38.13-.74.08-.46.05-.24.13-.46.12-.37v-.29L57.5,60l-.58-.17-.62-.17-.53-.26L55.48,59l0-.37.05-.38.17-.37.25-.24.33-.17.5,0,.57,0,.25.05h.54l.38-.28.21-.42.13-.41.12-.33.13-.37.09-.33.12-.37.17-.75.13-.37.09-.37.13-.33.38-1.12.13-.49.21-.5.29-.24.42-.08.37,0H62l.37.09.38.13.33.21.32.25.17.29v.37l-.25.75-.09.41-.12.37-.18.75-.63,1.85-.09.38-.13.41-.13.37,0,.33.12.17.33.08.38,0h.37l.45,0h.29l.42,0,1-.12.62,0,.42,0,.29,0,.24.21.09.37,0,.33-.09.38-.12.37-.21.33-.29.2-.54.12-.58.08-.83,0-.63,0h-.7l-1.32.07-.38.21-.17.33-.13.33-.12.37-.09.37-.08.33-.13.37-.09.38-.13.41-.08.37-.09.33-.13.37-.12.5-.17.54-.13.37L59.22,67l0,.38-.18.74-.08.29-.13.37-.09.41,0,.38-.17.74-.05.37V71l0,.38,0,.41-.09.37-.09.75,0,.37v.37l0,.38.08.37.16.33.2.33.25.3.29.21.37.12h.33l.41-.08.38-.12.33-.12.67-.41.29-.25.29-.2.54-.54.3-.33.5-.49.5-.57.25-.33L64.6,72l.46-.66.13-.21.25-.37.63-1,.21-.37.13-.25.21-.37.25-.33.37-.21.54.09Z" class="cls-1"/><path d="M79.83,67.94l-.21.29-.5.57-.58.49-.3.21-.37.2-.25.08L77.2,70l-.25.12-.37.16-.41.12-.38.13-.37,0-.42.08-.45,0-.5.08-.37,0H73.3l-.74-.09-.74,0-.38,0-1.11-.26H70l-.21.16-.09.29v.38l0,.41v.7l0,.42.08.33.24.75.41.66.24.3L71,75l.66.42.41.12.37.13.29,0,.37.08.38,0h.41l.37,0,1.08-.19.37-.08.38-.13.33-.12.71-.28.66-.33.59-.45.29-.2.29-.25.59-.53.5-.58.21-.28.25-.33.42-.58.21-.33.17-.33.21-.33.16-.33.21-.29.17-.33.17-.37.17-.33.21-.33.29-.2h.37l.37.26.21.37,0,.37-.17.37-.21.46-.25.45-.21.45-.25.46-.25.41L82,72.6l-.13.24-.25.38-.42.57-.25.29-.25.25-.25.28-.3.33-.12.17-.3.33-.25.28-.58.49-.42.33-.37.33-.67.41-1,.45-.33.12-.37.12-.54.08-.5.12-.87.07-.54,0-.46,0h-.37l-1.49-.18-.33-.08-.37-.13-.37-.17-.33-.17-.66-.38L68.53,77l-.29-.25L68,76.49l-.16-.21L67.5,76l-.24-.29-.21-.34L66.89,75l-.16-.37-.12-.33L66.49,74l-.08-.37-.08-.33-.08-.38-.12-1.12V71l0-.38v-.37l.25-1.11.13-.33.09-.38.13-.37.08-.37.13-.37.17-.45.21-.5.21-.37.25-.45.3-.42.17-.37.21-.28.25-.29.62-.66.63-.62.33-.28.38-.29.42-.29.37-.28.42-.25.41-.2.38-.16.54-.25.87-.28.75-.16.54-.08h.91l.53.09.67.13.53.13.37.13.38.17.33.16.24.17.58.5.24.3.25.41.2.5.12.38.08.37,0,.37v.5l-.05.54,0,.41-.12.5-.17.49-.17.41-.13.21-.21.37Zm-5-5-.58.24-.5.24-.33.21-.59.49-.37.37-.34.37-.29.33-.29.45-.3.41-.21.37-.25.46-.17.49-.17.37-.12.33,0,.29.21.21.53.13.83,0,.42.05h1.16l.41-.08.37-.08.42-.16.25-.09.41-.2.3-.2.29-.25.29-.29.29-.24.25-.33.21-.29.17-.33.21-.37.26-.74.08-.42,0-.37,0-.41-.16-.38-.25-.29L76.89,63l-.37-.17-.37-.09-.37,0-.42.08Z" class="cls-1"/><path d="M84.87,64.59l.29-.29.5-.57.88-.74.29-.21.33-.24.3-.21.33-.16.37-.16.63-.33.37-.2.75-.24.33-.12L91,61l.37,0,.42,0,.74-.08h1l.54.09.46.09.29,0,.25-.12.16-.29.09-.37.26-.74.08-.33.13-.38.29-.7.13-.41.09-.25.17-.41.08-.33.26-.75.12-.33.43-1.23.21-.5.26-.74.12-.33.17-.42.09-.24.33-.75.13-.33.38-.7.17-.33.37-.28.46-.16h.42l.37,0,.41.09.25.09.41.12.29.21.12.33-.08.33-.09.38-.17.37-.17.33-.12.33-.13.37-.21.5-.17.49L101,54l-.51,1.33-.17.49-.21.5-.13.37-.13.33-.3.87-.21.49-.12.41L98.7,60.2l-.09.37-.13.33-.12.37-.13.33L98.1,62,98,62.3l-.09.37L97.8,63l-.08.38-.13.37-.13.33-.13.37-.08.37-.09.33-.08.37L97,65.9l-.13.53-.17.54-.08.25-.13.45-.09.37-.09.5-.08.54-.26,1.11,0,.38-.08.37-.09.54-.09.49,0,.37-.09.38,0,.37v.37l0,.42,0,.53.12.5.12.38.25.25.33.12.37,0,.33-.08.37-.12.34-.21.75-.65.29-.29.42-.58.42-.66.59-.82.21-.33.17-.33.21-.37.42-.91.21-.37.17-.28.17-.38.21-.45.45-.33.5.09.29.42v.53l-.21.5-.21.41-.25.46-.26.53-.16.25-.51,1-.25.37-.55.86-.42.66-.21.29-.25.33-.21.29-.25.24-.29.25-.29.33-.17.16-.29.33-.29.25-.34.2-.29.16-.33.17L96.1,78l-.37.08h-.34l-.37,0-.37,0L94.28,78,94,77.8l-.33-.21-.25-.21-.29-.29-.41-.59-.16-.33-.12-.38-.08-.33-.11-1.12v-.78l-.08,0-.21.28-.21.33-.38.66-.21.29-.25.29-.46.57-.25.25-.88.74-.37.28-.42.33-.37.25-.34.16-.41.12-1,.2-.41.08-.37,0-.33,0-.38,0-.37-.09-.33-.08L83.84,78l-.29-.17-.33-.25-.37-.38-.37-.33-.2-.34-.16-.33L82,75.79l-.25-.67-.12-.37,0-.38,0-.49v-.54l0-.37v-.38l0-.41.05-.5.09-.53.08-.38.13-.41,0-.25.13-.41.13-.37.38-1,.13-.37.33-.66.26-.46.21-.45.25-.41.17-.21.25-.33.42-.57Zm8.46-1.38-.79,0h-.37l-.37.08-.42.08-.25.08-.41.17-.38.12-.37.16-.34.2-.29.21-.29.24-.29.29-.59.49-.25.25-.25.29-.5.61L87,66.8l-.21.37-.5.91-.21.33-.13.33-.13.37-.13.33-.17.37-.25,1-.13.37-.09.54,0,.5,0,.41.08.54.08.66.08.54.12.38.2.29.25.25.28.25.38.17.49.09.5,0,.41-.16.25-.12.38-.21.29-.2.5-.49.29-.33.26-.29.29-.29.21-.29.21-.33.25-.37.29-.49.3-.37.17-.33.16-.37.13-.33.17-.37.21-.5.21-.45.17-.37.13-.33L93.25,67l.17-.53.35-1.33.13-.53.12-.42.09-.45L94,63.39l-.29-.17Z" class="cls-1"/><path d="M120.07,78.56l-.91-.17-.37-.13-.5-.21-.45-.21-.33-.21-.29-.25-.29-.21-.86-.75-.49-.5-.25-.3-.16-.33-.41-.62-.33-.67-.12-.37-.12-.34-.16-.37-.16-.46-.12-.49-.08-.42-.08-.37,0-.38-.08-.54-.08-.49,0-.38V68.23l0-.37v-.37l0-.37,0-.54,0-.5.08-.41,0-.33,0-.37,0-.42.08-.37.09-.54.13-.49.17-.75.13-.37.17-.54.3-.86.12-.33.13-.38.17-.32.17-.38.25-.45.21-.5.21-.37.51-.9.13-.33v-.33l-.12-.29-.21-.34-.2-.37-.2-.46-.25-.46-.16-.41-.16-.5-.16-.46-.12-.41-.12-.5-.17-.54-.15-.75,0-.37.17-.46.46-.28h.62l.49.3.25.46,0,.37.08.37.12.42.12.37.13.33.12.38.16.37.37.71.16.37.16.25h.21l.5-.49.25-.28.75-.74.38-.33.29-.25.33-.2.38-.25.21-.16.33-.25.37-.2,1.38-.73.66-.33.34-.12.74-.16.38-.12.37-.08,1.16-.16.75-.07h.37l.41,0H129l.45.09h.25l.45.09.33.08.38.17.33.13.37.17.33.16.33.21.28.21.29.26.33.33.21.29.2.33.16.34.16.37.13.33.08.38.08.41.07.75v.78l-.08.34-.09.41-.13.37-.12.33-.17.37-.17.33-.21.33-.21.29-.25.33-.42.57-.29.29-.25.29-.59.49-.29.21-.33.2-.29.21L130,61l-.45.2-.54.16-.42.16-.37.12-.38.08-.33,0-.95.08-.54,0h-.83l-.74-.09-.29-.09-.38,0-.94-.3L122,61l-.49-.17-.33-.17-.33-.21-.33-.16-.33-.21-.33-.17-.33-.21-.29-.21-.29-.17-.2.08-.17.25-.47,1.15-.25.66-.17.5-.13.41-.09.33-.12.37-.09.54-.09.5-.09.74,0,.42,0,.53,0,.67,0,.53v.92l0,.53v.42l0,.54.12.66,0,.54.08.41.12.5.29.87.24.5.24.63.29.45.2.34.21.29.24.29.41.34.42.29.37.17.33.13L121,76l.54.13.66.09h.91l.37,0,.91-.16.5-.08.42-.12.5-.16.62-.28.83-.41.33-.2.3-.21.83-.65.88-.74.33-.41.34-.37.54-.78.29-.42.26-.32.21-.29.21-.33.25-.46.29-.41.33-.16.5.17.33.38,0,.45-.17.37-.17.33-.21.37-.51.91-.21.37-.84,1.15-.29.33-.25.33-.38.37-.33.41-.59.54-.29.24-.25.25-.37.24-.17.17-.38.24-.58.41-.33.21-.38.16-.33.16-.7.24-.38.12-.33.12-.37.09-.38.12-.33.08-.37,0-1.16.16h-.71l-.37,0h-.41Zm6.44-26.32-.42.08-.41.12-.54.2-.5.16-.33.17-.33.2-.34.16-.66.41-.3.21-.29.28-.25.29-.21.21-.25.28-.33.33-.25.29-.3.29-.21.33-.21.45.08.5.33.37.66.42.29.21.33.17.28.21.38.13.33.09.74.21.37.08,1.08.1H126l.38,0,.37-.08.33-.08.38-.13.49-.2.46-.24.34-.21.58-.49.25-.25.25-.32.21-.29.68-1.32.08-.37,0-.37v-.34l0-.37-.16-.37-.29-.42-.32-.42-.29-.25-.33-.17-.37-.12-.33-.09-.38-.09-.37,0h-.37Z" class="cls-1"/><path d="M152.52,70.69l-.09.21-.21.41-.21.29-.17.33-.17.37-.16.33-.42.66-.21.28-.21.33-.17.33-.21.33-.25.29-.25.33-.25.29-.47.57-.25.29-.25.25-1.17,1-.33.21-.37.2-.46.2-.5.21-.37.12-.38.08h-.41l-.5,0-.49-.13-.37-.13-.29-.21-.29-.25-.29-.42-.28-.45-.12-.38-.12-.5,0-.54v-.41l.05-.54,0-.49-.13-.09-.21.29-.42.66-.42.58-.25.28-.21.29-.25.29-.21.29-.29.24-.25.25-.29.24-.29.21-.34.2-.45.29-.63.28-.66.21-.54.11-.75.08-.41,0-.5-.09-.49-.13-.38-.13-.33-.12-.28-.21-.58-.51-.2-.29-.21-.33-.24-.46-.25-.62-.12-.54,0-.42-.08-.53,0-.67v-.54l0-.41,0-.54.09-.49.12-.42.13-.49.13-.54.13-.37.17-.33.13-.37,1-2,.21-.33.21-.29.21-.33.42-.57.25-.29.54-.62.17-.16.29-.33.58-.49.38-.37.46-.33.58-.45.34-.21.29-.2.37-.16.5-.21.46-.24.41-.2.5-.16.5-.12.41-.13,1-.07.37,0h.5l.83,0,.95.09.91.17.37.09.46.13,1.65.76.28.25.29.21.29.25.25.29.07.46-.17.57-.46.5-.45.28-.34,0-.33-.13-.32-.25-.38-.21-.33-.21-.28-.12-.33-.17-.37-.17-.34-.09-.7-.17-.41-.13-.41-.08h-.83l-.29,0-.42,0-.54.12-1,.36-.41.2-.42.25-.29.2-.33.21-.29.2-.3.25-.33.28-.17.17-.29.33-.25.28-.21.29-.5.58-.21.29-.21.32-.51,1-.21.33-.25.75-.17.37-.17.33L135,71.61l-.13.42-.13,1.11V74.3l0,.42.12.37.16.33.2.34.25.25.37.17.5.08.54,0,.37-.12.67-.33.58-.49.25-.25.29-.24.25-.29.21-.29.25-.29.21-.28.47-.62.2-.29.63-1,.26-.45.29-.54.17-.24.51-1.08.17-.37.08-.29.17-.37.13-.33.12-.37.17-.45.26-.83.17-.45.13-.42.25-.37.41-.2.38-.08.37,0,.37.09.66.34.33.21.17.25,0,.37-.12.33-.09.37-.13.37-.17.75-.13.37-.08.33-.26.74-.08.42,0,.24-.13.5-.08.37-.17.7-.13.5-.09.41-.09.46-.13.62-.13.7,0,.62,0,.54.21.33.41.21.62,0,.5-.16.37-.2.59-.41.29-.29.5-.53.5-.58.42-.57.21-.33.25-.33.09-.25.67-1,.17-.33.21-.33.84-1.65L152,69l.49.09.33.41,0,.42-.17.37Z" class="cls-1"/><path d="M156.33,78.84l-.33,0-.37-.09-.37-.13-.49-.21-.46-.25-.37-.21-.41-.34-.37-.37-.29-.25-.24-.3-.25-.25-.16-.33L152,75.7l-.2-.5-.2-.46-.12-.37-.12-.54-.08-.5,0-.41,0-.38V71.8l0-.33.05-.38,0-.41.09-.5.13-.53.13-.37.08-.38.3-.86.21-.46.21-.37.68-1.32.21-.33.42-.57.58-.62.13-.16.29-.33.29-.25.25-.24.29-.25.3-.2.33-.25.29-.21.33-.16.34-.2.29-.16.33-.17.46-.2.87-.24.46-.12.37-.08.37,0,.42,0h.7l.37,0,.54.09.62.17.54.17.37.13.29.17.29.21.28.25.25.29.25.25.16.38.16.45.12.5,0,.42-.05.49-.13.54-.12.37-.17.33-.21.33-.3.41-.29.37-.25.29L164,68l-.34.16-.53.08h-.67l-.66-.17-.41-.29v-.42l.21-.37.3-.45.25-.37.17-.37.08-.33.09-.38v-.33l-.08-.37-.28-.42-.41-.29-.38-.13-.37,0-.37,0-.5.08-.5.16-.37.17-.29.2-.34.25-.29.2-.33.25-.34.37-.29.28-.29.37-.38.46-.25.45-.17.37-.21.33-.17.29-.17.33-.12.37-.13.33-.13.37-.13.54-.13.49-.08.42-.09.49-.05.54,0,.42v.53l0,.67.12.58.12.41.41.83.24.34.25.25.29.25.45.21.5.21.37.09.54.09H159l1-.07.37-.08.46-.12.37-.16.46-.25.46-.2,1-.61.41-.33.38-.33.58-.49.51-.58.25-.24.5-.58.42-.57.25-.37.13-.25.29-.45.25-.42.17-.37.3-.53.41-.29.54.09.33.37v.46l-.12.33-.17.33-.17.37-.21.41-.29.46-.34.45-.34.49-.63.91-.25.33-.21.29-.29.28-.75.87-.21.28-.25.25-.29.25-.59.4-.25.21-.29.2-.37.29-.34.2-.33.17-.33.2-.5.21-.5.16-.46.12-.49.07-.5.12-.75.12-1.12.12-.74-.09Z" class="cls-1"/><path d="M180.6,69.74v.45l-.17.41-.5.91-.17.37-.17.33-.42.66-.17.29-.21.33-.33.62-.17.29-.25.37-.5.57-.21.33-.21.29-.26.29-.79.78-.58.45-.59.49-.33.24-.46.25-.5.2-.37.16-.37.12-.34.08-.37,0H171l-.37,0-.37-.09-.5-.17-.45-.21-.33-.21-.58-.5-.2-.29L168,77.2l-.32-.66-.12-.33-.12-.38-.08-.37-.08-.33v-.38l0-.37V74l0-.42v-.37l.13-1.12v-.37l.22-1.86.09-.37,0-.37.17-.75.13-.53.13-.5.09-.37.13-.37.08-.38.13-.37.08-.37.09-.5.17-.53.26-.75v-.33l-.12-.21-.29-.08L168.4,63,168,63l-.41-.17-.28-.38-.08-.37,0-.41.08-.34.17-.28.29-.21.54,0,.62,0h.62l.42-.12.17-.29.08-.42.09-.33.13-.37.17-.33.16-.37.13-.33.26-.74.17-.75.13-.37.17-.33.25-.74L172,55l.17-.37.12-.37.13-.33.13-.37.17-.33.17-.38.08-.33.13-.37.17-.37.21-.29.33-.2.37-.08.42,0,.49.09.54.13.37.21.33.29.12.46-.09.37-.21.54-.25.58-.21.53-.13.42-.09.24-.12.42-.47,1.36-.13.33-.13.37-.17.54-.25.62-.3.86-.08.38-.17.33-.13.33v.29l.25.2.45.09h.41l.71,0,.58,0h1.28l.54,0,.29.25.08.46v.54l-.13.37-.21.29-.29.2-.37.12-.37.08-.42,0-1.12,0h-.45l-.37-.05h-1.54l-.25.16-.12.33-.17.5-.18.66-.17.7-.21.66-.17.7-.17.67-.13.57-.05.25-.13.58-.12.46-.13.41-.17.74-.05.5-.09.54-.09.74v1.16l.08.54.08.5.12.37.16.37.21.3.45.29.58.25.45.09h.42l.45-.07,1-.49,1.17-1,.29-.28.21-.25.42-.53.54-.66.21-.29.17-.33.21-.33.25-.33.21-.29.21-.33.17-.33.13-.37.21-.41L179,70l.25-.41.5-.33.54.09Z" class="cls-1"/><path d="M188.75,69.89v.46l-.13.37-.34.66-.37.62-.21.37-.17.32-.26.38-.12.24-.21.37-.21.33-.21.29-.25.33-.21.29-.42.66-.75.86-.51.54-.29.28-.25.29-.29.25-.92.69-.29.21-.38.16-.37.12-.33.08-.75.16h-.7l-.46,0L179,79l-.37-.13-.33-.21-.29-.25-.2-.29-.2-.33-.17-.38-.08-.33-.08-.37,0-.38V76l.09-.74.08-.37.13-.38.17-.74.13-.33.09-.37.12-.38.13-.32.38-1.12,0-.33.08-.37.13-.37.09-.37.08-.33.26-.75.13-.5.13-.53.25-.75.09-.37.08-.29.09-.37.17-.41.13-.33.25-1.12.13-.37.13-.49.17-.54.13-.37.17-.33.25-.21.37-.16.33,0,.42.05.74.09.66.25.21.29v.38l-.08.37-.13.49L184,64l-.26.74-.08.33-.09.38-.13.41-.12.49-.43,1.24-.09.38-.17.53-.29.87-.09.37-.09.33-.08.37-.3.7-.08.38-.3,1-.26.74-.08.37-.13.54-.13.66-.09.71.08.62.32.46.46.12.37,0,.37-.17.3-.2.33-.25,1.38-1.35.25-.29.21-.29.25-.33.42-.65.25-.29.17-.25.21-.33.25-.37.17-.37.34-.7.5-1,.21-.33.38-.2.53.08ZM182.2,57.12l.21-.33.33-.29.33-.2.42-.12.37-.08h.42l.37.09.33.21.29.25.28.29.21.33.12.38,0,.37v.42l-.12.37-.21.33-.26.33-.29.24-.33.25-.38.16-.41.08-.37-.05-.42-.08-.66-.42-.24-.29L182,59l-.08-.37,0-.37,0-.38.09-.41Z" class="cls-1"/></g></svg>