<svg id="Layer_1" data-name="Layer 1" xmlns="http://www.w3.org/2000/svg" viewBox="0 0 234 79.59">
  <title>Hipster</title>
  <g>
    <g>
      <g>
        <path d="M60.37,21.6l.09.3,0,.27c0,.1,0,.15-.08.26l0,.25c-.06.28-.1.42-.16.69,0,.12,0,.18-.07.29-.07.29-.1.43-.16.72,0,.11-.05.16-.08.26l-.05.25c0,.1-.07.15-.11.24s-.06.16-.11.27l-.07.17-.12.3-.07.17-.1.3c0,.09-.07.14-.11.24s-.08.2-.14.34l-.18.32-.11.24c-.06.09-.09.13-.14.22l-.49.62-.15.2-.38.36-.22.16-.21.12-.46.27-.25.08-.24.11-.25.08-.26.06h-.28l-.24,0h-.27l-.23,0-.27-.06-.22-.11-.25-.09-.2-.14-.21-.17L53.26,29l-.16-.19-.16-.21-.1-.2-.11-.23-.09-.24-.11-.23-.34-1c-.06-.3-.09-.45-.16-.75L52,25.73l0-.26-.06-.36-.08-.33,0-.29,0-.52,0-.35c0-.15,0-.22-.06-.37,0-.41,0-.62-.09-1v-.8c0-.15,0-.22,0-.36s0-.21,0-.35l0-.29c0-.15,0-.23,0-.38s0-.21,0-.35v-.27l0-.26v-.27l-.1-.32L51,18.4l-.4.08-.3.27-.12.43c0,.27,0,.4,0,.67s0,.23-.07.38c-.1.37-.16.55-.26.93-.07.15-.1.23-.16.38l-.07.17c0,.12-.06.18-.09.3l-.33.74c-.14.25-.22.37-.36.61l-.18.24-.15.21-.22.2L48,24.3l-.33.34-.29.25-.25.21-.27.25-.19.25-.07.27v.24c0,.12,0,.18-.06.29,0,.3,0,.44,0,.74l-.05.56,0,.23,0,.25,0,.29-.07.24-.06.26-.09.25-.07.24c-.11.33-.16.49-.26.82,0,.15-.07.23-.11.38l-.12.28-.12.26-.13.23-.15.27-.14.21-.13.23-.26.41-.16.21-.14.21-.17.22-.18.19-.2.21-.18.19a1.81,1.81,0,0,0-.21.18l-.19.16-.24.19-.29.21-.34.2-.76.32-.23.12-.25.11-.25.07-.28.09-.75.14-.26,0h-.32l-.25,0-.23,0-.51-.06-.27,0-.25,0-.5-.18-.49-.22L36.5,35l-.31-.2-.29-.21-.24-.17-.25-.26-.28-.25L35,33.67l-.16-.21-.17-.23-.28-.4-.19-.29L34,32.22,33.83,32l-.1-.23-.1-.29-.07-.16-.09-.27-.1-.23-.18-.54,0-.16-.09-.27L33,29.6l-.05-.25,0-.27-.05-.26,0-.23c0-.22,0-.32,0-.54v-.37c0-.14,0-.21,0-.35a2.62,2.62,0,0,1,0-.28l0-.26,0-.27,0-.25L33,26c.08-.11.12-.16.19-.27l.41-.24.47-.08.48.07.3.23.12.29a2.62,2.62,0,0,1,0,.28l0,.26c0,.21,0,.32,0,.54v.24l0,.27,0,.26,0,.27,0,.23.05.25,0,.27,0,.26.06.22.08.24.11.26.22.74.22.49.14.18.15.25.1.23.13.22.15.21.26.28.25.27.21.18.4.32.22.15.22.12.24.11.26.07.5.1.27,0h.36l.4,0,.32-.08.24-.1.51-.18.26-.14.31-.19.29-.24.24-.19.2-.2.18-.2.28-.41.16-.25.1-.22.13-.24.3-.69.1-.25c0-.12.07-.18.11-.29l.1-.25L44,29.4l0-.25.06-.27c0-.2,0-.3.06-.5l0-.29v-.24c0-.11,0-.17,0-.28l0-.25.06-.27-.06-.31L44,26.57h-.36l-.18,0-.33.07-.35,0-.37.06-.34,0H40.66l-.27,0-.3,0L39,26.66l-.27,0-.52-.14-.49-.2-.24-.11-.24-.08L37,26l-.23-.09-.25-.11-.22-.12-.23-.15-.21-.15-.22-.13-.2-.15-.21-.19-.21-.16-.21-.18-.25-.26L34.4,24l-.17-.23-.16-.21-.15-.18L33.67,23l-.21-.47-.09-.3L33.3,22l-.09-.21,0-.23c0-.21,0-.31-.08-.52v-.24c0-.26,0-.38,0-.63l0-.37.08-.3.06-.18.18-.57.07-.24.11-.24.29-.48.15-.22.19-.2.22-.24.27-.27.32-.25.26-.2.36-.24.45-.27.37-.21.29-.15.26-.13,1.4-.41.41-.1.39-.06.7-.06h.7l.29,0,.28,0,.26,0L42,15l.24.09.25.12.23.15.44.26.22.16.27.26.3.25.33.36.18.21.11.23.3.43.17.3.18.32.13.25.23.46.24.66L46,20l.09.26.06.34.1.36c0,.2.07.3.11.5l.07.27.07.37c0,.14,0,.21,0,.35l0,.26V23c0,.2,0,.31.06.51l0,.2.1,0,.19-.1.17-.15.2-.19.22-.2.17-.24.22-.29c.08-.12.11-.19.19-.31l.16-.27.15-.32.17-.33.07-.26.11-.25.08-.24c0-.14.06-.22.11-.36s0-.2.08-.33,0-.17,0-.28l.12-.52c0-.13,0-.19,0-.32L49,18.51l-.22-.16-.2-.2L48.43,18l-.12-.26,0-.26,0-.28c0-.1.07-.15.11-.24l.19-.22.26-.12.28-.06.28,0,.27.12.24.12.27,0,.33,0,.3-.07.23-.11.14-.16.06-.23,0-.26v-.51c0-.2,0-.31,0-.52V14.7l0-.24v-.27c0-.21,0-.32,0-.52v-.51l0-.26v-.23l0-.26v-.28l.09-.26.17-.17.29-.16.27-.11.31-.07.58-.07.28,0,.29.09.19.18.07.21v.53l0,.29,0,.31v.18c0,.12,0,.18,0,.31s0,.35,0,.58l0,.29,0,.22,0,.28c0,.33,0,.49,0,.81l0,.23.12.08.25,0,.27-.09.29-.12.52-.22.29-.12.51-.15.52-.22.25-.14.24-.07.26.1.21.29.16.31,0,.25,0,.28-.13.18-.25.17-.22.09-.27.09-.78.32-.31.13-.19,0-.29.12-.25.11-.8.25-.22.13-.13.19-.06.22,0,.26v.51l0,.26,0,.24v.27c0,.31,0,.47.06.78v.27l0,.24c0,.42.05.63.09,1v.23c0,.21,0,.31,0,.52v.27l0,.52,0,.22v.27l0,.26v.27l.1.5.06.28.05.25,0,.22.05.25.33,1,.13.22.17.22.12.19.19.18.25.1.24.06H56l.26-.08.24-.11.2-.15.38-.36.18-.2.17-.24.17-.26.24-.4L58,25.9l.11-.24.09-.24.33-.72c0-.11.06-.16.11-.27l.08-.23.08-.26.08-.23.08-.26.07-.29.09-.23.07-.26.09-.23,0-.28,0-.25c.05-.11.07-.16.11-.27l.22-.21.39-.06ZM44.14,23.94c0-.14,0-.2-.06-.34l0-.37c0-.21,0-.31-.06-.52l-.09-.24-.12-.5-.06-.33-.1-.36-.19-.5-.07-.27-.06-.16-.08-.3-.13-.35-.15-.3-.16-.24-.12-.23-.11-.2-.12-.23-.18-.2-.14-.19-.17-.2c-.14-.14-.21-.21-.34-.36l-.4-.33L41,17.07l-.26-.14-.16-.06-.29-.13-.38-.1h-.38l-.59.05-.29,0-.28.08-.83.33-.26.14-.25.16-.47.37-.19.2-.19.23-.15.22-.13.26c-.08.21-.12.31-.21.51a2.14,2.14,0,0,1-.06.27,2.83,2.83,0,0,1,0,.29V20c0,.21,0,.31.08.52l0,.28c0,.14,0,.21.07.34l.14.34.08.27.1.23.15.21.19.29.2.32.16.21.17.17.18.2.18.17.2.16.46.3.31.18.32.14.29.12.24.09.24.11.74.19.28,0,.32,0,.15,0,.32,0h.3l.38,0,.35,0,.29,0h.3l.28,0,.75-.11.23-.08.13-.18,0-.21C44.18,24.25,44.17,24.15,44.14,23.94Z"/>
        <path d="M65.36,17.64l-.07-.24-.1-.27-.12-.23-.15-.22-.2-.15-.25-.11-.28,0-.26.09-.25.13-.25.15a2.29,2.29,0,0,1-.23.21l-.15.13c-.18.19-.26.29-.44.47l-.16.22-.14.19-.18.25-.11.18-.2.29-.08.17-.18.26c-.05.12-.08.18-.14.3l-.07.17-.14.3-.09.23-.1.3,0,.18c0,.12-.06.18-.11.3l-.09.23a2.7,2.7,0,0,1,0,.28l0,.24V22l0,.15c0,.24,0,.36,0,.59v.35l0,.38,0,.26,0,.32,0,.17c0,.14,0,.21,0,.35l0,.15v.55l0,.32v.18l.1.73,0,.32c0,.2,0,.31,0,.52l-.06.22-.15.19-.34.22-.39.21-.35.16-.29,0-.38,0-.32-.17-.15-.37c0-.37-.07-.56-.11-.94l-.06-.28v-.44c0-.21,0-.31-.07-.51s0-.21,0-.35v-.18c0-.14,0-.21,0-.35l0-.17v-.77c0-.12,0-.18,0-.3l0-.26L58.23,23v-.83l0-.17v-.29l0-.78v-.35c0-.15,0-.23,0-.38v-.3c0-.18,0-.27.06-.45s0-.2,0-.33V18.9l0-.24c0-.25,0-.38,0-.63s0-.23,0-.38,0-.34,0-.57l0-.16v-1c0-.12,0-.18,0-.3l0-.27v-.78l0-.27c0-.18,0-.27.06-.46s0-.21,0-.36v-.14c0-.14,0-.22,0-.36l0-.16c0-.15,0-.22,0-.36v-.15c0-.14,0-.21,0-.36l0-.17c0-.14,0-.21,0-.36l0-.16.05-.3,0-.27,0-.25.06-.25c0-.21,0-.32,0-.54l0-.24,0-.28.07-.37.13-.33.21-.21.27-.1L59.86,8l.57-.1.32,0,.27,0,.26.1.15.19v.27l0,.24L61.34,9l0,.27-.05.3v.15c0,.16,0,.24-.06.39s-.05.37-.09.61,0,.2,0,.34l0,.29v.36L61,12.3c0,.14,0,.2,0,.34l0,.15c0,.14,0,.21,0,.36v.14c0,.15,0,.22,0,.36l0,.16,0,.3,0,.27v.76l0,.27c0,.14,0,.2,0,.33s0,.36,0,.6v1c0,.14,0,.21,0,.36s0,.18,0,.3l0,.24,0,.27,0,.26.08,0,.12-.24.14-.27c.06-.14.1-.21.16-.34s.11-.21.19-.35l.11-.15.15-.27c0-.11.07-.16.11-.27l.2-.32c.13-.15.19-.22.31-.38l.24-.3.4-.4.17-.19L63.3,15l.32-.23.28-.17.35-.12.69-.18.27,0h.32l.74.14.24.08.25.11.2.16.18.21.14.2.15.22.12.23.06.22,0,.26.12.49c0,.15,0,.22,0,.37l0,.34v.52l0,.26c0,.21,0,.31,0,.52,0,.36,0,.53-.08.89v.38l0,.27c0,.21,0,.31,0,.52v.46c0,.17,0,.25,0,.41s0,.26,0,.44v.18c0,.14,0,.21,0,.35s0,.23,0,.38,0,.19,0,.32l0,.23.05.31v.17l.1.26.17.19.25,0,.26,0,.22-.11.22-.18.19-.22c.08-.1.13-.15.21-.26l.22-.34.2-.28.25-.47c0-.1.07-.16.12-.26l.18-.48.13-.24c0-.11,0-.16.08-.28l.08-.19.1-.34.28-.88c0-.13.07-.19.11-.32s0-.18.08-.31l0-.17c0-.13,0-.19.08-.31l.1-.26.2-.19.36,0,.33.21.1.3-.07.24c0,.11,0,.17-.06.28l-.11.31-.6,1.88c-.06.22-.08.33-.14.55s-.07.18-.11.29l-.09.17-.21.51-.12.23-.27.5-.08.17-.15.27-.31.42c-.05.1-.08.14-.12.24a2,2,0,0,0-.19.22l-.16.18-.4.34-.47.29-.24.12-.27.1-.36.12-.46.07-.38,0-.29,0-.34-.17-.34-.26-.23-.29-.18-.21L65.57,25l-.14-.52-.05-.42,0-.37,0-.29V23.2l0-.27v-.35c0-.15,0-.23,0-.38l0-.27c0-.21,0-.31,0-.52s0-.22,0-.38l0-.34,0-.29v-1l0-.3V19l0-.29c0-.21,0-.31,0-.51S65.36,17.85,65.36,17.64Z"/>
        <path d="M80.58,16.14l-.12.22c-.11.18-.16.27-.28.45l-.34.41-.18.18-.24.19-.16.09L79,17.9l-.15.12-.25.16-.27.14-.25.14-.25.08-.28.11-.32.1-.34.12-.25.09-.27.05-.53.06-.53.08-.27,0h-.82l-.2,0-.12.14,0,.21.06.25,0,.28.1.47.09.26.11.21.28.46.39.38.21.15.21.13.52.17.3,0,.28,0h.47l.26,0,.29-.06.25-.08.72-.29.25-.1.24-.14.21-.13.45-.29L80,21l.34-.38.18-.18.17-.2c.13-.18.2-.26.34-.44l.27-.45.11-.22c.06-.1.08-.15.14-.26s.13-.26.22-.44l.1-.25.08-.24a2.72,2.72,0,0,1,.11-.25l.07-.24.11-.22.08-.24.08-.27.07-.25a2.72,2.72,0,0,0,.11-.25l.18-.17L83,16l.29.12.19.23,0,.25-.08.27c0,.14,0,.2-.09.34s-.08.2-.12.33l-.1.33-.12.34-.12.31c-.09.19-.13.29-.22.49l0,.18c-.06.12-.08.17-.13.29s-.14.26-.22.44-.09.13-.14.22l-.15.2-.13.23-.16.25-.07.13-.16.26-.14.23-.34.4-.24.28-.22.27-.4.37-.65.44-.21.13-.24.13-.36.13-.33.15-.58.18-.36.11-.31.09-.26.05-1,.11h-.24l-.27,0L75,24.15l-.25-.06-.51-.15L74,23.89l-.23-.12-.25-.15-.14-.11-.25-.18-.22-.15L72.71,23l-.16-.16-.17-.22-.14-.2-.14-.23L72,22l-.11-.21-.11-.23c-.11-.29-.16-.43-.26-.72l-.13-.52,0-.26,0-.24V19l0-.24v-.26l0-.26V18l0-.27.05-.33L71.5,17c0-.11,0-.16.09-.28s.07-.2.11-.34l.14-.32a2.8,2.8,0,0,0,.06-.28l.11-.22c0-.1.08-.14.13-.23l.35-.55.35-.51L73,14l.23-.26.25-.25.23-.25L74,13l.27-.21.25-.16.36-.25.59-.33.52-.22.38-.13.66-.14.4,0h.91l.29,0,.29.06.26.06.2.08.49.25.21.16.24.25.21.3.13.24.11.23.07.25.06.33c0,.15,0,.22,0,.37l0,.28c0,.14,0,.21,0,.35s0,.21-.06.35,0,.18-.06.3l-.07.16-.1.27Zm-4.27-2.62-.39.26L75.6,14l-.21.18-.35.42c-.09.12-.13.19-.21.31l-.19.3c-.06.1-.09.16-.16.26s-.08.21-.14.35l-.15.32c0,.11,0,.17-.09.28s-.07.2-.11.34l0,.36-.06.27,0,.24v.2L74,18h.4l.59-.09.3,0,.82-.17.28-.12.25-.11.27-.17.17-.09.27-.2.17-.18.18-.21.16-.23.18-.21.13-.25.11-.23.07-.24.1-.28c0-.21,0-.32.09-.53v-.29l0-.26-.08-.27-.17-.22-.22-.16-.27-.12-.29-.06h-.28l-.27,0-.29.11Z"/>
        <path d="M83.1,10l-.4-.7L82.62,9l0-.25,0-.26.08-.27L82.8,8,83,7.82l.19-.21.23-.15.26-.1.28,0h.29l.27.1.21.13.15.21L85,8l.11.76V9l0,.23.1.21.18.17.24.16.24.14.25.19.39.31.24.13.44.31.25.19.14.12.24.19.24.14.21.17.36.4.13.24c0,.13.08.19.14.32s.08.21.14.35v.26l0,.26-.09.24-.15.22-.23.49-.15.22-.12.25-.11.21-.15.25-.11.25-.15.25-.11.24c-.14.41-.21.62-.36,1l0,.26-.06.24,0,.26v.29l0,.26v.25l0,.28.2.54.18.2.19.23.22.13.26.11h.29l.55-.08.25-.1.25-.12.24-.15.19-.16.39-.34.21-.2.18-.2.15-.19.15-.25.44-.66.35-.72.12-.22.12-.27.12-.24.08-.24.12-.27.07-.18.13-.33.09-.24.07-.23.09-.24.25-.18.39,0,.3.25,0,.31-.06.26-.18.5a1.7,1.7,0,0,1-.09.24l-.12.24-.18.48c-.09.19-.14.29-.24.48a2.18,2.18,0,0,1-.11.27l-.1.16c0,.11-.07.16-.11.27l-.24.48c-.11.2-.17.3-.29.5l-.19.33-.16.31-.3.44-.18.19-.3.39-.21.2-.23.2-.43.29-.24.15-.21.14-.25.12-.22.09-.28.1-.66.1-.37,0-.59,0-.24,0-.31-.1-.48-.21L86,21.48l-.19-.14-.21-.19L85.45,21l-.16-.23-.15-.21L85,20.3l-.1-.27-.1-.24-.07-.24,0-.25,0-1,0-.27,0-.23.07-.27.1-.34.13-.33.1-.27c.06-.14.1-.21.16-.34l.16-.32c0-.11.06-.16.11-.27l.12-.33c.08-.14.12-.21.19-.35l.15-.25.17-.43c.1-.2.16-.29.26-.49l.1-.33c0-.18,0-.26,0-.43l-.12-.33-.36-.4-.22-.19-.56-.43-.21-.17-.27-.12-.23.09-.08.27,0,.26,0,.27,0,.26,0,.23,0,.26c-.06.29-.1.43-.16.72l0,.26,0,.24-.05.26c0,.15,0,.22-.09.36l-.1.33-.07.27c0,.15-.06.22-.09.36l-.1.33-.1.31c0,.13,0,.19-.09.33l-.13.33-.1.25-.15.17-.27.05-.26-.1-.21-.16v-.23l0-.27.07-.27,0-.24,0-.26.15-.54.06-.18.07-.3.08-.25,0-.26.07-.27,0-.27.05-.24.15-.54,0-.26,0-.26,0-.26.07-.27,0-.26,0-.24,0-.26.05-.26,0-.29,0-.25-.09-.21Z"/>
        <path d="M101.3,9.88,101,9.54l-.3-.37a3.06,3.06,0,0,1-.21-.29l-.15-.24c0-.15-.07-.22-.12-.36s-.08-.26-.13-.44l-.1-.45,0-.64V6.49l0-.22V6l.15-.52,0-.23.1-.26.11-.21.1-.24a2,2,0,0,0,.11-.26l.14-.21.13-.24.32-.42.17-.21.38-.4.41-.37.24-.16.6-.44.27-.16.25-.15.45-.26.28-.13.37-.14.31-.13.31-.1.34-.14.31-.1.29,0,.25-.08.28,0,.28-.1.28-.07.26,0,.28,0,.32,0,.37,0,.67,0,1.34,0,.7.09.19,0,.63.07.29.05.29.07.25.08.29.08.26.08.25.1.26.08.28.11.35.16.35.2.26.13.25.2.41.24L116,2l.19.2.16.16.37.4.32.45.13.14.15.25.1.22.09.26c.08.18.12.27.19.45l.09.25,0,.23c0,.3,0,.45.09.76v.62l0,.36V7c0,.2,0,.3-.06.5l-.06.26-.09.25-.06.23c-.07.2-.11.3-.18.51l-.06.22-.12.26-.12.19-.12.23-.12.25-.15.23-.15.2-.15.23-.21.22-.12.12-.21.23-.17.19-.21.18-.18.17-.21.17-.47.29-.45.26-.2.12-.24.12-.3.12-.23.06-.54.18-.26.07-.24.06-.27,0-.53,0-.27,0-1.37,0h-.3l-.36,0-.39-.06-.3,0-.55-.12-.33,0-.26.07-.11.21-.08.25-.07.29,0,.17,0,.32-.05.25c0,.21,0,.31,0,.51l0,.26-.15.52,0,.25v.26l-.07.26,0,.25-.07.26v.28c0,.21-.05.31-.09.52l-.07.26,0,.22-.1.27-.07.25-.1.24c0,.1-.08.15-.13.26l-.21.27-.37.22-.45.08-.5,0-.39-.17-.22-.23-.05-.25.07-.24.1-.26.12-.32.1-.34.06-.29c0-.14,0-.21.07-.34s0-.23.09-.38.08-.31.14-.52l0-.28c0-.15,0-.22.06-.37l0-.32.07-.26,0-.25v-.26l0-.26,0-.22,0-.26.08-.26c0-.14,0-.21.06-.34s0-.23.07-.38,0-.3.08-.51l0-.23,0-.31,0-.15,0-.31,0-.23,0-.26.08-.25,0-.26.08-.26,0-.37.07-.34c.06-.21.09-.31.16-.52l.15-.46L106,8.4l0-.26c.08-.24.11-.36.18-.6l.1-.4.09-.18.13-.4c.08-.17.11-.26.19-.43s.08-.21.14-.35l.14-.26.25-.44.15-.23.11-.23.15-.21.17-.2.39-.39.21-.18.49-.25.28-.09.55-.14.32,0,.28,0,.29.13.19.2.07.25-.08.2-.25.15-.21.15-.24.15-.18.17-.36.41-.15.21-.45.92-.12.2-.11.23-.08.26,0,.25-.08.26c0,.14-.05.21-.08.34l-.1.38a2,2,0,0,0-.11.26c0,.14,0,.22-.08.37l-.07.34,0,.26-.08.28,0,.17-.07.29,0,.25-.08.26,0,.26v.31l.07.25.22.13.36.09.43,0,.18,0,.42,0,.39,0h.3l.54-.05.36,0,.39-.07.27-.1.24-.09.26-.12.36-.15.3-.18.47-.29.21-.15.18-.17.53-.61.21-.31.23-.4.18-.31.15-.29c0-.13.07-.2.11-.34a3.37,3.37,0,0,0,.09-.34l0-.28,0-.34c0-.14.06-.22.09-.37l0-.28,0-.25,0-.26,0-.28-.07-.25c0-.15-.08-.22-.13-.36l-.1-.34c0-.1-.07-.15-.13-.25l-.09-.25c-.07-.09-.1-.14-.16-.23l-.16-.19-.16-.23-.41-.35-.2-.2-.44-.33L113,2.55l-.25-.11-.28-.1-.77-.26L111.41,2l-.29-.07-.54-.1h-.31l-.29,0h-1.16l-.28,0-.57,0-.28.05-.25.06-.28.08-.28.09-.52.15-.56.2-.24.12-.64.35-.31.16a2.4,2.4,0,0,1-.27.16l-.83.74-.37.39-.18.21-.14.21-.14.23-.1.24-.08.23-.07.26-.08.23-.07.26c0,.21,0,.31,0,.51l0,.25,0,.28.09.36.09.34.11.24.14.25L103,9l.17.21.13.22v.23l-.1.26a1.73,1.73,0,0,0-.17.21l-.2.18-.26.14-.27.07-.28,0-.29-.18-.22-.18A2.29,2.29,0,0,1,101.3,9.88Z"/>
        <path d="M120.53,7.06l-.27-.76,0-.25V5.79l.06-.25.13-.25.15-.2.19-.19.22-.17.25-.11.28,0h.28l.28.06.24.15.19.17.12.23.08.25v.76l-.07.29V6.7l.05.23.15.2.21.2.21.17.21.23.33.38.21.17.38.38.21.23.12.15.2.23.21.18.18.2.28.46.09.26c0,.13,0,.2.07.34s.05.22.08.37l0,.25-.1.25-.13.22-.18.19-.32.44-.18.19c-.07.09-.1.14-.16.23l-.15.19-.19.22-.16.22-.18.22-.15.22c-.22.38-.32.57-.53.95l-.1.25-.09.22-.07.25-.06.28-.07.26,0,.25v.28c0,.23.06.34.11.57l.14.23c0,.1.08.15.14.25l.2.18.22.14.29.07.56,0,.26-.05.27-.08.26-.1.21-.14.45-.26.24-.16.21-.16.18-.16.19-.22.55-.57.47-.66.16-.19.16-.24.16-.22.13-.22.16-.25.09-.16.2-.3.13-.22.1-.22.13-.22.28-.13.38.11.25.3,0,.31-.1.25c-.11.18-.16.27-.26.46l-.14.22-.16.22c-.1.17-.15.26-.26.43l-.31.44-.16.24-.13.14a2,2,0,0,1-.16.24l-.31.44-.38.43-.24.3-.22.28-.37.37-.21.16-.36.33-.24.16-.26.16-.48.21-.26.1-.23.1-.27.08-.23,0-.29.05-.66,0-.38,0-.57-.12-.23-.09-.29-.15-.43-.29-.2-.17-.17-.17-.17-.23-.14-.2-.12-.26-.11-.22-.05-.26-.06-.28-.06-.25,0-.26v-.25c.05-.41.08-.61.13-1l.09-.25.09-.22.12-.26.16-.3.18-.31.15-.25.21-.31.22-.28.15-.25.18-.31.25-.3.18-.22.25-.39.34-.45c.07-.12.1-.18.16-.3l.1-.42,0-.34-.29-.46-.18-.23-.48-.52-.17-.2L122,8.75l-.25.05-.12.25-.07.25-.09.26-.07.25-.06.22-.1.26L121,11l-.09.25-.09.23-.1.25-.15.34-.15.3-.13.26-.15.33-.15.31-.15.28-.15.31-.18.31-.15.23-.18.14h-.27l-.23-.15-.18-.19,0-.23.09-.25.12-.26.09-.22.09-.26c.09-.2.14-.3.24-.5l.09-.17.12-.28.12-.23.09-.25.13-.25.09-.26.09-.22.25-.51.06-.25.09-.25.06-.26.13-.25.06-.25.06-.23.07-.25.09-.25.07-.28V7.74l-.06-.22C120.68,7.34,120.63,7.24,120.53,7.06Z"/>
        <path d="M136.89,19l-.44.3-.49.24-.24.09-.49.25-.24.09-.53.12-.29.07-.53,0-.18,0-.29,0h-.23l-.26,0h-.58l-.51-.1-.31-.1-.26-.1-.19-.1-.26-.1-.22-.13-.45-.31-.19-.18-.33-.41-.13-.23-.1-.23L129,18l-.15-.51c0-.21-.05-.31-.09-.52s0-.3,0-.51v-.28l0-.25,0-.79.07-.25.07-.22.08-.25c0-.2.06-.3.11-.5l.08-.28.07-.25.1-.22.1-.25.14-.25.13-.22.1-.25.17-.32.2-.33.16-.22.2-.21.16-.19c.08-.08.12-.11.19-.19l.33-.43.2-.18.41-.35.45-.3.22-.13.26-.15.28-.15.35-.18.35-.14.25-.09.31-.09.19,0,.35-.08.18,0,.31-.06.28,0h.59l.7.07.48.1.4.09.27.08.26.11.23.14c.21.14.32.21.52.36l.32.2.2.19.13.18.16.22c.06.1.1.14.16.24l.3.66.06.26v.48c0,.21,0,.31.07.52l-.11,1-.09.33-.07.3-.06.28c-.1.33-.16.49-.26.82l-.16.38-.12.27-.15.27-.15.3-.11.24-.21.29-.32.48-.17.29v.2l.23.06h.7l.27,0,.31-.08.21-.09.5-.23.22-.14.43-.32.39-.35.17-.18.18-.21.17-.18c.11-.17.17-.25.29-.42l.32-.44.11-.16.21-.23.28-.11.35.1a2.92,2.92,0,0,0,.21.28v.32l-.12.24c-.18.25-.27.37-.44.62l-.17.18-.35.41-.15.21-.17.18-.2.2-.17.18-.19.15-.43.35-.19.14-.23.15-.22.12-.25.14-.21.09-.49.17-.28.08-.24,0h-1.05l-.32-.06-.26-.05-.22-.08-.23,0-.21.06-.22.12Zm-5.55-3.51-.05.33v.65c0,.18,0,.28,0,.46s.06.27.09.45l.18.44.18.29.22.22.31.16.43.14.38,0h.29l.29,0,.27-.09.25-.1.27-.12a1.79,1.79,0,0,0,.24-.12L135,18l.25-.15.13-.19,0-.16-.1-.21-.13-.24,0-.25.09-.34.14-.32.22-.16.25-.12h.27l.26.08.2.07h.18l.13-.16.11-.21.45-1,.25-.74c0-.15.05-.22.09-.36l.13-.47c.06-.38.09-.57.16-.95v-.45c0-.2-.05-.29-.08-.49s-.08-.26-.14-.44l-.18-.3-.23-.19-.35-.17-.45-.13-.39-.06-.3,0-.25,0-.28.06-.31.15-.26.12-.28.15-.32.2-.23.15-.22.18-.17.19-.19.18-.17.22-.33.37-.16.21-.68,1.09-.1.24-.08.22-.21.5-.07.22-.11.25,0,.25v.25Z"/>
        <path d="M145.12,12.08l.23-.17.42-.34.7-.42.23-.11.26-.14.23-.11.26-.08.29-.07.48-.16.3-.1.57-.09.25,0,.56,0h.28l.31,0,.55,0,.7.11.38.12.33.11.2.06.2,0,.15-.18.1-.24.27-.47.1-.21.13-.24.29-.43.14-.27.09-.15.17-.26.1-.21.27-.47.13-.21.45-.78.22-.3.27-.47.13-.2.18-.26.09-.16.33-.45.14-.21L157,4l.17-.2.31-.14.37-.05.31.06.28.08.3.11.18.09.29.14.2.18,0,.24-.11.21L159.2,5l-.17.23-.16.19-.14.21-.14.23-.22.3-.18.31-.18.28-.54.82-.18.31-.22.31-.14.23-.13.21-.32.54-.21.3-.14.26-.5.86-.11.24-.13.21-.13.23-.13.2-.14.24-.13.2-.1.24-.1.22-.1.23-.14.24-.13.21-.13.23-.1.24-.1.21-.1.24-.14.24-.15.34-.18.34-.09.16-.14.29-.1.24-.12.32c0,.14-.07.21-.12.35l-.3.72-.07.25-.1.24-.12.35c0,.13-.07.2-.12.32l-.07.25-.1.24-.07.25,0,.25,0,.28,0,.37c0,.13,0,.2,0,.34l.05.27.14.19.22.13.25.07.24,0,.27,0,.26-.1.6-.36.23-.15.36-.34c.15-.16.23-.23.37-.39l.51-.48.19-.19.16-.21.19-.22.41-.55.19-.22.15-.18.17-.22.2-.28.37-.16.34.13.15.31-.07.36-.21.31-.2.24-.23.27-.25.33-.14.14-.48.6-.22.22-.49.51-.37.39-.18.17a1.9,1.9,0,0,0-.21.19l-.18.16-.21.14-.23.13-.24.18-.13.09-.24.19-.23.13-.26.1-.22.08-.25.07-.78.12h-.27l-.23,0h-.26l-.25-.07-.25-.1-.21-.15-.21-.18-.15-.16-.17-.23c-.09-.17-.13-.26-.22-.44l-.08-.24,0-.26,0-.23c0-.31,0-.46,0-.77l.08-.53-.05,0-.18.17-.18.2-.33.4-.17.18-.21.17-.37.34-.2.14-.68.41-.29.16-.31.18-.29.13-.24.08-.3.05-.68.05h-.55l-.23-.06-.25-.06-.26-.09-.22-.09-.24-.14-.19-.14-.21-.2c-.09-.11-.13-.17-.23-.28l-.23-.25c0-.1-.07-.15-.12-.25l-.08-.23-.06-.27c0-.18-.07-.28-.12-.46l-.06-.27v-.59l.05-.37v-.25l0-.25.06-.28.07-.33.1-.36.09-.24.12-.27,0-.17.12-.27.12-.24.35-.64.12-.24c.11-.17.17-.25.29-.42l.22-.28.18-.29.22-.26.14-.12.2-.21.35-.35Zm6.27-.09-.58-.06-.27,0-.28,0H150l-.18,0-.32.07-.29,0-.28.08-.26.1-.23.11-.24.14-.24.16-.46.28-.2.14-.21.17-.42.37-.17.17-.19.23-.44.57-.17.2-.12.22-.13.24-.11.21-.15.23-.27.65-.12.24c0,.14-.06.21-.11.36l-.07.33-.07.27,0,.37v.83l.05.26.12.22.15.19.18.19.25.15.34.1.35,0,.3-.07.19-.06.28-.1.22-.11.4-.28.23-.2.2-.17.24-.16.17-.18.18-.2.21-.22.26-.31.24-.22.15-.2.16-.23.12-.21.16-.24.19-.31.2-.28.16-.23.12-.21.6-1.11.18-.34.38-.85.15-.35.13-.26.11-.3-.05-.26-.19-.15Z"/>
        <path d="M167.43,13.52l.31,0,.29.1.27.09.28.13.22.14.21.2.06.25-.17.3-.35.53-.34.37-.15.23-.12.2-.15.23-.17.19c-.09.18-.14.28-.24.46l-.14.23-.14.2-.16.25-.15.22-.1.18-.15.23-.11.2-.12.24-.14.22-.35.7-.17.31-.17.34-.15.25-.14.31c-.06.14-.08.21-.14.35l-.09.26-.06.25-.09.24-.06.25c0,.2,0,.3-.06.51l0,.26.1.23.17.16.25.09.23,0,.29,0,.46-.18.25-.14.24-.12.24-.09.43-.29.39-.32.22-.17.22-.15.17-.16.18-.22.2-.18.2-.21.15-.1.25-.23.21-.24.22-.26.39-.42.23-.18.27-.07.33.17.16.33,0,.28-.16.23-.17.18-.19.16-.21.18-.34.37-.15.23-.17.18-.41.37-.19.15-.4.36-.19.16-.44.29-.19.16-.23.17-.44.3-.45.23-.21.13-.48.23-.52.16-.76.16h-.53l-.26,0-.33-.11-.33-.16-.25-.17-.21-.28-.17-.3c0-.12-.07-.17-.11-.29s0-.21-.07-.36,0-.28,0-.47l0-.45.05-.36.09-.27.12-.26v-.12l-.11.12-.2.19-.37.32-.22.18-.64.46-.66.41-.21.16-.23.09-.26.09-.51.15-.5.13-.27,0H157.6l-.26,0-.25-.08-.28-.09-.25-.07-.19-.1-.24-.13-.21-.16-.34-.35-.17-.23c-.08-.18-.12-.27-.21-.44l-.07-.27,0-.24v-.25l0-.29.14-.75.07-.24.11-.24.07-.24.11-.24.07-.25.12-.32c.06-.13.1-.2.16-.34s.12-.29.21-.48l.13-.23.15-.32.32-.54.13-.2.11-.24.13-.23.07-.22.64-1.08.15-.26.5-.85.13-.21.14-.23.22-.3.15-.31.14-.23.17-.2.24-.1.29,0h.59l.27.08.26.12.25.13.22.17.08.19,0,.22-.11.23-.15.23-.1.21L161,14c-.08.1-.11.15-.18.25l-.07.16-.18.31-.12.12-.15.28-.14.23-.16.34-.2.34-.09.15-.18.28-.14.23-.11.24-.13.2-.22.48-.08.24-.11.24-.13.23-.22.47-.1.21-.14.23-.11.24-.15.34-.15.43-.1.5c0,.18,0,.27,0,.45l.15.44.33.29.33.13H159l.25-.06.22,0,.26-.06.28-.09.26-.09.47-.24.21-.13.65-.47.18-.16.23-.21.23-.23.27-.26.33-.39.2-.22.17-.19.17-.22.14-.2.14-.23.14-.2.14-.23.14-.2.18-.22.13-.2c.1-.18.14-.28.23-.47l.15-.22.14-.2.14-.23.14-.2.18-.22.11-.23.11-.21.3-.45.14-.2.29-.45.11-.21.15-.22.17-.19.2-.19.25-.09Z"/>
        <path d="M172,27l-.22-.09-.23-.12-.23-.15-.3-.23-.27-.25-.22-.2-.22-.3-.19-.31-.15-.22-.12-.23-.13-.21-.05-.25c0-.11,0-.17-.08-.28s0-.22-.06-.37,0-.2-.06-.33l0-.27v-.38l0-.34,0-.28,0-.25.13-.49.08-.22.09-.23.1-.27.15-.31.18-.33.15-.23.12-.23.35-.52.23-.26.21-.2.7-.75.21-.18.39-.3.53-.3.11-.08.27-.16.25-.11.22-.11.25-.11.25-.08.28-.1.25-.07.26-.05.28-.07.24-.05.27,0,.36,0,.67,0h.35l.28,0,.28.05.3.06.51.15.25.1.37.17.41.25.36.22.24.16.17.18.17.19.15.23.12.24.12.22,0,.28c0,.13,0,.2,0,.33s0,.21,0,.35l-.06.28-.13.31-.2.33-.16.21-.18.18-.22.17L180,21l-.28.18-.23.14-.26.1-.26,0-.39-.06-.47-.14c-.17-.1-.25-.15-.43-.24s-.14-.17-.23-.28l.08-.27.22-.2.29-.24.25-.19.19-.2.12-.2.13-.23.07-.21v-.26l-.12-.34-.24-.27a2,2,0,0,0-.24-.16L178,17.8l-.28-.05-.37-.05H177l-.3,0-.24.07-.28.1-.25.07-.28.1-.3.18a2.1,2.1,0,0,0-.26.13l-.28.18-.34.23-.26.25-.19.21-.2.18-.17.15-.18.19-.16.22-.14.19-.16.22c-.07.14-.11.2-.18.33l-.18.31-.13.25-.15.31-.12.35-.11.26-.09.36-.09.44c0,.16,0,.24,0,.4v.3c.05.25.08.37.14.62a2,2,0,0,0,.11.26l.12.21.15.22.28.23.3.23.24.12.35.16.62.18.67.14.26,0h.34l.29,0,.35-.07.36,0,.8-.2a3.42,3.42,0,0,0,.34-.13l.33-.13.49-.2.46-.27.22-.11.46-.27.4-.29.25-.18.14-.14.29-.23.26-.21.19-.21.32-.28.34-.1.36.18.15.31-.1.3-.15.18-.19.18-.19.2-.23.23a3.25,3.25,0,0,0-.29.23l-.33.22-.33.25-.61.45-.24.16-.2.15-.26.12-.68.41-.2.14-.22.11-.25.1-.47.15-.21.08-.24.08-.31.11-.27.07-.25,0-.27.06-.38,0h-.7l-.35-.05H174l-.52-.07-.78-.13-.49-.2Z"/>
        <path d="M190.43,26.33l-.11.29-.21.23-.56.45-.2.2-.19.17-.43.32-.19.14-.21.16-.37.31-.18.15-.26.18-.47.25-.21.16-.21.13-.23.13-.71.31-.49.16-.5.18-.28.08-.36.05-.38,0-.29,0h-.27l-.24,0-.26-.05-.78-.27L181.6,30l-.23-.13-.3-.22-.26-.24-.18-.2-.28-.45-.08-.24-.07-.25c0-.21,0-.31-.08-.51l0-.24v-.27l0-.26v-.23l.08-.24,0-.25.07-.24.06-.28.08-.24.32-.7.07-.24c.22-.47.32-.7.54-1.16l.13-.23.11-.23.27-.44.2-.32.19-.3.14-.22.16-.21.14-.23.16-.21.14-.22.16-.3.23-.31.34-.43.07-.21-.05-.17-.18-.12-.23-.1L183.1,19l-.25-.2c0-.12-.08-.18-.13-.31l0-.26,0-.28.13-.19.18-.15.25-.07.39.1.44.17.44.14.32,0,.18-.15.15-.25.13-.19.17-.21.19-.18.2-.2.16-.18.34-.42c.11-.18.16-.27.28-.44l.17-.21.19-.18.34-.42.16-.18.2-.2.18-.21.16-.18.17-.21.19-.17.21-.2.13-.19.17-.21.21-.2.21-.14.29-.05.29.05a2.55,2.55,0,0,1,.29.13l.35.18.36.22.23.22.17.28c0,.13,0,.19,0,.32l-.15.22-.27.29-.31.31a3.71,3.71,0,0,0-.27.29l-.19.23-.11.14-.19.24-.63.76-.17.18-.17.21-.24.3-.32.34-.4.49-.14.22-.19.17-.16.18-.07.19.13.19.31.17.29.1.51.15.42.12.9.32.37.17.15.23-.05.31-.12.35-.18.2-.21.14-.25.06-.29,0-.28,0-.3-.08-.79-.25-.32-.11-.25-.12-1.08-.37-.21.05-.16.18-.23.28c-.1.15-.16.23-.26.39l-.27.41-.29.38-.27.42c-.1.15-.15.23-.26.38l-.21.35-.08.15-.21.34-.19.27-.17.24-.28.44-.13.31-.18.33c-.08.19-.13.28-.22.46l-.24.75-.06.37-.06.34v.27l0,.28.08.23.24.29.34.29.29.16.28.1L184,29l.78-.09,1-.36.26-.12.2-.11.4-.24.52-.3.21-.13.19-.17.21-.16.25-.15.21-.14.22-.16.19-.17.17-.21.24-.21.22-.16.26-.2.42-.09.35.19Z"/>
        <path d="M202.49,32.12l-.21.18-.21.16a1.76,1.76,0,0,1-.23.14l-.2.16-.24.17-.23.14-.22.12-1,.43-.27.1-.26.07-.24.05-.29.06-.25,0h-.55l-.28,0-.22,0-.27,0-.35-.09-.28-.09-.2-.06-.28-.11-.23-.13-.22-.09h-.2l-.2.1-.21.12-.27.1-.33.11-.36.1-.31,0-.36,0-.34,0h-.29l-.39-.06-.46-.1-.48-.16-.36-.11-.28-.11-.26-.13-.22-.18L190.3,33l-.2-.2-.2-.23-.3-.44c0-.1-.08-.14-.13-.23l-.13-.26c-.06-.32-.1-.48-.17-.79v-.27l.1-.78.07-.27.18-.48.15-.24.28-.23.43-.13.46.05.33.16.11.22-.06.22-.09.24-.12.22-.06.25c0,.21,0,.31-.07.52l0,.25c0,.11,0,.16.06.26l.07.24.09.25.14.21a1.62,1.62,0,0,1,.18.19l.19.16.23.15.28.11.23.06.28,0,.23,0,.28-.07.26-.07.24-.21.11-.26-.07-.24-.08-.28,0-.25.08-.27.12-.23.24-.18.23-.09.52-.09.16-.09.08-.18,0-.26V28.6l0-.23v-1l0-.25V25c0-.14,0-.22,0-.36s0-.21,0-.35V24l0-.26.05-.22.06-.25v-.18h-.2l-.54.21-.25.12-.43.25-.22.16-.22.13-.52.4-.28.22-.2.2-.22.13-.19.16-.19.15-.19.16-.3.28-.28.23-.2.19-.42.33-.19.17-.2.19-.28.23-.31.15-.28,0L189,26.9a2.61,2.61,0,0,1-.06-.27l.11-.23.15-.21.38-.34.23-.19.14-.13.23-.18.21-.2.16-.18.58-.5.22-.16.21-.19.28-.23.31-.21.23-.19.22-.15.2-.17.23-.18.17-.09.24-.18.21-.13,1-.47.48-.2.25-.12.27-.1.27-.08.57-.08h.3l.32,0,.28.05.25.06.25.14.24.15.18.23.1.25v.25l-.1.23-.15.21-.2.17-.23.15-.14.18-.13.22a3.4,3.4,0,0,1-.07.34l0,.35-.05.28c0,.16,0,.24,0,.4s0,.29,0,.48v.49c0,.34,0,.51,0,.85l0,.28c0,.15,0,.22,0,.36l0,.36,0,.28v.25l0,.26v.73l0,.27c0,.15-.05.22-.08.36s-.07.27-.12.44,0,.22-.09.37l-.08.27-.27.65-.06.22,0,.16.2.15.24.1.52.16.56.05.26,0,.55-.07.26-.07.53-.17.51-.18.21-.12.92-.58.21-.15.21-.19.17-.16.24-.15.31,0,.3.23c.06.14.08.22.14.37l-.12.25-.19.2Z"/>
      </g>
      <g>
        <path d="M7,67.51,0,44.05H5.76L10,60l4.21-16h5.26l-7,23.46V79.14H7Z"/>
        <path d="M20.45,52.47c0-5.62,3-8.82,8.37-8.82s8.38,3.2,8.38,8.82V70.71c0,5.62-3,8.83-8.38,8.83s-8.37-3.21-8.37-8.83ZM26,71.07c0,2.5,1.1,3.45,2.85,3.45s2.86-1,2.86-3.45V52.12c0-2.51-1.1-3.46-2.86-3.46S26,49.61,26,52.12Z"/>
        <path d="M46,44.05V71.12c0,2.5,1.1,3.4,2.86,3.4s2.85-.9,2.85-3.4V44.05H57V70.76c0,5.62-2.81,8.83-8.22,8.83s-8.23-3.21-8.23-8.83V44.05Z"/>
        <path d="M80.16,69l3.76-24.91h7.67V79.14H86.37V54L82.56,79.14H77.35L73.24,54.32V79.14H68.43V44.05H76.1Z"/>
        <path d="M95.6,44.05h5.51V79.14H95.6Z"/>
        <path d="M113.39,59.59h7.72V70.71c0,5.62-2.81,8.83-8.22,8.83s-8.22-3.21-8.22-8.83V52.47c0-5.62,2.81-8.82,8.22-8.82s8.22,3.2,8.22,8.82v3.41H115.9V52.12c0-2.51-1.11-3.46-2.86-3.46s-2.86,1-2.86,3.46V71.07c0,2.5,1.11,3.4,2.86,3.4s2.86-.9,2.86-3.4V64.6h-2.51Z"/>
        <path d="M130.18,79.14h-5.51V44.05h5.51v15h6.27v-15h5.62V79.14h-5.62v-15h-6.27Z"/>
        <path d="M144.47,44.05h17v5h-5.76V79.14h-5.51V49.06h-5.77Z"/>
        <path d="M171.69,44.05h5.51V74.12h9.08v5H171.69Z"/>
        <path d="M188.68,44.05h5.52V79.14h-5.52Z"/>
        <path d="M205.43,65.15l-1.71,3.21V79.14h-5.51V44.05h5.51V59.34l7.22-15.29h5.52l-7.67,15.64,7.67,19.45h-5.67Z"/>
        <path d="M224.48,58.83H232v5h-7.56V74.12H234v5H219V44.05h15v5h-9.52Z"/>
      </g>
    </g>
    <path d="M117,25.14c-30.29,0-56.37,6-68.12,14.54H185.12C173.37,31.1,147.29,25.14,117,25.14Z"/>
  </g>
</svg>
